<svg xmlns:xlink="http://www.w3.org/1999/xlink" xmlns="http://www.w3.org/2000/svg" version="1.1"   viewBox="0 0 1024 1536"
  width="100%"
  height="auto"
  style="max-width: 100%; height: auto; display: block;" >
<path transform="translate(499,215)" d="m0 0h15l15 4 15 8 10 8 12 12 10 14 9 17 8 24 3 15 2 20v21l-2 20-5 20-6 15-8 15-9 11-8 7-1 1 122 1 5 5 4 5 8 7 7 7v2l4 2 127 127v515l-145 145h-358l-59-59-8-7-80-80v-510l2-5 119-119-1-7-4-7-5-16-7-24-1-5h-12l-11-4-9-7-6-7-6-13-3-13-1-10 2-18 5-13 7-9 9-6 7-3 23-6 17-5 10-1 12-1 21-6 25-10 27-14 19-12 12-9 3-1 2-4 9-11 9-9 14-9 11-5zm-139 200-13 4-1 1v7l5 21h121l-4-4-10-7-15-6-35-9-21-4-13-2zm-7 39-3 9v8l6 29 3 16v8l-5 3-24 8h-6l-7-25-5-21-4 2-7 7-8 7-36 36v2l-4 2-60 60-1 45 1 466 10 9 76 76 8 7 49 49h352l142-142v-509l-152-152h-130l-18 6-8 1h-13l-15-3-10-4z" fill="#7E9CD6"/>
<path transform="translate(316,309)" d="m0 0h5l-2 3-9 5-5 2-6 11-4 10-1 5v25l4 15 7 14 7 9 3 4v2l3 3 11 44v8l-15 6 1 2 16-6h2l9 36 3 11v6l-7 4-12 6 4 2h-6l-3-7-8-32-1-8-8 7-5 4-105 105-1 45 1 466 8 7 77 77 8 7 49 49h352l139-139h2v-511l-151-151-130-1 4-4 6-3 123 1 5 5 4 5 8 7 7 7v2l4 2 127 127v515l-145 145h-358l-59-59-8-7-80-80v-510l2-5 119-119-1-7-4-7-5-16-7-24-1-5h-12l-11-4-9-7-6-7-6-13-3-13-1-10 2-18 5-13 7-9 9-6 7-3 23-6 17-5z" fill="#84A0D7"/>
<path transform="translate(438,256)" d="m0 0h2l-2 5-7 16-5 17-2 14-1 16v12l2 23 5 24 6 18 10 19 9 12v2l2 1-3 1-18-6-32-8-30-5-14-1-9 2-19-1-12-6-7-6-7-10-6-12-3-11-1-9v-10l3-16 7-14 8-8 13-6 18-4 25-9 27-13 22-13 17-12z" fill="#CDD5E1"/>
<path transform="translate(503,277)" d="m0 0 11 3 10 7 5 3 4 5 3 9 5 8 4 16-1 4 1 6-2 10-3 14-2 5h-2l-1 5-7 10h-2l-2 4-5 4-5 5-8 4-10 3h-7l-3 1-14 1-11 4-4 2-9-19-6-19-4-24-1-11v-20l3-22 2-7 5 1 26-3 15-3 5-3z" fill="#6A8ABC"/>
<path transform="translate(500,230)" d="m0 0h11l18 6 11 7 16 16 9 14 8 16 5 13 5 25 1 13v17l-2 18-4 17-5 13-7 12-7 9-8 9-8 6-16 7h-22l-13-4-14-8-12-12-2-3v-4l4-2h20l17-3 15-5 11-7 12-16 4-6 2-6h2l2-9 2-7 3-16v-26l-3-10-3-5-4-10-7-8-3-9h-2l-4-5-3-1v-2l-5-1-11-4-8 1-18 4-11 4-16 4-10 3-3 1 3-9 7-11 9-10 8-7 10-5z" fill="#8CAED6"/>
<path transform="translate(316,309)" d="m0 0h5l-2 3-9 5-5 2-6 11-4 10-1 5v25l4 15 7 14 7 9 3 4v2l3 3 8 32v6l-5 3-7 2-6 3h-2l-1 5-3 1-5-16-7-24-1-5h-12l-11-4-9-7-6-7-6-13-3-13-1-10 2-18 5-13 7-9 9-6 7-3 23-6 17-5z" fill="#8BADD5"/>
<path transform="translate(503,226)" d="m0 0h10l16 4 9 3 3-1 2 2 2 5 6 2 6 4 1 2h3l12 16 2 1 3 10 2 5 2 1 5 17 5 16 1 7 1 13 1 15-1 21-1 1-1 15-4 14-3 8-11 22-6 7-3 5-3-3 6-11v-5l-14 14h-2v2l-12 7-8 3h-5l4-3 13-6 9-7 7-8 8-12 7-14 4-13 3-16 1-12v-17l-2-19-4-19-6-16-9-17-9-12-14-14-10-6-18-6h-11l-16 4-10 5-5 4-2-1 7-6 10-5 14-5z" fill="#6A8ABC"/>
<path transform="translate(320,310)" d="m0 0h6l-3 2-10 5-8 9-5 11-3 16v10l2 13 5 14 7 11 6 7 10 6 5 2 19 1-4 3v7l1 8-2-3-2-5-1-3-4-1-8 2 3 15 5 17v3l11-2 1 13 6 29 3 16v8l-3 3-23 8h-9l3-3 16-8-1-9-10-40v-4l-15 6-6 1 2-4 13-5h2l-2-12-10-40-4-5v-2l-7-8-8-14-4-13-1-5v-25l4-13 5-10 4-5 4-1z" fill="#6B8BBD"/>
<path transform="translate(316,309)" d="m0 0h5l-2 3-9 5-5 2-6 11-4 10-1 5-4 3-6-2-1 2-6 3-16 4h-4v-7l1-5-3 14v16l2 16-2-3-2-11v-23l-1 9-3-1-4-5-1-7 6-12 5-6 9-6 7-3 23-6 17-5z" fill="#7F9CD6"/>
<path transform="translate(339,422)" d="m0 0 3 1 4 5 5 16v4l123-1 5 4 5 2-4 2h-127l-2 8-3-4-2 1h-7l-7-24-2-12z" fill="#7F9CD6"/>
<path transform="translate(331,471)" d="m0 0h2l9 36 3 11v6l-7 4-12 6 4 2h-6l-3-7-5-19v-14h-2l1-2 4-3-2-1v-2h-4v-3l6-3 7-2 2-3h3z" fill="#7F9CD7"/>
<path transform="translate(248,394)" d="m0 0 9 1 1 2h3l6 11-1-4 7-2 13-1 1-2 6 1 8-3 7 6 7 8-3 2-8 2-10 4-3 3-2 3-16-2-10-5-9-11-6-12z" fill="#7E9CD6"/>
<path transform="translate(284,488)" d="m0 0h2l2 3-1 4-98 98-3-1v-5l39-39 7-8 4-4h2v-2l5-5 5-4 25-25 5-6h2l2-4z" fill="#829ED7"/>
<path transform="translate(435,269)" d="m0 0 1 3-4 13-4 28v31l3 23 6 23 10 23 9 15 2 4-4-2-8-11-4-4-8-17-5-15-5-24-2-23v-12l2-23 2-11 2-3 6-16z" fill="#89ABD6"/>
<path transform="translate(434,379)" d="m0 0 2 3 7 18 8 15 10 14 11 10 16 11 14 5 2 2h25l16-5 3-1 2 2h-2v2l-18 6-8 1h-13l-15-3-10-4v-2l-6-2-4-3-5-2-11-8-3-3-4-7-6-8 1-3 9 13h2l-7-10-8-16-7-17z" fill="#6E8EBF"/>
<path transform="translate(576,264)" d="m0 0 4 4 7 15 6 19 3 15 2 20v21l-2 20-5 20-6 15-8 15-9 11-1-3 8-10 2-6 2-1 2-6 4-8 4-13 2-9 1-13 1-3 1-23-2-18v-11l-4-11-6-21v-3l-3-1-3-8z" fill="#809DD6"/>
<path transform="translate(339,422)" d="m0 0 3 1 4 5 5 16-2 5v6l2 2-5 3h-7l-7-24-2-12z" fill="#CDD5E0"/>
<path transform="translate(271,321)" d="m0 0 3 2-4 3 1 2-7 5h-2l-4 7-3 17v16l2 16-2-3-2-11v-23l-1 9-3-1-4-5-1-7 6-12 5-6 9-6z" fill="#7D9BD2"/>
<path transform="translate(670,288)" d="m0 0h2l4 11v2l-16 4-27 5h-3v-2l23-12z" fill="#82A0D6"/>
<path transform="translate(625,365)" d="m0 0 9 1 32 8 1 3-4 10-3 1-17-10-18-12z" fill="#809DD7"/>
<path transform="translate(620,227)" d="m0 0 5 3 5 4-2 4-8 8-8 7-10 8v-3l12-22z" fill="#819FD6"/>
<path transform="translate(505,319)" d="m0 0 4 2 5 6 2 5v15l-3 6h-3l-4-8-2-18z" fill="#7F9CD7"/>
<path transform="translate(618,411)" d="m0 0 5 2 22 14-2 4-5 5-4-1-12-16-4-6z" fill="#839FD7"/>
<path transform="translate(320,310)" d="m0 0h6l-3 2-10 5-8 9-5 11-3 16v12h-2v3h-2v-23l4-13 5-10 4-5 4-1z" fill="#6E8DC1"/>
<path transform="translate(536,241)" d="m0 0 5 3 15 15 9 14 8 16 5 13 3 13-1 4-8-25-6-12-3-9h-2l-2-6h-2v-2h-2v-2h-2l-4-7-4-5-5-5-4-3z" fill="#7F9CD7"/>
<path transform="translate(426,364)" d="m0 0 2 4 4 16 4 12 1 1 2-2 8 18 9 15 2 4-4-2-8-11-4-4-8-17-5-15-3-13z" fill="#7F9CD5"/>
<path transform="translate(328,472)" d="m0 0h4l-1 5-3 1-2 3-10 3-4 1v-5l3-1v-2z" fill="#8BACD6"/>
<path transform="translate(586,402)" d="m0 0 2 1-1 6-10 19-9 11-1-3 8-10 2-6 2-1 2-6 4-8z" fill="#7F9CD6"/>
<path transform="translate(294,343)" d="m0 0 3 1v21h-2v3h-2v-23z" fill="#7090C4"/>
<path transform="translate(312,486)" d="m0 0 1 2h4v2l3 1-2 3-1-1-3 3h2l1 10-2-1-4-18z" fill="#8FAFD6"/>
<path transform="translate(337,417)" d="m0 0h14l-4 3v7l1 8-2-3-2-5-1-3-2-1v-2h3l-1-2-6-1z" fill="#8BAAD4"/>
<path transform="translate(257,329)" d="m0 0 2 1-8 9-4 10-3-1 6-12 5-6z" fill="#8CABD6"/>
<path transform="translate(298,333)" d="m0 0 2 1-2 11h-3l-1-5 3-6z" fill="#6E8DC1"/>
<path transform="translate(350,445)" d="m0 0 2 4 1 6-2 8-2-4-1-10 1-3z" fill="#8FAFD6"/>
<path transform="translate(435,265)" d="m0 0 3 1-1 3h-2l-3 9-4 13h-1l1-8 6-16z" fill="#82A1D6"/>
<path transform="translate(544,439)" d="m0 0m-1 1m-3 1h3l-1 3-10 4h-5l4-3z" fill="#6F8FC0"/>
<path transform="translate(305,323)" d="m0 0v3l-4 8h-4l2-7 5-3z" fill="#6A8ABC"/>
<path transform="translate(558,442)" d="m0 0 4 2-7 6h-2l-1 2 1-5z" fill="#6B8BBD"/>
<path transform="translate(578,422)" d="m0 0 2 1-8 11-5 5 1-4z" fill="#84A0D7"/>
<path transform="translate(329,418)" d="m0 0 14 1-3 2h-10z" fill="#7F9CD6"/>
<path transform="translate(625,365)" d="m0 0 9 1 1 2-2 1-1 2-7-5z" fill="#89A8D6"/>
</svg>