<?xml version="1.0" encoding="utf-8"?>
<svg version="1.2" baseProfile="tiny-ps" xmlns="http://www.w3.org/2000/svg" width="325px" height="407px" viewBox="0 0 325 407" preserveAspectRatio="xMidYMid meet">
 <g fill="#0d141f">
  <path d="M80.9 381.2 c1.2 -0.9 1.3 -1.8 0.1 -6.5 -1.2 -5.2 -1.1 -8.8 0.5 -12.9 0.5 -1.3 0.2 -1.8 -0.9 -1.8 -0.9 0 -1.6 -0.8 -1.6 -2 0 -1.8 0.7 -2 6.9 -2 l6.9 0 0.4 6.6 c0.3 4.7 0.9 7 2.1 7.9 1.1 0.8 1.7 2.6 1.7 4.9 0 3.1 -0.4 3.8 -2.7 4.7 -3.8 1.5 -15.3 2.4 -13.4 1.1z"/>
  <path d="M120.2 333.3 c0.3 -2.1 1.1 -6.8 1.9 -10.5 l1.4 -6.8 4.7 0 4.8 0 0 3.5 c0 1.9 -0.4 3.5 -0.9 3.5 -0.5 0 -1.7 3.2 -2.6 7 l-1.7 7 -4 0 -4 0 0.4 -3.7z"/>
  <path d="M37.1 311.1 c-0.8 -0.5 -1.6 -3.2 -1.9 -6.5 l-0.4 -5.6 6.5 0 c5.9 0 6.5 0.2 7.1 2.3 1.1 4.1 0.6 8 -1.1 9.3 -2 1.5 -8.1 1.8 -10.2 0.5z"/>
  <path d="M132 287.3 c0.3 -6.9 0 -8.2 -2 -8.8 -2.3 -0.7 -2.6 -3.8 -0.9 -9.9 l1.1 -3.9 5.1 0.6 c2.8 0.4 5.5 1.1 6.1 1.7 0.7 0.7 0.6 3.3 -0.2 8.2 -0.9 4.9 -0.9 7.5 -0.2 8.2 0.5 0.5 1 2.5 1 4.3 0 3.3 0 3.3 -5.1 3.3 l-5.1 0 0.2 -3.7z"/>
  <path d="M171.4 237 c-26.2 -2.2 -47.5 -6.3 -55.5 -10.7 -10.6 -5.7 -18.9 -17.4 -21.1 -29.9 -1.9 -10.5 -2.1 -28.3 -0.4 -36.4 3.3 -15.5 11.7 -27.3 23.4 -32.8 5.3 -2.5 6.9 -2.7 20.8 -3 14.1 -0.4 16.6 -0.1 34.4 3.3 18.5 3.5 19.6 3.6 27.9 2.5 4.8 -0.7 15.8 -1 24.6 -0.9 15.8 0.4 16.2 0.4 22.7 3.7 10.2 5 15.3 12.3 18.5 26.4 2.2 9.8 0.7 30 -2.9 40.5 -3 8.4 -10.4 20 -15.5 24.2 -5.7 4.7 -14.7 9.1 -18.6 9.1 -1.9 0 -3.7 0.5 -3.9 1.1 -0.2 0.5 -2.1 1.4 -4.3 1.9 -5.9 1.3 -38.5 2 -50.1 1z"/>
 </g>
 <g fill="#181d2e">
  <path d="M76 405.7 c-1.4 -0.7 -3.3 -2.9 -4.4 -5.1 -1.6 -3.3 -1.7 -4.3 -0.6 -7.9 1 -3.5 1 -4.1 -0.4 -4.9 -3.4 -1.9 -1.2 -2.8 7 -2.8 l8.7 0 -0.7 5.7 c-0.4 3.5 -0.3 5.4 0.2 4.8 1.4 -1.5 3.2 -7.5 3.2 -10.6 0 -2.6 0.3 -2.9 3.5 -2.9 3.6 0 4.7 1.3 2 2.4 -1.1 0.4 -1.5 2.3 -1.5 8 0 7 -0.2 7.8 -3.1 11.1 -2.6 3 -3.7 3.5 -7.3 3.5 -2.2 0 -5.2 -0.6 -6.6 -1.3z"/>
  <path d="M118.4 396.7 c-4.2 -1.2 -6.6 -5.6 -6.6 -12 0 -9.8 -0.1 -9.5 4 -10.6 2 -0.6 4.9 -1.1 6.5 -1.1 2.6 0 2.7 0.1 2.8 6.3 0 3.4 0.3 5.6 0.6 5 0.3 -0.8 2.3 -1.3 4.8 -1.3 3.8 0 4.3 0.3 4.8 2.6 0.3 2 -0.4 3.5 -3.2 6.5 -4.1 4.5 -8.8 6.1 -13.7 4.6z"/>
  <path d="M39.9 394.1 c-2.1 -1.7 -2.4 -2.7 -2.2 -7.8 0.3 -11.1 0.4 -11.3 4.3 -11.4 l3.5 0 -4.2 -1.9 c-3.7 -1.6 -4.3 -2.4 -4.3 -4.9 0 -3 1.4 -4.1 5.4 -4.1 1.2 0 4.2 -0.9 6.5 -2.1 2.9 -1.4 5.8 -2 9 -1.8 7.6 0.5 9.8 -0.9 9.2 -5.9 -0.2 -1 1.4 -1.3 6.1 -1.2 3.5 0.1 9.8 -0.1 14.2 -0.5 l7.8 -0.8 -0.7 7.2 -0.7 7.1 3.6 0 c3.4 0 3.6 0.2 3.6 3.4 0 1.9 0.5 3.8 1 4.1 1.8 1.1 1 4.3 -1.2 4.9 -3 0.8 -9.8 0.8 -9.8 0 0 -0.4 0.8 -1.3 1.8 -2 1.6 -1.2 1.6 -1.4 -0.2 -2.7 -1.4 -1 -2.1 -3.2 -2.6 -8.3 -0.4 -3.8 -0.8 -5.5 -0.9 -3.9 l-0.3 3 -1 -2.7 c-1.2 -3.3 -2 -3.4 -11.2 -0.7 -25 7.2 -27.1 8.3 -24.8 11.9 1 1.7 0.8 1.9 -2.1 2.2 -2.9 0.3 -2.4 0.6 4.5 3.3 5.6 2.1 7.8 3.5 7.8 4.8 0 0.9 -0.7 1.7 -1.5 1.7 -0.8 0 -2.1 1.5 -2.9 3.3 -3 7.2 -12.3 10.2 -17.7 5.8z"/>
  <path d="M124 339 c0 -4.1 4 -18.3 5.4 -19.2 0.8 -0.5 0.7 -0.8 -0.2 -0.8 -0.8 0 -1.2 -0.8 -1 -1.7 0.4 -2 3.9 -3 11.6 -3.2 5 -0.1 5.2 0 5.2 2.5 0 1.5 -1.6 7.8 -3.6 14 l-3.7 11.4 -6.8 0 -6.9 0 0 -3z"/>
  <path d="M28.4 334.2 c0.3 -0.5 -0.3 -4.1 -1.3 -7.8 -2.7 -9.5 -5.9 -25.8 -6.4 -32.1 l-0.4 -5.3 4.2 0 4.2 0 1.3 8.6 c1.2 8.1 1.4 8.6 4.1 9.6 2.4 0.8 2.9 1.5 2.9 4.4 0 2.7 -0.4 3.4 -2 3.4 -1.9 0 -2 0.4 -1.3 5.8 0.4 3.1 0.8 7.5 0.8 9.7 0 3.8 -0.2 4 -3.4 4.3 -1.9 0.2 -3.1 -0.1 -2.7 -0.6z"/>
  <path d="M32.6 302.3 c-0.3 -2.1 -0.6 -5 -0.6 -6.5 0 -2.5 0.4 -2.8 3.3 -2.8 1.8 0 5.4 0.7 8 1.6 4.6 1.6 4.7 1.6 4.7 6 0 3.2 -0.4 4.4 -1.5 4.4 -0.8 0 -1.5 -0.6 -1.5 -1.4 0 -1 -1.1 -1.4 -3.5 -1.3 -2.9 0.2 -3.5 0.5 -3.1 2 0.3 1.3 -0.2 1.7 -2.4 1.7 -2.4 0 -2.8 -0.5 -3.4 -3.7z"/>
  <path d="M134.1 282.3 c0.1 -6.2 0.2 -6.5 1.1 -3.3 0.5 1.9 0.8 4.7 0.6 6.2 -0.4 2.3 -0.1 2.8 1.6 2.8 1.5 0 1.7 -0.3 0.8 -1.2 -1.4 -1.4 -1.5 -7.7 -0.3 -13.1 0.8 -3.4 0.7 -3.9 -1.2 -4.7 -3.6 -1.3 0 -2.1 8.4 -1.8 l7.4 0.3 0.3 4.2 0.3 4.2 -4.3 0.3 -4.3 0.3 -2 6.2 c-1.9 6 -2.1 6.3 -5.2 6.3 l-3.3 0 0.1 -6.7z"/>
  <path d="M220 234 c0 -0.6 0.7 -1.3 1.5 -1.6 1 -0.4 1.3 -1.3 1 -2.6 -0.6 -1.6 -0.3 -1.8 1.9 -1.2 1.4 0.3 3.7 0.7 5.1 0.8 3.9 0.2 3.4 4.2 -0.6 5 -4.7 0.9 -8.9 0.7 -8.9 -0.4z"/>
  <path d="M94 191 c0 -5.4 1 -6.3 3.2 -2.7 1.9 3.1 1.2 7.7 -1.3 7.7 -1.6 0 -1.9 -0.7 -1.9 -5z"/>
  <path d="M184.8 133.3 c-1 -0.2 -1.8 -1.1 -1.8 -1.9 0 -1.1 2 -1.4 10 -1.4 7.8 0 10 0.3 10 1.4 0 0.7 -1 1.6 -2.2 2 -2.6 0.6 -13.4 0.6 -16 -0.1z"/>
 </g>
 <g fill="#242f21">
  <path d="M64 350.7 c-1.4 -0.6 -2.7 -1.4 -3 -1.7 -0.3 -0.3 -3.1 -1.4 -6.2 -2.4 -3.2 -1.1 -5.8 -2.3 -5.8 -2.8 0 -0.4 -1.1 -0.8 -2.5 -0.8 -1.4 0 -4.1 -0.7 -6 -1.4 -3.3 -1.4 -3.5 -1.8 -3.5 -6.3 0 -2.6 -0.5 -6.6 -1 -8.8 -1.6 -6.8 -2.5 -28.5 -1.1 -28.5 0.6 0 1.1 1.2 1.1 2.8 0 1.9 0.3 2.3 0.9 1.4 0.6 -1 1 -0.4 1.5 2.1 0.4 1.9 1.3 3.8 2.2 4.1 1.7 0.7 5.4 -1.4 5.3 -2.9 -0.1 -0.5 -0.1 -2.5 0 -4.2 0.1 -3.1 0.4 -3.3 3.5 -3.3 1.9 0 6.2 0.9 9.5 1.9 l6.1 1.9 0 -3.4 c0 -2.9 0.3 -3.4 2.3 -3.4 4.5 0 3.8 -1.5 -1.5 -3.1 -5 -1.5 -5.3 -1.8 -5.6 -5.3 l-0.3 -3.6 4.4 0 c2.5 0 9.6 1.7 16 3.8 l11.5 3.8 3.8 -1.9 c2.8 -1.5 4.9 -1.8 8.3 -1.3 5.1 0.7 6.1 1.7 6.1 6.4 0 3.7 0.6 3.9 9.5 1.7 3.3 -0.8 8.4 -1.4 11.3 -1.5 l5.2 0 -0.1 4.3 c0 2.3 -1.1 8 -2.2 12.7 -2.1 8.3 -2.3 8.5 -4.9 8.2 -2.4 -0.3 -2.8 0 -2.8 2 0 1.3 -0.7 4.7 -1.4 7.6 -0.8 2.8 -1.1 5.2 -0.6 5.2 0.4 0 1.6 -3.3 2.6 -7.2 2.4 -9.2 2.9 -5.7 1.2 6.6 -1.3 8.7 -1.4 9 -4.3 9.8 -6.1 1.8 -24.2 5.1 -30.4 5.5 -3.6 0.3 -7 1.1 -7.8 1.9 -1.8 1.7 -17.6 1.8 -21.3 0.1z m26.8 -12.5 c0.2 -2.4 -0.1 -3.2 -1.2 -3.2 -1.2 0 -1.6 1 -1.6 3.6 0 4.5 2.4 4.2 2.8 -0.4z m-13.8 -14.6 c0 -1.5 0.7 -2.6 1.8 -2.9 1.1 -0.2 2.1 -1.4 2.5 -2.6 0.4 -1.8 0.1 -2.1 -2.9 -2.1 l-3.4 0 0 5 c0 2.8 0.5 5 1 5 0.6 0 1 -1.1 1 -2.4z m20.2 -6.4 c0.4 -4.6 0 -6.9 -0.9 -4.4 -0.3 0.6 -1.5 1.2 -2.8 1.2 -2 0 -2.3 0.6 -2.6 4.3 -0.4 4.2 -0.4 4.2 2.8 3.9 2.9 -0.4 3.1 -0.7 3.5 -5z m12.8 0.4 c0 -0.6 0.3 -2.8 0.6 -4.8 0.6 -3.4 0.4 -3.8 -1.4 -3.8 -2.6 0 -2.8 0.4 -3.6 6.1 -0.7 4.6 -0.6 4.6 1.9 4.2 1.4 -0.3 2.5 -1 2.5 -1.7z m13 -8.9 c0 -2 -2.5 0.1 -2.8 2.4 -0.2 2.3 -0.2 2.3 1.3 0.5 0.8 -1.1 1.5 -2.4 1.5 -2.9z m-43 -4.7 c1.8 -0.6 0.7 -0.8 -4 -0.8 -4.5 -0.1 -5.9 0.2 -4.5 0.8 2.5 1.1 5.2 1.1 8.5 0z"/>
  <path d="M27.3 288.5 c-0.8 -2.3 0.5 -8.9 1.9 -9.4 0.6 -0.2 2.2 -1.5 3.5 -2.7 2.6 -2.6 6.2 -3 11.2 -1.3 1.7 0.6 3.9 0.8 4.9 0.4 1.3 -0.5 0.1 -1.4 -4.8 -3.6 -7.9 -3.7 -10 -5.5 -10 -8.9 0 -6.2 3.8 -6.4 14.5 -0.9 l7.9 4.1 5.8 -1.6 c3.2 -0.9 7.4 -1.6 9.3 -1.6 3.3 0 3.5 0.2 3.5 3.3 0 3.9 -2.4 5.4 -9.9 6.3 -8 1 -9.1 1.9 -9.1 8.2 l0 5.4 -4.7 -0.4 c-2.7 -0.3 -6.9 -1.2 -9.5 -2 l-4.8 -1.6 0 3.9 0 3.9 -4.5 0 c-3.2 0 -4.7 -0.5 -5.2 -1.5z"/>
  <path d="M113 282.6 c0 -3.1 0.4 -3.6 6.9 -7 7.2 -3.8 12.8 -4.8 11.8 -2.2 -0.4 0.9 0.2 1.7 1.4 2.1 3.5 1.1 1.6 3.9 -5 7.3 -4.3 2.1 -7.8 3.2 -10.8 3.2 -4.2 0 -4.3 -0.1 -4.3 -3.4z"/>
 </g>
 <g fill="#222340">
  <path d="M75.1 405.4 c-2.4 -1.7 -5.1 -7.1 -5.1 -10.1 0 -1 0.9 0 1.9 2.3 1.8 4.1 4.4 6 6.3 4.8 0.5 -0.3 1.9 0.3 3.1 1.4 1.2 1.1 2.9 2.2 3.7 2.5 0.8 0.3 -0.5 0.6 -3 0.6 -2.7 0.1 -5.5 -0.6 -6.9 -1.5z"/>
  <path d="M118.4 396.8 c-4 -1 -6.6 -5.7 -6.8 -12.2 -0.1 -4.3 -0.4 -5.1 -1.8 -4.8 -1.2 0.2 -1.8 -0.4 -1.8 -1.6 0 -2.3 1.8 -3.2 6.6 -3.2 3.4 0 4.6 1.6 2 2.6 -1.8 0.7 -2.8 5.8 -2 10.2 0.6 2.9 1.4 3.7 6.7 6.1 5.9 2.7 6 2.8 3.1 3.3 -1.7 0.2 -4.3 0.1 -6 -0.4z"/>
  <path d="M38.2 391.7 c-1.5 -3.6 -1.5 -8.8 -0.1 -12.1 0.9 -2 0.9 -2.9 -0.1 -4.1 -1.1 -1.3 -0.7 -1.5 2.9 -1.5 3.7 0 4.1 0.3 4.1 2.4 0 1.9 -0.4 2.3 -1.9 1.9 -2.2 -0.6 -2.8 1.7 -3.4 11.2 -0.2 4.9 -0.3 4.9 -1.5 2.2z"/>
  <path d="M136.7 390.2 c-0.5 -0.7 -1.7 -1 -2.8 -0.7 -1.5 0.5 -1.9 0.1 -1.9 -1.4 0 -2.6 -1.8 -2.7 -3.7 -0.3 -1.3 1.5 -1.4 0.9 -0.9 -5.3 0.3 -3.8 0.6 -8.2 0.6 -9.7 0 -2.5 0.3 -2.8 3.6 -2.8 3.1 0 3.7 0.4 5 3.6 1.6 3.8 1.7 19.1 0.1 16.6z"/>
  <path d="M97 376 c0 -0.5 0.7 -1 1.5 -1 1.6 0 2 -2.7 0.7 -4.8 -0.5 -0.7 -1.6 -1 -2.6 -0.6 -1.5 0.6 -1.6 -0.1 -1 -7.7 0.4 -4.6 1.1 -9 1.7 -9.6 0.5 -0.7 2.2 -1.3 3.8 -1.3 2.7 0 2.7 0.1 1.3 2.8 -0.9 1.7 -1.4 5.8 -1.4 11 0 7.5 0.2 8.4 2 8.9 3.7 1 2.3 3.3 -2 3.3 -2.2 0 -4 -0.4 -4 -1z"/>
  <path d="M130 345.6 c0 -2.7 0.5 -3.6 2.2 -4.2 2.9 -0.9 4.8 -2.9 4.8 -5 0 -0.9 0.5 -3.4 1.2 -5.6 1.1 -3.7 1.3 -3.9 4.7 -3.6 l3.6 0.3 -0.2 6 c-0.2 4.7 -0.7 6.4 -2.3 7.7 -1.2 1 -2 2.8 -2 4.7 l0 3.1 -6 0 -6 0 0 -3.4z"/>
  <path d="M28 337.5 c-0.9 -1.1 -1 -1.9 -0.3 -2.6 0.6 -0.6 0.9 -3.1 0.7 -5.7 -0.4 -4.9 0 -4.8 1.1 0.2 1 4.6 1.9 2.1 1.6 -4.9 l-0.2 -6.5 3.4 0 c3.4 0 3.6 0.2 4.6 5 0.6 2.8 1.1 7.6 1.1 10.5 l0 5.5 -5.4 0 c-3.6 0 -5.8 -0.5 -6.6 -1.5z"/>
  <path d="M141.5 317.9 c0.6 -0.9 -0.2 -1 -3.3 -0.5 -3.2 0.5 -4.2 0.3 -4.2 -0.8 0 -0.7 -0.7 -2 -1.6 -2.7 -1.3 -1.1 -1.5 -2.5 -1.1 -6.9 0.3 -3 0.9 -6.5 1.3 -7.7 0.5 -1.9 0.2 -2.3 -1.5 -2.3 -1.4 0 -2.1 -0.6 -2.1 -1.9 0 -1.5 1 -2 4.7 -2.6 3.7 -0.5 4.4 -0.9 3 -1.6 -2.3 -1.3 -2.2 -2.9 0.2 -2.9 1.3 0 1.7 -0.6 1.4 -2.2 -0.2 -1.3 0.5 -4.5 1.5 -7.3 1.7 -4.8 1.9 -5 6.1 -5.3 5.4 -0.4 5 -2.7 -0.5 -2.5 -2.5 0 -2.9 -0.1 -1.1 -0.4 1.5 -0.2 2.7 -0.9 2.7 -1.4 0 -1.1 6 -1.2 7.7 -0.1 2 1.3 2.7 9.6 1.3 14.7 -1.1 4 -1.6 4.5 -4.1 4.5 -1.6 0 -2.9 0.4 -2.9 0.9 0 0.5 -1 1.2 -2.2 1.4 -1.9 0.3 -1.8 0.5 0.6 0.6 2.8 0.1 2.8 0.1 2.3 5.4 -0.5 5.3 -2.3 15.1 -3.6 19.7 -0.4 1.6 -1.5 2.6 -3 2.8 -1.6 0.3 -2.1 0 -1.6 -0.9z"/>
  <path d="M135.3 283.5 c0 -2.2 0.2 -3 0.4 -1.7 0.2 1.2 0.2 3 0 4 -0.3 0.9 -0.5 -0.1 -0.4 -2.3z"/>
  <path d="M122 256.2 c-8.1 -2.7 -8.5 -2.9 -8.8 -6 -0.2 -2.1 0.3 -3.9 1.7 -5.4 1.2 -1.2 2.1 -3 2.1 -4 0 -2.5 4.8 -2.4 22.3 0.4 l13.7 2.1 0 3.6 c-0.1 4.3 -2.5 6.4 -9.4 8.2 -2.7 0.7 -4.6 1.7 -4.6 2.5 0 2.3 -7.6 1.6 -17 -1.4z"/>
 </g>
 <g fill="#271e59">
  <path d="M137.7 391.2 c-2 -2.1 -2.7 -3.8 -2.7 -6.9 0 -2.3 -0.5 -5.4 -1 -6.9 l-1.1 -2.7 5.6 0.6 c4.3 0.4 5.7 0.2 6.2 -0.9 0.3 -0.8 1.9 -1.4 3.9 -1.4 l3.4 0 0 5.4 c0 6 -0.8 7.1 -6.2 8.1 -3.5 0.7 -3.8 1 -3.8 4.1 0 4.1 -0.8 4.2 -4.3 0.6z"/>
  <path d="M218.8 392 c-1.5 -0.3 -3.7 -1.3 -4.9 -2.3 l-2.2 -1.9 2.9 -1.9 c3.4 -2.2 9 -2.5 9.7 -0.5 0.4 1 2.4 1.6 5.4 1.8 4.3 0.3 4.8 0.6 5.1 2.8 0.3 2.4 0.1 2.5 -6.5 2.5 -3.7 0 -8 -0.2 -9.5 -0.5z"/>
  <path d="M224.5 371.8 c-1.1 -0.6 -3.7 -2.7 -5.7 -4.6 -3.2 -3.1 -3.8 -4.2 -3.8 -7.9 0 -4.1 0.1 -4.3 2.9 -4.3 1.7 0 5.6 1.6 8.8 3.6 3.2 2 7 4.3 8.5 5.2 2.3 1.4 2.8 2.4 2.8 5.5 l0 3.7 -5.7 0 c-3.2 0 -6.7 -0.6 -7.8 -1.2z"/>
  <path d="M132 366.8 c0 -2.4 -0.3 -8.7 -0.7 -14 l-0.6 -9.8 2.6 0 c2.4 0 2.7 -0.4 2.7 -3.3 0 -2.1 0.7 -3.6 2 -4.5 1.4 -0.9 2 -2.3 2 -5 0 -2 2.5 -11.7 5.7 -21.4 5.6 -17.5 5.7 -17.8 8.5 -17.8 2.7 0 2.8 -0.2 2.8 -4.5 0 -4.5 0 -4.5 3.5 -4.5 l3.5 0 0 10 c0 8.9 -0.2 10 -1.8 10 -2 0 -4.2 6 -4.2 11.5 0 2.8 -0.4 3.5 -1.9 3.5 -2.7 0 -3.8 1.9 -4.4 7.5 -0.2 2.8 -1.4 8.6 -2.6 13 -1.1 4.4 -2.1 10.2 -2.1 12.8 0 4.1 -0.3 5 -2.1 5.4 -1.6 0.5 -1.9 1.1 -1.3 2.7 0.4 1.1 0.7 3.9 0.8 6.1 0.1 3.7 -0.1 4 -2.6 4.3 -1.6 0.2 -2.8 0.8 -2.8 1.3 0 0.5 -1.6 0.9 -3.5 0.9 -3.5 0 -3.5 -0.1 -3.5 -4.2z m7 -23 c0 -1.3 -0.4 -1.8 -0.8 -1.3 -0.4 0.6 -1.8 1.6 -3.2 2.2 -2.5 1.2 -2.5 1.2 0.8 1.2 2.7 0.1 3.2 -0.3 3.2 -2.1z m4.2 -9.9 c0.7 -4.4 -0.7 -4.4 -2.1 0 -1.4 5 -1.4 5.6 0.3 4.2 0.8 -0.6 1.6 -2.5 1.8 -4.2z"/>
  <path d="M173.6 363.3 c-4.2 -2.1 -5.3 -2.3 -6.9 -1.3 -3.4 2.1 -5.1 -0.9 -5.5 -9.5 l-0.4 -7.5 2.8 0 c2.3 0 3.2 0.8 4.4 3.2 1.7 3.6 2.8 4.3 8.6 5.8 4.5 1.1 9.4 5.3 9.4 7.9 0 4.7 -5.1 5.2 -12.4 1.4z"/>
  <path d="M185.1 343.5 c-1.7 -6.8 -3.1 -13.7 -3.1 -15.3 0 -4.7 -1.6 -5.3 -7.4 -3.1 -2.8 1.2 -5.7 2.6 -6.4 3.2 -1.1 0.8 -1.3 -0.1 -1 -4.9 l0.3 -5.9 7 -0.2 c3.9 -0.2 9.9 -0.6 13.4 -0.9 l6.3 -0.7 -0.2 12.4 c-0.1 6.8 0.2 14.8 0.5 17.7 1 7.6 0.1 10.2 -3.4 10.2 -2.8 0 -2.9 -0.1 -6 -12.5z"/>
  <path d="M230.6 334.9 c-5.6 -6.2 -7.6 -10 -11.2 -20.6 -3.2 -9.6 -3.3 -9.7 -5 -8.2 -2 1.6 -1.9 -3.6 0.3 -12.8 l1.7 -7.3 3.5 0 c5.4 0 6.1 1 6.7 8.6 0.3 3.8 1.4 9.5 2.5 12.7 1 3.1 1.9 6.8 1.9 8 0 1.3 1.6 4.5 3.6 7 3.4 4.4 3.6 5 3.2 10.2 -0.7 8.1 -1.7 8.5 -7.2 2.4z"/>
  <path d="M27.4 313 c-1.8 -0.7 -2.4 -2.3 -3.4 -9.4 -0.7 -4.7 -1.1 -8.8 -0.8 -9.1 0.3 -0.3 1.1 3 1.8 7.2 0.7 4.3 1.6 8.1 1.9 8.4 0.3 0.4 2.2 1 4.1 1.3 l3.5 0.6 -3.1 -1.5 c-3 -1.3 -3.2 -1.9 -4.5 -10 -0.8 -5.8 -1.6 -8.5 -2.6 -8.5 -0.7 0 -1.3 -0.4 -1.3 -1 0 -1.3 6.9 -1.3 10.9 0.1 3 1 4.4 4.3 2.2 5.1 -0.6 0.2 -0.6 2.1 -0.1 4.8 0.5 2.5 0.9 6.4 1 8.8 l0 4.2 -3.7 -0.1 c-2.1 0 -4.8 -0.4 -5.9 -0.9z"/>
  <path d="M138.6 267.4 c-0.9 -0.8 -1.6 -2.2 -1.6 -3 0 -0.7 -0.9 -1.9 -2 -2.6 -2.4 -1.5 -2.7 -5.8 -0.5 -5.8 0.8 0 1.5 -0.9 1.5 -2.1 0 -1.1 0.4 -1.8 0.8 -1.5 2.1 1.3 13.1 -3.4 13.2 -5.6 0 -0.5 -1.2 -0.8 -2.6 -0.8 -2.3 0 -2.4 -0.1 -0.9 -1.6 1.3 -1.4 2.9 -1.5 8.8 -1 10.2 1 10.7 1.2 10.7 4.9 -0.1 2.7 -0.7 3.5 -4.2 5.2 -4.1 2 -6.2 4.9 -8.9 12.3 -1.1 3.1 -1.3 3.2 -6.9 3.2 -4 0 -6.4 -0.5 -7.4 -1.6z"/>
  <path d="M208.2 258.5 c-0.6 -3.5 -1.2 -8.3 -1.2 -10.5 l0 -4 5.9 0 5.9 0 0.7 8.5 c0.9 10.2 -0.3 12.5 -6.4 12.5 l-3.6 0 -1.3 -6.5z"/>
  <path d="M110 251 c0 -1.1 0.6 -2 1.3 -2 1.8 0 5.5 -8.2 3.9 -8.8 -2.8 -0.9 -0.9 -2.2 3.2 -2.2 3.1 0 4.6 0.5 5 1.6 0.9 2.3 0.8 2.4 -1.4 2.4 -1.1 0 -1.9 0.3 -1.9 0.8 0.3 1.7 -0.2 3 -2.2 5.1 l-2.1 2.2 2.1 0.6 c3.4 0.9 1.3 2.3 -3.5 2.3 -3.7 0 -4.4 -0.3 -4.4 -2z"/>
  <path d="M62.1 203.1 c-1.5 -1 -1.1 -7.9 0.9 -16.1 0.6 -2.5 1.5 -6.5 2 -9 0.9 -5.2 0.1 -21 -1.1 -21 -1 0 -1.2 -6.8 -0.3 -12.3 0.6 -3.4 0.9 -3.7 4 -3.7 3.1 0 3.3 0.2 4.1 4.7 1 6.2 0.8 47.4 -0.4 53.3 -0.8 4.2 -1.1 4.5 -4.3 4.8 -1.9 0.1 -4.1 -0.2 -4.9 -0.7z"/>
  <path d="M44.3 186.8 c-3.7 -4.6 -5.4 -39.8 -2.5 -49.5 1.3 -4.2 1.4 -4.3 5.7 -4.3 5.2 0 5.6 0.5 8 11 1.9 8.4 3.2 32.1 2.1 39.3 l-0.7 4.7 -5.8 0 c-3.5 0 -6.3 -0.5 -6.8 -1.2z"/>
 </g>
 <g fill="#344632">
  <path d="M83 349.4 c0 -0.6 1.8 -13.3 2.6 -18.1 0.5 -3.6 3.4 -4.6 3.4 -1.2 0 1.1 0.4 1.8 0.9 1.5 1.9 -1.2 3.9 0.7 4.5 4.4 0.7 4.6 -0.6 8.6 -3.1 9.4 -1 0.3 -0.1 0.4 2 0.3 4.2 -0.3 4.5 0.1 1.7 2.6 -1.9 1.6 -12 2.6 -12 1.1z"/>
  <path d="M73.7 347.3 c-1.1 -1 -0.8 -12.3 0.3 -12.3 0.6 0 1 -0.9 1 -2 0 -3.7 2 -2 2.1 1.8 0.1 2.3 0.3 2.8 0.6 1.5 0.6 -3 2.1 -2.9 3.5 0.3 1 2.1 0.9 3 -0.5 5.2 -0.9 1.5 -2.3 2.6 -3.2 2.6 -0.9 -0.1 -1.5 0.6 -1.5 1.7 0 1.9 -1.1 2.5 -2.3 1.2z"/>
  <path d="M99.5 339.7 c-0.8 -1.9 0.2 -10.3 1.5 -12.8 1.4 -2.5 -4.3 -2.3 -15.5 0.6 -5.5 1.4 -10.3 2.5 -10.7 2.5 -1 0 -0.9 -9.7 0 -15.9 0.7 -4.4 3.2 -7 3.2 -3.4 0 1.6 0.6 1.8 3.5 1.5 3.4 -0.4 3.5 -0.3 3.5 3.1 0 4.8 -1.5 8.4 -3.7 9 -1 0.3 -0.2 0.5 1.7 0.4 3.4 -0.2 3.5 -0.3 4.3 -5.2 0.4 -2.7 1.1 -6.9 1.6 -9.2 0.7 -3.8 0.6 -4.3 -1 -4.3 -1.2 0 -1.9 -0.7 -1.9 -2 0 -1.7 0.7 -2 3.9 -2 4.4 0 6.3 1.6 3.4 2.8 -1.5 0.5 -1.7 1.3 -1.2 3.7 0.4 1.7 0.7 2.5 0.8 1.8 0.1 -1.5 5.5 -3.3 7.1 -2.3 1 0.6 1.1 2.4 0.7 7 -0.4 3.3 -0.3 5.9 0.2 5.6 0.4 -0.3 1.1 -3.1 1.5 -6.3 1 -8.1 1.6 -10.3 3.2 -10.3 0.8 0 1.4 0.3 1.4 0.8 0 0.4 1.8 0.6 4.1 0.4 l4.1 -0.4 -0.7 5.3 c-0.3 3 -0.9 6.2 -1.1 7.2 -0.3 0.9 -0.1 1.7 0.5 1.7 0.5 0 1.5 -2.6 2.1 -5.7 2 -9.8 2.5 -11.6 3.8 -12.1 0.7 -0.2 1.2 0.5 1.2 1.6 0 1.7 0.5 1.9 3 1.6 2.7 -0.5 3 -0.2 3 2 0 3.4 -1.8 7.9 -3.7 9.4 -1.5 1 -1.2 1.2 1.8 1.2 3.1 0.1 3.2 0.2 1.6 1.4 -0.9 0.7 -3.6 1.6 -5.9 2 -2.2 0.4 -4.5 0.9 -5 1.2 -0.5 0.4 -2.9 0.7 -5.3 0.9 -5.4 0.3 -6.5 1 -6.5 3.9 0 1.7 0.5 2.3 1.8 2.2 1.3 -0.1 1.8 0.8 2 4 0.3 4.6 -1.9 7.7 -4.1 5.5 -0.8 -0.8 -1.4 -0.6 -2.3 1.1 -1.1 2.1 -1.3 2.1 -1.9 0.5z"/>
  <path d="M103 301.9 c0 -0.5 1.1 -0.9 2.5 -0.9 1.4 0 2.5 0.2 2.5 0.4 0 0.2 -1.1 0.6 -2.5 0.8 -1.4 0.3 -2.5 0.1 -2.5 -0.3z"/>
  <path d="M59.3 300.3 c-2.4 -0.8 -4.3 -1.9 -4.3 -2.4 0 -0.5 -1 -0.9 -2.2 -0.9 -3 0 -21.2 -6 -21.6 -7.1 -0.2 -0.5 -1.4 -0.9 -2.6 -0.9 -1.2 0 -4.4 -0.7 -7 -1.6 -3.9 -1.3 -4.7 -2 -4.4 -3.8 0.2 -1.6 1.3 -2.3 4.3 -3 6.3 -1.3 10.8 -3 11.2 -4.2 0.2 -0.7 -0.4 -1.9 -1.3 -2.8 -2.6 -2.7 -1.4 -10.4 2.1 -12.9 2.2 -1.6 2.6 -2.7 2.5 -6.1 -0.4 -8.5 -0.1 -9.5 2.3 -10.1 1.5 -0.4 4 0.4 7.8 2.7 3 1.8 7.4 4.2 9.8 5.2 l4.3 2 -0.6 5.8 c-0.7 5.7 -0.7 5.8 1.9 5.8 2.9 0 3.2 0.7 0.8 2.7 -1.6 1.3 -1.5 1.3 1.3 0.8 3 -0.6 6.8 0.7 17.7 6.1 1.6 0.8 4.1 1.4 5.6 1.4 5.2 0 6.5 2 5.8 8.8 -0.6 5.2 -0.4 6.3 1.1 7.1 1.6 0.9 1.6 1 0 1.6 -1 0.4 -4.5 -0.4 -8 -1.8 -8.9 -3.4 -20.8 -6.9 -22.1 -6.4 -0.8 0.3 -0.7 0.6 0.3 1 9.2 3.1 30.8 9.7 31.8 9.7 0.6 0 1.2 0.9 1.2 2 0 1.7 -0.6 2 -4.2 1.9 -2.4 0 -5.2 -0.4 -6.3 -0.8 -1.6 -0.6 -1.4 -0.9 1.5 -1.5 l3.5 -0.7 -5.5 -2.3 c-9.5 -3.9 -10.4 -4 -11.7 -0.6 -0.9 2.3 -1.8 3 -3.8 3 -4 0 -1.9 2 2.3 2.1 l3.7 0.1 -3 0.8 c-4.7 1.2 -9.6 1 -14.2 -0.7z m-0.7 -15.3 c2.2 0 2.4 -0.3 2.4 -5.5 0 -5.2 -0.1 -5.5 -2.5 -5.5 -2.1 0 -2.5 0.5 -2.5 3.1 0 1.7 -0.4 3.8 -0.9 4.7 -0.5 1 -0.6 3.1 -0.3 4.7 0.6 2.6 0.7 2.7 1 0.8 0.2 -1.7 1 -2.3 2.8 -2.3z m-24.8 -1.7 c-0.2 -2 -0.9 -3.9 -1.7 -4.1 -1 -0.3 -1.2 0.3 -0.9 2.7 0.2 1.7 0.1 3.1 -0.4 3.1 -0.5 0 -0.6 0.5 -0.3 1 0.3 0.6 1.3 1 2.1 1 1.1 0 1.4 -0.9 1.2 -3.7z m19.2 -3 c0 -2.4 -0.1 -2.5 -1.2 -1 -1.2 1.6 -1.7 1.6 -7.7 -0.3 -3.6 -1.1 -6.7 -1.7 -6.9 -1.5 -0.5 0.5 -0.2 0.7 7.8 3.4 7.5 2.5 8 2.5 8 -0.6z m2.1 -9.6 c0 -1 -17.4 -9.8 -18 -9.2 -1 1.1 3 4.1 9.4 7.1 6.8 3.2 8.7 3.7 8.6 2.1z"/>
  <path d="M114 291.8 c0.1 -5.4 2 -6.9 10.4 -8 7.4 -1.1 7.6 -1.2 7.6 -4 0 -4.1 2.8 -3.6 3.6 0.7 0.3 1.9 0.4 4.4 0.1 5.5 -0.4 1.6 0 2 1.9 2 1.6 0 2.4 0.6 2.4 1.8 0 1.4 -1.8 2 -8.8 3.5 -4.9 0.9 -10.7 1.7 -13 1.7 -4.1 0 -4.2 -0.1 -4.2 -3.2z"/>
  <path d="M106.4 292.5 c-0.4 -1 -1.3 -1.3 -2.5 -1 -1.1 0.4 -1.9 0.2 -1.9 -0.4 0 -0.6 -0.7 -0.8 -1.5 -0.5 -1.1 0.5 -1.5 -0.1 -1.5 -1.8 0 -3 3.4 -4.8 9 -4.8 3.9 0 4 0.1 4 3.3 0 2 -0.8 4.1 -1.8 5 -2.3 2.1 -3.1 2.1 -3.8 0.2z"/>
  <path d="M85.5 244 c-1.1 -0.5 -3.2 -0.9 -4.7 -0.9 -2.5 -0.1 -2.8 -0.5 -2.8 -3.6 l0 -3.5 5.9 0 c8.8 0 11.1 1.2 11.1 5.5 0 3.4 -0.1 3.5 -3.7 3.4 -2.1 0 -4.7 -0.4 -5.8 -0.9z"/>
 </g>
 <g fill="#333454">
  <path d="M90 402 c0 -0.9 0.4 -2 0.9 -2.5 0.5 -0.6 1.1 -2.3 1.4 -4 0.4 -2.8 0.4 -2.8 0.6 0.6 0 1.9 -0.6 4.4 -1.4 5.5 -1.1 1.5 -1.4 1.6 -1.5 0.4z"/>
  <path d="M87 398.8 c0 -0.9 0.4 -1.9 0.9 -2.2 0.4 -0.3 0.6 -1.6 0.4 -2.9 -0.4 -2 -0.9 -2.3 -3.5 -1.9 -2.8 0.4 -3 0.2 -2.5 -1.7 0.3 -1.4 0.1 -2.1 -0.9 -2.1 -0.8 0 -1.4 -0.8 -1.4 -1.9 0 -2 6.1 -4.1 11.9 -4.1 3.2 0 4.2 1.6 1.6 2.6 -0.8 0.4 -1.5 1.8 -1.5 3.4 0 3.4 -1.9 9.1 -3.6 11 -1.2 1.2 -1.4 1.2 -1.4 -0.2z"/>
  <path d="M90.7 370.8 c-0.3 -1.3 -0.2 -5.3 0.2 -9 0.7 -6.6 0.6 -6.8 -1.6 -6.8 -1.5 0 -2.3 -0.6 -2.3 -1.8 0 -1.3 1.4 -2.1 5.3 -3 5.8 -1.3 13.7 -1.6 13.7 -0.4 0 0.4 -1.6 2 -3.5 3.5 -3.2 2.6 -3.5 3.2 -3.5 8.3 0 4.9 -0.3 5.8 -3.2 8.5 -3.9 3.5 -4.4 3.6 -5.1 0.7z"/>
  <path d="M123.9 353 c-2.3 -2.7 -4.9 -5 -5.6 -5 -0.8 0 -1.3 -0.7 -1.1 -1.7 0.2 -1.2 2 -2.2 5.3 -2.9 2.8 -0.7 4.4 -1.3 3.8 -1.3 -1.5 -0.1 -1.8 -7.1 -0.3 -7.1 0.6 0 1 0.8 1 1.8 0 1.3 0.8 1.7 3.8 1.7 2 0 4 -0.4 4.3 -0.9 0.4 -0.4 0.8 0.8 1.1 2.8 0.3 2.6 0 3.7 -1.2 4.1 -1.2 0.4 -1.5 1.5 -1.2 4.6 0.4 3.4 0.1 4.1 -1.7 4.6 -1.2 0.3 -2.1 1.3 -2.1 2.4 0 3 -1.6 2.2 -6.1 -3.1z"/>
  <path d="M28.6 330.9 c-1.8 -6.4 -3.4 -18 -2.2 -16.8 0.7 0.6 3.5 17.3 3 17.8 -0.2 0.2 -0.5 -0.2 -0.8 -1z"/>
  <path d="M31.7 328 c-0.3 -0.8 -1.1 -4.5 -1.8 -8.2 -0.8 -4.3 -1.7 -6.8 -2.6 -6.8 -0.7 0 -1.3 -0.5 -1.3 -1 0 -1.9 10.7 -0.3 13 2 2.4 2.4 2.5 3 0.4 3 -1.3 0 -1.5 0.7 -0.9 4 0.4 2.5 0.3 4 -0.3 4 -0.6 0 -1.3 1 -1.5 2.3 -0.3 1.4 -0.5 0.8 -0.6 -1.5 -0.1 -4 -2.1 -6.3 -2.2 -2.6 0 1.3 -0.4 3.2 -0.9 4.3 -0.6 1.6 -0.9 1.7 -1.3 0.5z"/>
  <path d="M129 316.9 c0 -3.9 2 -9.9 3.3 -9.9 1.2 0 2.8 2.5 4.3 6.3 0.3 0.9 1.5 1.7 2.5 1.7 3.4 0 2 1.8 -1.8 2.5 -2.1 0.3 -4.8 0.9 -6 1.2 -1.9 0.4 -2.3 0.1 -2.3 -1.8z"/>
  <path d="M142.7 288.6 c-0.5 -1.1 0 -1.6 1.3 -1.6 1.1 0 2 -0.4 2 -1 0 -0.5 -0.5 -1 -1.1 -1 -0.8 0 -0.9 -1.3 -0.4 -4.2 0.4 -2.4 0.7 -4.9 0.8 -5.5 0 -0.7 1.1 -1.3 2.3 -1.3 1.9 0 2.4 0.7 2.8 4.3 0.3 2.3 0.4 5.8 0.3 7.7 -0.2 3.3 -0.5 3.5 -3.8 3.8 -2.6 0.2 -3.8 -0.2 -4.2 -1.2z"/>
  <path d="M153.4 279.1 c0.3 -0.5 0.3 -2.3 0 -4 -0.7 -3.1 -3.2 -4.7 -6.7 -4.2 -2.6 0.4 -11.7 -1.9 -11.7 -2.9 0 -0.5 -0.9 -1.2 -2 -1.5 -2.1 -0.7 -2.5 -2.9 -1.4 -8.3 0.5 -2.3 1 -2.9 2.2 -2.4 2.5 0.9 6.2 4.4 6.2 5.8 0 2.2 3 4.4 6 4.4 2.2 0 3 -0.6 3.9 -3.2 2.7 -7.4 4.9 -10.3 9.1 -12.5 l4.4 -2.3 -3.4 -0.7 c-2.9 -0.5 -3.1 -0.8 -1.5 -1.4 2.4 -0.9 13.1 -1.1 16.3 -0.3 1.7 0.5 2.2 1.4 2.2 4 0 3.3 -0.1 3.4 -4.3 3.4 -3.1 0 -5.7 0.9 -9.9 3.5 -3.1 1.9 -5.8 4.1 -6.1 4.9 -0.3 0.7 0.7 2.3 2.4 3.5 3.6 2.7 4.1 7.9 0.9 9.9 -1.1 0.7 -2 2.1 -2 3.2 0 1.5 -0.7 2 -2.6 2 -1.4 0 -2.3 -0.4 -2 -0.9z"/>
  <path d="M264 179.8 c0 -5.7 0.9 -8.8 2.6 -8.8 1.1 0 1.4 1.6 1.4 6.5 0 5.8 -0.2 6.5 -2 6.5 -1.7 0 -2 -0.7 -2 -4.2z"/>
 </g>
 <g fill="#33256e">
  <path d="M139.7 393.3 c-0.3 -0.5 -0.9 -2.5 -1.5 -4.5 -0.8 -3 -0.7 -3.8 0.5 -4.2 2.5 -1 3.7 -0.7 6.4 1.8 1.4 1.3 3.4 2.6 4.5 2.8 1.1 0.2 2 1.3 2.2 2.6 0.3 2.1 0 2.2 -5.7 2.2 -3.3 0 -6.2 -0.3 -6.4 -0.7z"/>
  <path d="M232.1 391.4 c-1.9 -1.4 -3 -1.5 -5.2 -0.7 -2.5 1 -3.1 0.8 -4.8 -1.2 -1.6 -2.2 -2 -2.3 -3.7 -1 -2 1.5 -5.4 2 -5.4 0.8 0 -0.5 -4 -4.9 -8.9 -9.9 -6.4 -6.5 -9.9 -11.1 -12.5 -16.2 -3.9 -7.8 -4.4 -10.2 -2.1 -10.2 2.2 0 2.9 -4.6 1.5 -9 -1.4 -4.2 -1.6 -9.8 -0.7 -19.4 l0.6 -5.8 -3.2 0.8 c-1.8 0.5 -6.3 0.8 -10.2 0.9 -6.9 0 -7 0 -7.3 2.8 -0.2 1.6 -1.5 4.5 -2.9 6.5 -2.1 3.2 -2.4 4.4 -1.9 8.7 0.3 2.8 0.9 6 1.2 7.3 0.5 1.6 0.2 2.2 -1 2.2 -0.9 0 -1.6 0.7 -1.6 1.5 0 0.8 -0.7 1.5 -1.6 1.5 -1.5 0 -1.6 -1.4 -1.2 -12.6 l0.5 -12.5 -3 0.3 c-2.6 0.3 -3.2 1 -5.2 6.5 -2.1 5.9 -2.2 7.1 -1.4 22 0.4 8.7 0.8 18.6 0.9 22.1 l0 6.2 -3.2 0 c-2.5 0 -2.9 -0.3 -2 -1.2 0.7 -0.7 1.2 -2.3 1.2 -3.7 0 -2.2 -0.2 -2.3 -1.2 -0.9 -1.6 2.1 -3.2 2.4 -8.9 1.5 -3.6 -0.6 -4.9 -1.3 -5.9 -3.5 l-1.4 -2.7 -0.6 3.5 c-0.4 2.8 -0.7 3.1 -1.3 1.7 -1.7 -4.3 -0.5 -9.6 3 -13.4 1.7 -1.9 2.3 -1.6 2.3 1.5 0 1.5 0.4 2.2 0.8 1.6 0.4 -0.7 1.8 -1.4 3.2 -1.6 1.6 -0.2 2.4 -0.9 2.1 -1.8 -0.3 -0.8 -0.7 -3.6 -0.9 -6.1 -0.3 -4 -0.1 -4.7 1.7 -5.2 1.8 -0.4 2.1 -1.3 2.1 -5.4 0 -2.6 1 -8.4 2.1 -12.8 1.2 -4.4 2.4 -10.2 2.6 -13 0.6 -5.6 1.7 -7.5 4.3 -7.5 1.4 0 1.9 -1.1 2.4 -5.2 1 -8.1 1 -11.2 0.2 -13.4 -0.8 -1.8 -0.9 -1.7 -1.9 0.6 -1.1 2.3 -1.2 2.2 -1.5 -2.2 -0.3 -4.7 -0.4 -4.8 -3.8 -4.8 -3.6 0 -4.6 -1.3 -1.8 -2.4 1.4 -0.5 1.5 -1.6 1 -6.6 -0.6 -5 -0.4 -6 0.8 -6 1.6 0 3.3 8 2.1 9.9 -0.3 0.6 -0.2 1.1 0.4 1.1 0.5 0 1.3 -1.5 1.7 -3.2 0.5 -2.7 0.8 -2.9 1.3 -1.4 0.6 1.4 1 0.9 2 -2.4 l1.3 -4.2 4.6 0.7 c2.6 0.3 6.4 0.9 8.5 1.2 3.4 0.5 3.7 0.7 3.7 3.9 0 3.7 -2 5.4 -6.4 5.4 -1.6 0 -2.6 0.6 -2.6 1.5 0 0.8 -0.4 1.5 -1 1.5 -1.1 0 -1.4 6.7 -0.2 7.2 0.8 0.4 4.2 9.1 4.9 12.9 1.1 6 10.5 6.3 22 0.9 6.8 -3.1 10.5 -3.7 14.7 -2 2.2 0.8 2.6 1.6 2.6 5 0 2.9 -0.5 4.3 -2 5.2 -1.1 0.7 -2 1.7 -2 2.3 0 0.6 -1.6 3.3 -3.6 6 l-3.6 5 0.6 8.4 c0.3 4.6 1 8.9 1.6 9.5 0.5 0.5 1 2.1 1 3.4 0 1.4 1.1 3.5 2.5 4.8 2.1 1.9 2.5 3.2 2.5 7.7 0 5.5 1.9 8.7 5.1 8.7 1.9 0 6.9 4.7 6.9 6.5 0 0.9 1.5 1.7 3.8 2 2 0.4 4.8 1 6.2 1.5 1.4 0.5 4.5 1.1 7 1.5 13.5 2 15.1 2.9 10.8 5.7 -3.9 2.6 -9.9 3.1 -12.7 1.2z m-71.2 -99.6 l-0.2 -7.3 -0.7 5.5 c-0.6 5 -0.3 9 0.6 9 0.2 0 0.3 -3.3 0.3 -7.2z"/>
  <path d="M231.2 371.5 c-1.1 -1.3 -0.9 -1.5 1.3 -1.5 3.2 0 3.2 -1.1 -0.3 -3.2 -1.5 -0.9 -5.3 -3.2 -8.4 -5.2 -6.1 -3.7 -7.6 -3.1 -3.2 1.5 l2.6 2.7 -4.6 -2.2 c-5.5 -2.6 -8.7 -8.3 -9.4 -16.8 -0.4 -5.6 0.8 -7.9 2.2 -4.2 0.5 1.3 1.4 1.5 4.2 0.9 3.2 -0.6 4 -0.2 8.2 3.7 2.6 2.4 6.1 5.3 7.7 6.5 2.4 1.8 2.7 2.5 1.6 3.2 -1 0.6 -0.2 1.5 3.3 3.6 4.3 2.5 4.6 2.9 4.6 7 0 3 -0.5 4.5 -1.6 4.9 -2.7 1 -6.9 0.6 -8.2 -0.9z"/>
  <path d="M162 360 c0 -3.8 0.4 -5 1.5 -5 0.8 0 1.5 0.6 1.5 1.4 0 0.7 0.6 1.9 1.4 2.5 1.8 1.5 -0.1 6.1 -2.6 6.1 -1.5 0 -1.8 -0.9 -1.8 -5z"/>
  <path d="M254.5 349.4 c-1.2 -0.9 -3 -1.2 -4.4 -0.9 -4 1 -8.8 -1.4 -13 -6.4 -3.8 -4.6 -4 -4.9 -2.9 -8.4 1.1 -3.4 0.9 -3.9 -2.5 -8.3 -2.1 -2.6 -3.7 -5.9 -3.7 -7.3 -0.1 -1.4 -0.8 -4.4 -1.6 -6.6 -0.9 -2.2 -1.9 -7 -2.3 -10.7 -0.6 -6.5 -0.6 -6.8 1.4 -6.8 2.6 0 5.5 5.5 5.5 10.4 0 1.9 0.9 5.3 2 7.7 1.1 2.6 2 6.6 2 9.7 0 3.7 0.4 5.2 1.4 5.2 2.3 0 15.6 8.2 15.6 9.6 0 1.7 3.2 3.4 6.4 3.4 1.3 0 3.1 0.7 4 1.5 1.1 1.2 3 1.4 9 0.8 6.7 -0.5 7.6 -0.4 7.6 1.1 0 0.9 -1.2 2.1 -2.7 2.7 -1.6 0.6 -4.7 2 -7.1 3 -5.1 2.3 -11.9 2.4 -14.7 0.3z"/>
  <path d="M146 315.8 c0 -1.4 0.7 -3.1 1.5 -3.8 1.3 -1.1 1.3 -0.8 0.3 2.1 -1.5 4.4 -1.8 4.8 -1.8 1.7z"/>
  <path d="M203 302.1 c0 -1.6 0.8 -4.3 1.8 -6 1.3 -2.5 2.4 -3.1 5 -3.1 3.1 0 3.2 0.1 3.2 4.1 0 6.1 -1.4 7.9 -6 7.9 -3.7 0 -4 -0.2 -4 -2.9z"/>
  <path d="M216.8 291.7 c-0.9 -0.9 -2.8 -1.7 -4.1 -1.7 l-2.4 0 -0.5 -15.2 c-0.4 -10.7 -0.2 -15.5 0.6 -16 0.7 -0.5 1.2 0 1.4 1.2 0.4 2.5 1.4 2.5 3.7 0 1.6 -1.8 1.7 -2.4 0.5 -5.9 -0.7 -2.2 -1 -4.7 -0.7 -5.5 0.5 -1.1 0 -1.6 -1.3 -1.6 -1.3 0 -2 -0.7 -2 -1.9 0 -1.9 3.9 -3.1 10.3 -3.1 3.1 0 3.4 0.7 1 2.6 -1.7 1.2 -1.5 1.5 1.6 4.8 3.5 3.6 3.5 4 1.6 13.1 -0.3 1.7 -0.8 4 -1.1 5.3 -0.3 1.5 -1.2 2.2 -2.9 2.2 -2.4 0 -4.5 2.5 -4.5 5.4 0 1.1 1 1.6 3.4 1.6 3.2 0 3.4 0.2 4 4.6 1 7.9 0.8 11.4 -0.9 11.4 -0.8 0 -1.5 -0.6 -1.5 -1.4 0 -0.8 -0.7 -1.7 -1.6 -2 -2.2 -0.8 -2.2 -0.8 -2.6 1.6 -0.3 2 -0.4 2.1 -2 0.5z"/>
  <path d="M267 212.5 c0 -1.9 0.8 -5 1.7 -7 1.6 -3.3 2 -3.5 6.4 -3.5 3.1 0 5.5 0.6 7 1.9 2.1 1.7 2.2 2.1 0.9 3.6 -2.2 2.6 -8.2 6.2 -12.3 7.3 l-3.7 1 0 -3.3z"/>
  <path d="M65.2 206 c-0.7 -1.1 -2.1 -2 -3.2 -2 -1.2 0 -3.7 -0.7 -5.7 -1.5 l-3.6 -1.5 0.5 -5.8 0.6 -5.7 -4.6 0 c-4.6 0 -4.6 0 -5.9 -4.4 -0.7 -2.5 -1.1 -4.7 -0.8 -4.9 0.3 -0.3 1.7 0.7 3.1 2.1 1.6 1.6 3.8 2.7 5.4 2.7 2.4 0 2.9 -0.5 3.9 -4.2 0.8 -3.2 2 -4.9 4.6 -6.7 l3.6 -2.4 -0.4 -9.1 c-0.4 -10.1 -2.2 -21.1 -4.3 -26.9 -1.6 -4.2 -1.8 -10.5 -0.5 -12.5 0.5 -0.8 2.2 -1.2 4.2 -1 3.2 0.3 3.5 0.6 5.8 7.3 1.8 5.3 2.5 10.1 3 20 0.8 18.2 0.6 36.8 -0.5 38.7 -0.6 1.1 -0.9 -5.6 -1 -18.5 0 -11.1 -0.5 -21.5 -1.1 -23.2 -1 -3 -1 -3 -1.7 1.9 -0.5 2.9 -0.4 5.1 0.2 5.5 0.5 0.3 1.2 5.3 1.6 11.1 0.6 9.8 0.2 14.1 -2.2 24.5 -2.5 10.2 -2.5 10.2 -0.8 10.8 1.2 0.5 2 0 2.5 -1.6 0.8 -1.9 1 -1.9 1.6 -0.6 0.3 0.9 0.5 3.4 0.3 5.5 -0.3 4.4 -2.6 5.6 -4.6 2.4z"/>
  <path d="M48.1 179.3 c-2.8 -7 -3.9 -22.6 -2.1 -29.8 0.7 -2.7 0.8 -2.4 1 2 0.1 2.8 0.1 7 0 9.6 -0.1 2.5 0.7 6.7 1.8 9.5 2 5.1 2.7 11.4 1.3 11.4 -0.5 0 -1.4 -1.2 -2 -2.7z"/>
 </g>
 <g fill="#3e2b84">
  <path d="M148.5 393 c-0.3 -0.5 -1.5 -1 -2.6 -1 -1 0 -1.9 -0.3 -1.9 -0.7 0 -0.5 -1.6 -1.9 -3.6 -3.2 -3.9 -2.7 -3.4 -3.6 2.7 -4.6 6 -1 7.2 -3.2 6.5 -11.2 -0.3 -3.7 -0.9 -8.4 -1.1 -10.3 -0.7 -4.6 -0.7 -5.9 0.1 -9.8 0.4 -2 0.1 -5 -0.6 -7.3 -1.2 -3.5 -1 -4.6 1.5 -12.1 2.9 -8.7 4.5 -10.9 7.5 -10.3 1 0.2 2.4 -0.2 3 -1 1.3 -1.5 4.6 -0.9 5.4 1 0.2 0.7 0.1 4.2 -0.4 7.7 -0.5 3.4 -1 10.5 -1 15.6 0 8.5 -0.1 9.2 -2 9.2 -1.8 0 -2 -0.7 -2.1 -6.2 0 -3.5 -0.4 -8.5 -0.8 -11.3 -0.8 -5.4 -1.3 -4.6 -2.6 4.5 -1.6 10.5 -0.2 38.1 1.8 36.1 1.1 -1.1 8.7 -1.6 8.7 -0.6 0 1.7 -3.4 8.3 -5.3 10.3 -2.5 2.7 -8.8 6.2 -11.1 6.2 -0.8 0 -1.8 -0.4 -2.1 -1z"/>
  <path d="M242.9 389.6 c-0.3 -0.3 -2.4 -0.6 -4.7 -0.7 -2.4 -0.2 -4.6 -0.7 -4.9 -1.2 -0.3 -0.4 -1.8 -0.5 -3.3 -0.2 -1.8 0.4 -3.8 0.1 -5.2 -0.8 -1.3 -0.8 -4.5 -1.8 -7.1 -2.2 -3.6 -0.5 -4.7 -1 -4.3 -2.1 0.6 -1.6 -4.5 -6.8 -5.4 -5.4 -0.3 0.5 -2.8 -1.2 -5.4 -3.9 -4.3 -4.4 -4.6 -4.9 -2.7 -5.4 3 -0.7 2.7 -5.2 -0.4 -8.1 -1.4 -1.3 -2.5 -3.4 -2.5 -4.8 0 -1.4 -0.6 -3.1 -1.4 -3.7 -1 -0.9 -1.4 -4.1 -1.5 -12.4 l-0.1 -11.3 3.5 -4.9 c1.9 -2.8 3.5 -5.4 3.5 -5.8 0 -0.5 1 -1.7 2.3 -2.7 2.8 -2.3 1.3 -4.3 -3.3 -4.3 -4.7 0 -4 -3.5 2 -9 2.8 -2.6 5 -5.5 5 -6.6 0 -2.7 2.3 -11.4 3.1 -12.1 0.4 -0.3 1.1 -3.9 1.6 -8 l1 -7.5 0.3 10.5 0.2 10.5 1.2 -9.1 c0.6 -5 1.8 -10 2.6 -11 0.8 -1 1.6 -2.1 1.7 -2.3 0.1 -0.2 0.9 0.2 1.7 0.8 1.3 1.1 1.6 0.9 2 -1.1 0.3 -1.2 0.8 -3.6 1.1 -5.3 0.4 -1.6 0.7 -4.8 0.6 -6.9 -0.1 -3.7 0 -3.8 1.8 -2.2 1 0.9 3.1 4 4.6 6.8 2.7 5 2.7 5.2 0.9 6.5 -1.5 1.1 -1.9 2.7 -2 8.1 0 3.7 -0.4 7.9 -0.8 9.5 -0.6 2.1 -0.5 2.7 0.7 2.7 2.4 0 4 5.5 3.3 11.5 -0.5 4.8 -0.2 6.3 2.4 11.8 1.6 3.5 3 7.5 3 8.9 0 1.5 1.3 3.6 3.3 5.5 1.7 1.6 5.2 5.1 7.6 7.6 2.6 2.8 5.3 4.7 6.6 4.7 1.2 0 2.9 0.8 3.8 1.8 2.7 2.9 12 1.9 17.4 -1.9 2.3 -1.6 5 -2.9 6.1 -2.9 1.4 0 2.1 -0.9 2.6 -3 0.5 -2.6 1 -3 4 -3 5.9 0 6.1 2.4 0.8 8.9 -2.4 3.1 -6 6.9 -7.9 8.5 -3.3 2.7 -4.2 3 -13.5 3.4 -6.9 0.3 -9.8 0.1 -9.4 -0.7 0.4 -0.6 -0.4 -1.3 -1.9 -1.6 -1.4 -0.3 -3.7 -0.7 -5.1 -1 -1.4 -0.3 -2.8 -1.5 -3.1 -2.5 -0.3 -1.1 -3.4 -3.5 -6.8 -5.5 -7.5 -4.1 -10.5 -7.6 -10.5 -11.9 0 -1.7 -1.2 -5.6 -2.6 -8.6 -1.4 -3 -2.4 -6.6 -2.2 -8.1 0.1 -1.5 -0.7 -4.9 -1.9 -7.5 -1.2 -2.7 -2.5 -8 -2.8 -11.7 -0.4 -3.8 -0.8 -6.7 -1 -6.5 -0.2 0.2 -1.5 5.7 -3 12.2 -1.5 6.6 -3.3 12.9 -4 14 -0.7 1.2 -1.8 5.1 -2.5 8.9 -1.1 5.9 -1.5 6.7 -3.4 6.7 -2.8 0 -7.1 4.6 -8 8.5 -1.8 7.8 -1.8 8.5 -0.2 9.1 1.1 0.4 1.6 1.9 1.6 4.8 0 2.2 0.7 5 1.5 6 0.8 1.1 1.5 3.2 1.5 4.7 0 3.1 10.2 16.9 12.5 16.9 0.7 0 2.2 1.1 3.3 2.5 1.3 1.6 3 2.5 4.9 2.5 4.8 0 13.3 2.9 13.3 4.5 0 0.8 0.7 1.5 1.5 1.5 0.8 0 1.5 -0.8 1.5 -1.9 0 -2.1 2.6 -3.1 8.3 -3.1 4.9 0 4.8 1.8 -0.4 7.5 -3.8 4.1 -5.8 5.3 -7 4.1z m-33.9 -89.7 c1.8 -3.3 0.7 -4.1 -1.2 -0.9 -0.9 1.7 -1.3 3 -0.8 3 0.5 0 1.4 -0.9 2 -2.1z"/>
  <path d="M238 367.7 c0 -0.8 -3.4 -3.5 -7.5 -6.1 -6.2 -3.9 -7.4 -5.1 -6.4 -6.2 1.8 -2.2 8 -1.5 12.9 1.5 2.5 1.5 4.5 3.3 4.4 3.9 -0.1 0.7 -0.2 2.8 -0.2 4.7 -0.2 2.4 -0.7 3.5 -1.7 3.5 -0.8 0 -1.5 -0.6 -1.5 -1.3z"/>
  <path d="M247.7 344.9 c-2.1 -1.2 -2.3 -4.1 -0.3 -3.3 1.3 0.5 3 3.3 2.4 4 -0.2 0.1 -1.1 -0.2 -2.1 -0.7z"/>
  <path d="M258.3 327.3 c-1.4 -0.3 -2.3 -1.2 -2.3 -2.4 0 -1.5 0.7 -1.9 3.1 -1.9 2.3 0 4.2 -1 7 -3.9 5 -5 5.1 -8.2 0.4 -23.1 -3.6 -11.3 -3.9 -13.7 -2.9 -17.7 0.5 -1.8 1.4 -2.3 4 -2.3 4 0 6.4 2.9 6.4 7.9 0 1.9 0.9 5.3 2 7.5 1.3 2.9 2.1 7.4 2.6 14.8 0.7 10.4 0.6 10.6 -1.9 13.1 -1.4 1.4 -2.9 3.8 -3.4 5.4 -0.9 2.6 -1.3 2.8 -6.9 2.9 -3.2 0.1 -6.9 0 -8.1 -0.3z"/>
  <path d="M168.5 315 c-2.1 -1.4 -3 -2.8 -3.1 -5 -0.2 -3.8 2.4 -4 7 -0.5 1.8 1.4 4 2.5 4.9 2.5 1 0 1.7 0.8 1.7 1.9 0 1.3 -1 2 -3.1 2.5 -4.2 0.8 -4 0.9 -7.4 -1.4z"/>
  <path d="M278.4 292.2 c-2.2 -1.4 -3.4 -5.1 -3.4 -10.1 l0 -5.1 3.3 0 c3 0 3.4 -0.4 4.3 -3.7 0.9 -3.6 1.1 -3.8 5.5 -4.1 6.7 -0.4 9.9 1.1 9.9 4.7 0 4.5 -2.2 5.7 -7.8 4.2 -4.1 -1.1 -4.8 -1 -5.9 0.5 -1.7 2.4 -1.6 8.2 0.1 11.7 1.5 2.7 1.5 2.7 -1.7 2.7 -1.8 0 -3.7 -0.4 -4.3 -0.8z"/>
  <path d="M168 282.4 c0 -0.4 0.8 -1.3 1.8 -2 1.5 -1.2 1.4 -1.3 -1.5 -1.4 -1.7 0 -4.3 -0.4 -5.7 -1 -2.1 -0.8 -2.6 -0.6 -3.1 1.1 -1 3.2 -2.5 1.1 -2.5 -3.6 0 -4 0.3 -4.5 2.6 -5.1 1.4 -0.4 3.7 -0.1 5 0.5 1.5 0.7 4.6 0.9 8 0.5 l5.4 -0.7 0 3.9 c0 5.5 -2.3 8.4 -6.6 8.4 -1.9 0 -3.4 -0.3 -3.4 -0.6z"/>
  <path d="M279.1 206.9 c-2.8 -2.3 -5.7 -2.5 -6.5 -0.4 -0.3 0.8 -1 1.5 -1.6 1.5 -1.7 0 -1.1 -5.1 1.4 -11.4 1.4 -3.4 3.2 -9.1 4.2 -12.8 1.6 -6.7 1.7 -6.8 5 -6.8 2.7 0 3.4 0.4 3.4 1.9 0 2.5 1.8 3.7 3.3 2.2 0.6 -0.6 2.1 -1.1 3.4 -1.1 2 0 2.3 0.4 1.7 2.8 -2.2 9.3 -7.8 22.7 -10.6 24.9 -1 0.9 -1.9 0.6 -3.7 -0.8z"/>
  <path d="M56.5 202.6 c-1.6 -0.7 -4.3 -2.5 -5.9 -4 l-2.8 -2.7 2.3 -2.5 2.2 -2.4 -3.6 0 c-3.6 0 -3.7 -0.1 -3.7 -3.7 0 -3.2 0.2 -3.5 1.3 -1.9 1.6 2.2 6.3 1.3 7.9 -1.7 1.1 -2 0.7 -18.4 -0.8 -35.4 l-0.7 -7.3 3.6 0 c3.6 0 3.6 0 4.4 5.2 0.4 2.9 0.9 4.5 1.1 3.6 0.6 -2.9 3 -2 3.7 1.3 0.4 1.7 0.7 7.6 0.8 13.1 0 10.8 0.4 10 -5.8 14.4 -1.4 1 -2.1 3.1 -2.6 7.7 -0.4 3.4 -1 7.9 -1.4 10 -0.7 3.5 -0.6 3.7 1.9 3.7 1.9 0 2.6 0.5 2.6 2 0 2.3 -0.5 2.4 -4.5 0.6z"/>
  <path d="M46.8 175 c-1.2 -3.9 -1 -9.6 0.3 -8.3 0.5 0.5 0.9 3.2 0.7 5.9 -0.2 4 -0.4 4.4 -1 2.4z"/>
  <path d="M283 146.5 l0 -10.5 3.5 0 3.5 0 0 10.5 0 10.5 -3.5 0 -3.5 0 0 -10.5z"/>
 </g>
 <g fill="#474f65">
  <path d="M83.8 399.9 c-1.3 -0.7 -1.8 -2.3 -1.8 -5.9 0 -4.8 0.1 -4.9 3.8 -5.9 2 -0.6 4.1 -1.1 4.6 -1.1 1.5 0 0 9.9 -1.9 12 -2.1 2.3 -2.3 2.3 -4.7 0.9z"/>
  <path d="M123.2 388.8 c-0.7 -0.7 -1.2 -3.7 -1.2 -7 0 -4.7 -0.3 -5.6 -1.5 -5.2 -1.1 0.5 -1.5 -0.1 -1.5 -2 0 -1.7 0.5 -2.6 1.6 -2.6 0.8 0 1.3 -0.4 1 -0.9 -0.4 -0.5 0.7 -2.3 2.3 -3.9 3.3 -3.2 4.7 -7.2 3.6 -9.9 -1.6 -3.8 -1.2 -6.3 1 -6.3 1.2 0 2.6 0.5 3.3 1.2 1.7 1.7 1.5 11.3 -0.3 14.8 -1.5 2.9 -1.5 3 0.6 3 2.1 0 2.1 0.1 0.6 1.8 -1.1 1.1 -1.7 3.6 -1.7 6.3 0 7.7 -4.5 14 -7.8 10.7z"/>
  <path d="M69.9 387.5 c-0.3 -0.2 -3.4 -1.2 -7 -2.1 -3.5 -0.9 -8.5 -2.5 -11.1 -3.6 -4.4 -1.9 -4.8 -2.3 -4.8 -5.4 0 -4.2 0.9 -4.2 9.9 -1 3.6 1.3 10.1 3.2 14.4 4.2 7 1.6 7.7 2 7.7 4.2 0 1.9 0.4 2.3 1.8 1.7 0.9 -0.4 4.4 -0.9 7.7 -1.1 l6 -0.4 -6.3 1.9 c-5.8 1.7 -17.2 2.7 -18.3 1.6z"/>
  <path d="M34.3 370.3 c-0.7 -0.2 -1.3 -1.3 -1.3 -2.2 0 -1.8 8.7 -4.9 27 -9.7 3.6 -1 6.9 -2.1 7.4 -2.5 0.5 -0.5 -2.2 -2.3 -6.2 -4 -4 -1.8 -7.2 -3.8 -7.2 -4.5 0 -0.8 -1.1 -1.4 -2.5 -1.4 -3.3 0 -7.5 -2 -7.5 -3.6 0 -0.9 -1.8 -1.4 -5.2 -1.6 -4.9 -0.3 -5.3 -0.5 -5.6 -3 -0.3 -2.3 0 -2.6 1.9 -2.1 2.1 0.6 2.2 0.5 1.5 -6.3 -0.4 -3.8 -0.9 -8.1 -1.2 -9.6 -0.4 -2 -0.2 -2.8 0.9 -2.8 1.6 0 3.7 8.7 3.7 15.7 0 4.1 0.3 4.5 3.5 5.9 1.9 0.7 3.7 1.4 4 1.4 0.7 0 0.6 -6 -0.1 -14.2 -0.6 -5.9 -0.9 -6.7 -3 -7.2 -3.4 -0.9 -3.2 -3.5 0.2 -2.8 2.2 0.4 2.5 0.2 2.1 -1.4 -0.3 -1.1 -0.8 -4.9 -1.2 -8.6 l-0.6 -6.7 -4.6 -1.5 c-2.6 -0.9 -4.7 -1.5 -4.8 -1.3 -0.2 0.1 0.4 4 1.2 8.7 0.9 5.3 2 9 3 9.7 2.8 2.2 0.6 2.6 -4.6 0.8 -2.8 -0.9 -5.1 -2.3 -5.1 -3 0 -0.8 0.7 -1.1 2 -0.8 2.3 0.6 2.4 0.2 0.9 -8.6 -0.7 -4.7 -0.7 -6.6 0.1 -7.1 0.7 -0.5 0 -1.2 -1.9 -1.8 -2.6 -0.9 -3.1 -1.6 -3.1 -4.1 0 -4.1 1.8 -4.1 15 0.4 5.8 1.9 11 3.3 11.7 3.1 0.7 -0.3 1.9 0.2 2.7 1 2.1 2 12.2 5.4 16.3 5.4 2.9 0 3.3 0.3 3.3 2.5 0 1.8 0.5 2.5 2 2.5 1.1 0 2 0.7 2 1.5 0 0.8 -0.7 1.5 -1.5 1.5 -1.1 0 -1.5 1.1 -1.5 4.3 0 2.3 -0.3 6.6 -0.7 9.6 -0.6 5.1 -0.5 5.3 1.5 4.6 1.6 -0.4 2.2 -0.2 2.2 0.8 0 0.8 -0.8 1.7 -1.8 1.9 -1.5 0.4 -2 1.9 -2.5 6.8 -1.2 11.5 -1 13 1.8 13 1.8 0 2.5 0.5 2.5 2 0 1.3 -0.7 2 -2 2 -1.4 0 -2 0.7 -2 2.1 0 1.9 -0.4 2.1 -3.5 1.6 -3.9 -0.6 -4.2 -0.2 -2 2.3 1.4 1.6 1.2 1.9 -3.1 3.5 -3 1.1 -6 1.5 -8.7 1.2 -2.9 -0.4 -5.2 0 -8.1 1.4 -2.2 1 -5.8 1.9 -8 1.9 -3.6 0.1 -3.9 0.2 -2.3 1.4 0.9 0.7 1.7 1.6 1.7 2 0 0.7 -6.9 0.7 -8.7 -0.1z m36.9 -31.5 c0.4 -6.9 0.2 -10.5 -0.6 -11 -0.6 -0.4 -4.1 -1.7 -7.8 -2.9 -3.7 -1.2 -6.8 -2.7 -6.8 -3.4 0 -0.8 0.8 -1.1 2 -0.8 1.9 0.5 2 0 2 -6.6 0 -11 2.2 -9.2 3.6 3.1 0.6 5.2 0.9 5.8 3.7 6.7 1.6 0.6 3.4 1.1 3.8 1.1 0.5 0 0.9 -3.8 0.9 -8.4 l0 -8.5 -11.1 -3.6 c-6.1 -2 -11.3 -3.4 -11.6 -3.2 -0.2 0.2 -0.1 4.1 0.3 8.6 0.6 6.5 1.1 8.4 2.5 9.2 2.6 1.3 2.4 2.8 -0.2 2.2 -1.7 -0.5 -2 -0.2 -1.6 1.3 0.3 1 0.8 5.8 1.2 10.5 l0.6 8.5 4.6 1.7 4.6 1.7 -0.7 -9.5 c-0.5 -6.3 -0.4 -9.5 0.3 -9.5 2.1 0 3.1 4.1 3.1 12.2 0 8.2 0.1 8.4 2.8 9.5 1.5 0.6 3 1.1 3.3 1.2 0.4 0.1 0.9 -4.5 1.1 -10.1z"/>
  <path d="M95.4 347.8 c-0.4 -0.6 0 -1.6 0.9 -2.3 1 -0.7 1.7 -2.2 1.7 -3.4 0 -1.2 0.6 -2.1 1.5 -2.1 0.8 0 1.5 0.9 1.5 2 0 1.3 0.7 2 2 2 2.4 0 2.8 3.5 0.4 4.4 -2.6 1 -7.2 0.7 -8 -0.6z"/>
  <path d="M137.3 334.5 c-0.3 -0.9 0 -3.6 0.7 -6 1 -3.7 1.7 -4.5 3.6 -4.5 2.9 0 2.9 0.7 0.7 7.1 -1.8 4.9 -3.8 6.3 -5 3.4z"/>
  <path d="M100.7 334.4 c-0.4 -0.4 -0.7 -2.7 -0.7 -5.1 0 -3.6 -0.3 -4.3 -2 -4.3 -2.7 0 -2.5 -1.7 0.3 -2.6 1.2 -0.4 2.5 -1.1 2.8 -1.5 0.6 -1.1 6.9 0 6.9 1.1 0 0.4 -1 1 -2.1 1.3 -1.9 0.5 -2.1 1.1 -1.6 4.7 0.3 2.3 0.3 3.9 -0.1 3.6 -0.3 -0.4 -1.1 0.3 -1.7 1.4 -0.6 1.1 -1.4 1.7 -1.8 1.4z"/>
  <path d="M113.5 326 c0.6 -3.3 0.4 -4 -0.9 -4 -2.5 0 -1.9 -1.9 1 -3 3.7 -1.4 6.4 -1.2 6.4 0.5 0 0.8 -0.7 1.5 -1.5 1.5 -0.9 0 -1.5 0.9 -1.5 2.3 0 3.8 -1.2 6.7 -2.7 6.7 -1.2 0 -1.3 -0.8 -0.8 -4z"/>
  <path d="M23.2 311 c-1.7 -2.8 -1.6 -10 0.2 -10 1.4 0 2.6 2.9 2.6 6.8 0 1.2 0.7 2.5 1.5 2.8 2.3 0.9 1.8 2.4 -0.8 2.4 -1.2 0 -2.8 -0.9 -3.5 -2z"/>
  <path d="M144 309.8 c0 -1.8 0.7 -5.8 1.5 -8.8 1.9 -7.1 1.9 -7 -1 -7 -3.9 0 -3.4 -3.6 0.6 -4.4 6.9 -1.3 7.9 -0.9 7.9 3.1 0 2 -1.2 7.4 -2.7 12 -2.1 6.3 -3.1 8.3 -4.5 8.3 -1.4 0 -1.8 -0.8 -1.8 -3.2z"/>
  <path d="M130.7 271.4 c-0.8 -0.9 -0.9 -6 -0.1 -9.1 0.4 -1.4 1.4 -2.3 2.6 -2.3 1.4 0 1.8 0.5 1.5 1.5 -0.5 1 0.9 1.9 5.4 3.1 3.3 0.9 6.2 2 6.5 2.5 0.6 1.1 -5.8 2.2 -10 1.7 -2.7 -0.3 -3.7 0.1 -4.3 1.5 -0.5 1 -1.2 1.5 -1.6 1.1z"/>
  <path d="M96.8 240.8 c-4.4 -1.9 -4.8 -2.4 -4.8 -5.4 0 -3.2 0.2 -3.4 3.5 -3.4 6 0 12.5 2.2 12.5 4.2 0 1 -0.7 1.8 -1.5 1.8 -1.1 0 -1.4 0.7 -0.9 2.5 0.5 2.2 0.3 2.5 -1.7 2.4 -1.3 0 -4.5 -1 -7.1 -2.1z"/>
  <path d="M176.8 216.3 c-1 -0.2 -1.8 -1.1 -1.8 -1.9 0 -0.8 -0.9 -1.4 -2 -1.4 -1.4 0 -2 -0.7 -2 -2.4 0 -1.9 0.4 -2.2 2.4 -1.9 1.4 0.3 3.4 1.4 4.5 2.4 1.5 1.4 3.5 1.9 8.1 1.9 4.4 0 6 0.4 6 1.4 0 0.7 -1 1.6 -2.2 2 -2.6 0.6 -10.4 0.6 -13 -0.1z"/>
  <path d="M134.8 203.9 c-3.4 -2 -1.7 -2.9 5.2 -2.9 5.3 0 7 0.3 7 1.4 0 2.4 -8.8 3.5 -12.2 1.5z"/>
  <path d="M242 180 c0 -6.1 0.3 -8 1.4 -8 1.6 0 2.6 3 2.6 8 0 5 -1 8 -2.6 8 -1.1 0 -1.4 -1.9 -1.4 -8z"/>
 </g>
 <g fill="#576f48">
  <path d="M54 297.1 c-5.5 -2.3 -6.7 -4.6 -1.9 -3.7 2.6 0.5 3 0.4 1.7 -0.4 -0.9 -0.5 -1.9 -2.8 -2.3 -4.9 -0.6 -3.5 -1.1 -4.2 -4.8 -5.5 -3.4 -1.3 -3.6 -1.5 -1.2 -1.2 1.7 0.2 4 0.7 5.3 1.1 2.1 0.7 2.2 0.5 2.2 -4.3 l0 -5 -7.5 -3.5 c-4.1 -2 -7.5 -4 -7.5 -4.4 0 -0.5 3.5 0.8 7.7 2.8 8.1 4 8.8 4.1 18.8 1.3 4.9 -1.4 9 -3.4 7 -3.4 -0.5 0 -3.2 0.7 -5.9 1.5 -2.7 0.8 -6 1.5 -7.3 1.5 -2.4 0 -2.5 -0.2 -2.1 -5.9 l0.3 -6 -4.9 -2.3 c-7.3 -3.4 -13.6 -7.6 -13.6 -9 0 -1.2 5.2 -2.6 22.8 -6.5 2 -0.5 2.2 -0.1 2.2 3.1 0 3.5 -0.1 3.6 -3.9 3.6 -2.2 0 -4.2 0.4 -4.5 0.9 -0.7 1.1 3.9 3.1 7.4 3.1 1.9 0 3 0.5 3 1.4 0 1.2 0.7 1.2 5.3 0 2.8 -0.7 6.7 -1.4 8.6 -1.4 l3.4 0 -0.6 8.2 c-0.4 4.5 -1.1 8.6 -1.6 9.1 -0.6 0.6 -2.7 1.3 -4.8 1.6 l-3.8 0.6 8.3 3.5 c4.5 1.8 8.2 4 8.2 4.7 0 2.2 2.5 1.5 9.8 -2.7 4.6 -2.7 8.1 -4 10.6 -4 l3.6 0 0 4.5 c0 3.3 0.4 4.5 1.5 4.5 1.2 0 1.5 -1.5 1.5 -7.2 l0.1 -7.3 8.7 -4.3 c12.4 -6.1 12.4 -6.1 9.8 4.4 l-2 8.5 -8 4.2 c-4.4 2.2 -7.4 4.3 -6.7 4.5 0.7 0.2 4.5 -1.2 8.5 -3.2 3.9 -2 7.7 -3.6 8.4 -3.6 0.8 0 1.2 1.7 1.2 4.8 l0 4.9 -7.6 1.1 c-5.3 0.7 -8 1.6 -8.9 2.9 -1.2 1.6 -1.1 1.9 1 2.3 2 0.4 2.2 0.7 1.1 2.2 -0.8 1.1 -3.9 2.2 -8.5 3 -6.2 1.1 -7.3 1 -8.1 -0.2 -0.7 -1.1 -0.4 -1.6 1.1 -1.8 1.5 -0.3 1.8 -0.8 1.4 -2.3 -0.4 -1.3 0 -2.8 1.1 -4 2.8 -3.1 -0.2 -2.3 -7.9 2.1 -9.3 5.4 -10.2 5.1 -10.2 -2.8 0 -6.8 -0.9 -8.2 -5.7 -8.2 -1.4 0 -3.9 -0.6 -5.5 -1.4 -1.5 -0.8 -4.8 -2.2 -7.2 -3.2 -2.4 -1 -5 -2.4 -5.7 -3.2 -1.2 -1.1 -1.4 -0.9 -1.4 1.2 0 1.4 -0.4 2.6 -1 2.6 -0.5 0 -1 -0.9 -1 -2 0 -1.5 -0.7 -2 -2.6 -2 -2.3 0 -2.5 0.3 -2.2 3.7 0.3 3.2 0.7 3.8 3.5 4.5 3.4 0.9 5.4 4.5 3.3 5.8 -1.6 1 -1 1.3 8.8 4 4.5 1.3 8 2.5 7.8 2.8 -0.3 0.2 -5 -0.8 -10.6 -2.3 -5.5 -1.6 -10.2 -2.6 -10.5 -2.4 -0.2 0.3 -0.1 2 0.4 3.7 0.8 2.7 0.7 3.2 -0.7 3.3 -1.1 0 -0.6 0.5 1.2 1.3 2.3 1.1 2.5 1.4 1.1 1.9 -2.2 0.9 -2.3 0.9 -7.5 -1.2z"/>
  <path d="M85 253.3 c0 -11.2 0.6 -12.6 4.4 -11.9 4.5 0.9 1.8 -1.3 -3 -2.5 -4.3 -0.9 -10.1 0.4 -12.1 2.8 -0.7 0.9 -2.5 1.3 -5.5 1.1 -3.8 -0.3 -4.3 -0.6 -4.3 -2.7 0 -2.2 1.2 -3 8.9 -6.3 5 -2.1 9.6 -3.8 10.4 -3.8 1.2 0 1.2 -0.3 0.2 -1.5 -1.1 -1.3 -0.8 -1.5 1.3 -1.5 4.3 0 7.7 2.1 7.7 4.7 0 1.7 0.6 2.3 2.3 2.3 1.2 0 2.9 0.5 3.7 1 1.1 0.8 0.7 0.9 -1.5 0.5 -2 -0.3 -1.1 0.4 2.8 2.2 5.6 2.6 5.7 2.7 5.7 6.8 0 3.7 0.3 4.3 2.3 4.3 1.2 0 4.1 0.5 6.5 1.1 3.7 1.1 4.2 1.5 4.2 4.1 0 2.9 -0.2 3 -4.5 3 -2.6 0 -5.8 0.6 -7.3 1.4 -1.5 0.7 -7.1 1.6 -12.4 2 l-9.8 0.7 0 -7.8z"/>
 </g>
 <g fill="#4b3598">
  <path d="M144.3 390.3 c-2.3 -0.5 -4.9 -3 -4 -3.9 0.3 -0.3 2.9 -1.1 5.8 -1.7 4.8 -1.1 5.3 -1.5 6.5 -5.1 1.1 -3 1.1 -5.3 0.3 -10.9 -0.6 -3.8 -0.9 -8.1 -0.6 -9.6 0.3 -1.4 0.1 -4.8 -0.3 -7.6 -0.5 -3 -0.4 -5.7 0.2 -6.9 0.6 -1.1 1.2 -4.1 1.5 -6.8 0.7 -8.6 4.6 -14.9 7.5 -12 0.6 0.6 1.2 6.4 1.5 12.9 0.2 6.5 0.8 13.2 1.3 14.8 1.4 4.8 3.2 19.7 2.9 23 -0.3 2 -1 3.1 -2.4 3.3 -1.1 0.2 -4 2.6 -6.5 5.3 -4.6 5 -8.2 6.4 -13.7 5.2z"/>
  <path d="M223 385.9 c-1.4 -0.4 -4.1 -1.2 -6 -1.7 l-3.5 -1 4.5 -0.1 c2.5 0 5.4 0.6 6.4 1.4 2.4 1.8 1.9 2.4 -1.4 1.4z"/>
  <path d="M236 384.8 c0 -2.1 -9.8 -5.3 -13 -4.3 -1.3 0.4 -2.6 -0.2 -4.2 -2.1 -1.3 -1.4 -3.2 -3 -4.4 -3.4 -3.2 -1.3 -13.7 -15.6 -13.1 -17.9 0.3 -1.1 -0.1 -2.8 -0.9 -3.8 -0.7 -1 -1.4 -3.6 -1.4 -5.7 0 -2.2 -0.6 -4.3 -1.5 -5 -1.8 -1.4 -2.3 -9.3 -0.7 -12.3 0.7 -1.2 1.2 -3 1.2 -4 0 -1.1 1.8 -3.6 4 -5.8 3.7 -3.6 4.1 -3.8 6.5 -2.5 2.4 1.3 2.5 1.6 2.4 11.5 0 5.6 0.3 11.9 0.6 13.9 0.7 3.5 0.7 3.6 -2.4 3.6 -3.1 0 -3.2 0.1 -1.7 2.2 0.9 1.2 1.6 3.6 1.6 5.2 0 3.1 3.6 7.7 12.3 15.5 4.2 3.9 5.4 4.4 8.8 4.2 2.3 -0.1 4.9 0.5 6.1 1.4 3.1 2.1 7.7 1.9 11.6 -0.5 2.5 -1.6 3.2 -2.6 3.2 -5.2 0 -2.5 0.3 -2.9 1.2 -2 0.7 0.7 2.4 1.2 3.9 1.2 1.8 0 2.9 0.6 3.1 1.8 0.5 1.9 -1.1 6.2 -2.3 6.2 -0.4 0 -1.8 1.7 -3.1 3.8 -1.8 2.9 -2.3 3.3 -2.6 1.9 -0.3 -1.4 -1 -1.7 -2.5 -1.3 -1.2 0.3 -2.5 0.6 -2.9 0.6 -0.3 0 -0.4 0.9 -0.1 1.9 0.4 1.6 -0.2 1.9 -4.6 2.2 -4.3 0.3 -5.1 0.1 -5.1 -1.3z m-32 -51.5 c-1.1 -1.7 -1.1 -1.7 -0.6 0 0.3 1 0.7 2.8 0.7 4 0.2 2.2 0.2 2.2 0.6 0 0.2 -1.2 -0.1 -3 -0.7 -4z"/>
  <path d="M202 372.5 c-4.5 -4.6 -4.3 -6.1 0.4 -2.4 2.6 2.1 5.1 5.7 4.4 6.5 -0.2 0.2 -2.4 -1.7 -4.8 -4.1z"/>
  <path d="M235 371 c0 -0.6 0.7 -1.3 1.5 -1.6 1.7 -0.7 2 -4.6 0.5 -7.4 -0.8 -1.5 -0.6 -2.1 0.8 -2.9 1.4 -0.7 2.7 -0.2 6 2.2 2.2 1.8 4.1 3.6 4.2 4 0 0.5 -0.9 2.2 -2.1 3.8 -1.7 2.5 -2.7 2.9 -6.5 2.9 -2.4 0 -4.4 -0.5 -4.4 -1z"/>
  <path d="M246.5 344.4 c-1.1 -0.9 -3.3 -2.2 -5 -3 l-3 -1.3 2.8 -0.1 c4.1 0 8.6 2.7 8.7 5.3 0 1.1 -1.3 0.8 -3.5 -0.9z"/>
  <path d="M260 345 c2 -1.3 8.7 -1.3 9.5 0 0.4 0.6 -1.6 1 -5.2 1 -4.1 0 -5.4 -0.3 -4.3 -1z"/>
  <path d="M259.4 341.1 c-1.8 -1.1 -3.5 -2.4 -3.8 -3 -0.4 -0.6 -1.7 -1.1 -3 -1.1 -1.4 0 -4 -1.8 -6.7 -4.7 -2.4 -2.5 -5.9 -6 -7.6 -7.6 -2 -1.9 -3.3 -4 -3.3 -5.5 0 -1.4 -1.6 -5.8 -3.5 -9.9 -3.8 -7.9 -4.1 -9.7 -2.5 -13.9 1.2 -3.1 -0.4 -8.5 -2.4 -8.1 -1.4 0.3 -1.9 -5.7 -0.8 -10.8 0.5 -2.3 0.4 -5.9 -0.1 -8.4 -0.9 -4.2 -0.8 -4.6 1.9 -6.8 1.6 -1.3 3.2 -2.3 3.6 -2.3 1.1 0 3.7 9.6 5.2 18.9 0.8 5 0.9 8.1 0.3 8.1 -1.2 0 -0.2 15.7 1.2 19.2 0.5 1.3 1.6 4.9 2.6 8.1 1.3 4.7 2.4 6.3 5.5 8.5 2.5 1.7 3.9 3.5 4 4.9 0 1.5 0.8 2.5 2.4 2.9 1.4 0.3 3.2 1.4 4.2 2.5 1 1.1 3 1.9 4.9 1.9 1.8 0 3.8 0.7 4.5 1.5 1 1.2 2 1 6.8 -1.7 3.2 -1.7 6.4 -3.7 7.3 -4.5 0.8 -0.7 2.3 -1.3 3.1 -1.3 1 0 1.8 -1.3 2.2 -4 0.7 -4.7 3.6 -8 7 -8 3.3 0 4.3 5.2 2 10.6 -2.1 5 -2.2 5.1 -3.9 2.8 -1.3 -1.8 -1.4 -1.7 -2.1 1.4 -0.5 2.3 -1.2 3.2 -2.6 3.2 -1.1 0 -4.2 1.6 -6.8 3.5 -4 2.9 -5.2 3.3 -8.5 2.8 -2.9 -0.5 -4 -0.2 -4.7 1 -1.2 2.2 -2.6 2.1 -6.4 -0.2z"/>
  <path d="M279 340.1 c0 -0.9 6.1 -4.1 7.9 -4.1 2.2 0 -0.1 2.7 -3.3 3.8 -3.9 1.4 -4.6 1.5 -4.6 0.3z"/>
  <path d="M267 326.1 c0 -0.5 0.6 -1.1 1.4 -1.4 0.7 -0.3 1.6 -1.7 2 -3.1 0.3 -1.4 1.8 -3.7 3.2 -5.1 2.5 -2.5 2.5 -2.9 1.9 -10.3 -0.4 -4.9 -1.6 -9.7 -3.2 -13.1 -1.5 -3.2 -2.2 -6.2 -1.9 -7.6 0.4 -1.4 -0.1 -3.1 -1.2 -4.5 l-1.8 -2.3 -2.4 2.9 -2.3 2.9 0.7 -4.5 c0.4 -2.5 1.8 -6.1 3.2 -8.1 2.3 -3.4 8.2 -8.5 8.9 -7.7 0.2 0.1 0.6 5.4 0.9 11.7 0.8 14.5 1.4 18.8 3.3 23 1.8 4 2.8 14.5 1.9 19.3 -0.4 2.3 -1.8 4.1 -4.5 6.1 -3.7 2.6 -10.1 3.7 -10.1 1.8z"/>
  <path d="M287 312.5 c-0.6 -0.8 -1.4 -4.1 -1.7 -7.5 l-0.6 -6 3.6 0 c3 0 3.9 0.5 5.2 3 0.8 1.6 1.5 4.9 1.5 7.5 0 4.5 0 4.5 -3.4 4.5 -1.8 0 -3.9 -0.7 -4.6 -1.5z"/>
  <path d="M174.4 276.3 c0.5 -1.6 -0.1 -1.8 -4.8 -1.5 -3 0.2 -6.4 -0.1 -7.5 -0.7 -1.8 -1 -2.1 -0.9 -2.1 0.9 0 2.4 -0.9 2.5 -3.6 0.5 -1.9 -1.5 -1.9 -1.5 0.4 -3.4 l2.3 -2 -3.1 -2.2 c-5.9 -4.4 -2.4 -8.9 6.8 -8.9 l5.4 0 -0.4 4 -0.4 4 5.8 0 5.8 0 0 4.9 c0 3.5 -0.4 5.1 -1.6 5.5 -2.7 1 -3.6 0.7 -3 -1.1z"/>
  <path d="M264 215.9 c0.1 -4.2 2 -6.9 4.9 -6.9 1.8 0 2 0.4 1.5 2.8 -0.4 1.5 -0.7 2.7 -0.8 2.7 -0.1 0 -1.3 1.1 -2.8 2.4 l-2.8 2.4 0 -3.4z"/>
  <path d="M46.7 193.3 c-4.8 -9.1 -6.1 -16.2 -6.2 -34.8 0 -15 0.3 -17.8 2.3 -24.4 1.7 -5.2 2.9 -7.5 4.3 -7.8 1 -0.3 1.6 -1 1.3 -1.5 -0.8 -1.3 2.6 -3.7 5.4 -3.8 1.5 0 2.6 -0.7 2.9 -2 0.7 -2.7 4.8 -2.6 6.7 0.2 1.6 2.2 2.2 8.8 1 8.8 -0.4 0 -1.2 -0.8 -1.9 -1.7 -1.1 -1.5 -1.3 -1.5 -1.9 0.5 -0.4 1.3 0.1 4 1.4 6.9 1.1 2.7 1.9 5.7 1.8 6.8 -0.1 1.1 0.1 4.6 0.6 7.7 0.7 4.7 0.5 6.3 -0.8 8.3 -2.9 4.4 -3.2 4 -6.5 -9 -1 -3.6 -1 -3.3 -0.6 2.5 2.3 29 1.6 40 -2.7 45.5 -2.8 3.6 -4.1 3.1 -7.1 -2.2z m7.3 -10.5 c2.4 -10 -1 -42.2 -4.9 -46.1 -1.8 -1.8 -4.4 0.4 -5.8 4.9 -0.6 2.1 -1.2 9.8 -1.2 16.9 -0.1 18.6 2.9 29.5 8.3 29.5 2.1 0 2.6 -0.7 3.6 -5.2z"/>
  <path d="M278.6 183.5 c-0.5 -2.7 0 -8.6 1.5 -18.2 2 -11.8 2.7 -14.3 4.1 -14.3 0.9 0 1.9 0.8 2.1 1.8 0.4 1.6 0.5 1.6 0.6 0 0 -1 0.8 -1.8 1.6 -1.8 1 0 1.5 1 1.5 3.3 0 3.3 -1.7 14.9 -2.6 18 -0.3 1.1 0 1.7 1 1.7 1.1 0 1.8 -2.1 2.7 -7.5 1.1 -6.5 1.6 -7.5 3.4 -7.5 2 0 2 0.3 1.4 7.8 -1.4 16.2 -3 19.3 -9.5 18.3 -3.2 -0.5 -4 -1.1 -4.3 -3.1 -0.4 -2.2 -0.6 -2 -1.6 1.5 l-1.2 4 -0.7 -4z"/>
  <path d="M66.1 136.8 c0 -0.9 -0.4 -2.5 -0.7 -3.5 -0.5 -1.7 -0.5 -1.7 0.6 0 0.6 1 0.9 2.5 0.7 3.5 -0.4 1.5 -0.5 1.5 -0.6 0z"/>
  <path d="M130.5 101.4 c-12.8 -7.4 -21.4 -11.3 -26.4 -11.9 -9 -1.2 -9.1 -1.2 -9.1 -5 0 -2.8 0.4 -3.5 2 -3.5 1.1 0 2 -0.5 2 -1.2 0 -2 4.4 -7.8 5.9 -7.8 0.8 0 2.4 -0.8 3.5 -1.9 1.6 -1.4 4.3 -2 11.6 -2.5 l9.5 -0.6 1.3 2.7 c0.6 1.5 1.2 3.4 1.2 4.3 0 0.8 0.9 2.1 2 2.8 2.4 1.5 2.7 7.3 0.5 11.6 -0.8 1.5 -1.2 3.2 -0.9 3.7 0.3 0.5 2.9 0.9 5.8 0.9 l5.3 0 0.7 4.6 c1.1 8.2 1 8.4 -3.2 8.4 -2.6 0 -6.1 -1.4 -11.7 -4.6z"/>
 </g>
 <g fill="#5b5e76">
  <path d="M75.2 385.5 c0.4 -2 0.1 -2.5 -1.4 -2.5 -1.1 0 -1.8 -0.5 -1.5 -1.2 0.2 -0.9 1.9 -1.2 4.7 -1 2.3 0.2 4.5 0 4.9 -0.5 0.8 -1.1 12.2 -4.3 15.6 -4.3 2.2 0 2.5 0.4 2.5 3.4 0 2.7 -0.5 3.5 -2.2 3.9 -1.3 0.3 -5.6 1.4 -9.5 2.6 -4 1.2 -8.7 2.1 -10.4 2.1 -2.8 0 -3.1 -0.3 -2.7 -2.5z"/>
  <path d="M44 378.5 c-4.8 -2 -5.5 -2.7 -5.5 -5.2 0 -2.4 0.4 -2.8 3.1 -3.1 3.9 -0.4 10.8 2.7 11.2 5 0.3 1.3 -0.1 1.6 -1.4 1.1 -1.4 -0.5 -1.6 -0.2 -1.2 2 0.6 3.2 0.7 3.2 -6.2 0.2z"/>
  <path d="M108.2 376.3 c0.3 -3.5 0.6 -3.8 5.1 -5.2 5.6 -1.7 8.2 -0.8 8.2 2.9 0 2 -0.9 2.6 -6.5 4.1 -3.6 1 -6.6 1.8 -6.8 1.9 -0.2 0 -0.2 -1.7 0 -3.7z"/>
  <path d="M125 371.3 c0.1 -3.7 3.2 -7.3 6.3 -7.3 3 0 4 2.1 2.7 5.4 -1 2.8 -3.8 4.6 -6.9 4.6 -1.6 0 -2.1 -0.6 -2.1 -2.7z"/>
  <path d="M130 357.9 c0 -0.6 -0.9 -2.2 -2 -3.6 -2.5 -3.2 -2 -3.9 2.4 -4.1 2.9 -0.1 3.5 0.3 4.1 2.6 0.4 1.6 0.2 2.8 -0.4 3 -0.6 0.2 -1.1 1 -1.1 1.8 0 0.8 -0.7 1.4 -1.5 1.4 -0.8 0 -1.5 -0.5 -1.5 -1.1z"/>
  <path d="M73.4 354.5 c0.3 -1.7 0 -2.5 -0.9 -2.5 -0.8 0 -1.7 -0.5 -2.1 -1.2 -0.5 -0.8 -0.2 -0.9 0.9 -0.5 2.5 0.9 11.5 -2.1 12.1 -4.1 0.2 -0.9 0.7 -4.2 1.1 -7.2 1 -8.9 1.6 -11 3 -11 1.4 0 1.3 2.5 -0.6 12.3 -1.2 6.6 -1.2 6.7 1.6 6.7 1.8 0 2.5 0.5 2.5 2 0 1.4 -0.9 2.1 -3.5 2.6 -2.4 0.4 -3.5 1.2 -3.5 2.4 0 2.2 -1.9 3 -7.1 3 -3.7 0 -3.9 -0.2 -3.5 -2.5z"/>
  <path d="M44.5 345.2 c-7.5 -3 -12.1 -5.4 -12.3 -6.4 -0.3 -1.7 3.4 -3.2 4.4 -1.7 0.3 0.5 1.7 0.9 3.1 0.9 1.4 0 4.9 1.1 7.7 2.4 2.8 1.3 6.9 2.8 9.1 3.3 2.7 0.5 4.1 1.4 4.3 2.6 0.3 1.5 0 1.8 -1.7 1.2 -1.6 -0.5 -2 -0.3 -1.5 0.9 0.8 2.2 0.5 2.1 -13.1 -3.2z"/>
  <path d="M95.5 346.1 c0.3 -0.6 1.6 -1 2.8 -0.9 1.2 0 3 -0.3 4.1 -0.7 1.4 -0.6 1.8 -0.5 1.4 0.6 -0.3 0.8 -2.2 1.5 -4.7 1.7 -2.8 0.2 -4.1 0 -3.6 -0.7z"/>
  <path d="M107 345 c0 -1.1 0.6 -2 1.4 -2 1.4 0 2.2 -2.7 4.1 -13.2 0.8 -4.1 3.5 -6.1 3.5 -2.5 -0.1 1.2 -0.7 4.9 -1.5 8.2 -0.8 3.2 -1.3 6.1 -1.1 6.3 0.2 0.2 2.6 -0.3 5.2 -1.1 l4.8 -1.4 2.4 -9.4 c1.3 -5.1 2.9 -9.7 3.5 -10.1 0.7 -0.5 0.1 -0.8 -1.5 -0.8 -3.2 0 -3.7 -1.5 -0.9 -2.3 1.5 -0.4 2.3 -2.3 3.7 -8.6 1.8 -8.2 3.6 -12.2 4.9 -10.9 0.4 0.4 -0.2 4.8 -1.3 9.7 -1.9 8.9 -1.9 9.1 -0.1 9.1 2.7 0 2.4 1.8 -0.3 2.2 -2 0.3 -2.6 1.5 -4.5 9.3 -2.9 11.8 -3 11.5 1.6 11.5 l3.8 0 3.5 -10.7 c3.1 -9.9 3.3 -10.8 1.6 -11.1 -2.6 -0.5 -2.2 -2.4 0.5 -2 2 0.3 2.6 -0.8 5.9 -10.2 2 -5.8 3.7 -11 3.7 -11.6 0.1 -0.6 -0.9 -1 -2.1 -1 -1.8 0.1 -2.4 -0.5 -2.6 -2.6 -0.3 -2.2 0.2 -2.8 3.1 -3.9 2.6 -0.9 3.7 -2.1 4.8 -5.3 1.4 -4 3.3 -5.3 5.6 -3.8 1.8 1.1 -14.2 49.1 -16.9 51.1 -1.4 1 -1.8 2 -1.3 3.8 0.3 1.4 -0.1 4.7 -1 7.3 -1.6 4.7 -1.8 4.9 -6.8 6 -2.9 0.6 -7.3 1.4 -9.9 1.7 -4.1 0.5 -4.8 0.3 -4.8 -1.1 0 -1.6 -0.1 -1.6 -1.6 -0.2 -0.9 0.9 -3.2 1.6 -5.5 1.6 -3.2 0 -3.9 -0.3 -3.9 -2z"/>
  <path d="M98.4 339.4 c1.3 -8.8 2.7 -14.4 3.7 -14.4 2.2 0 -0.6 18 -3 18.8 -1.1 0.4 -1.2 -0.5 -0.7 -4.4z"/>
  <path d="M83 327.5 c0 -0.4 0.9 -1.4 2 -2.3 1.5 -1.2 2.2 -3.4 2.6 -8 0.4 -3.4 1.3 -7 2.1 -8 1.2 -1.5 1.3 -0.7 0.8 6.6 -0.5 7 -0.4 8.2 0.9 8.2 3 0 1.6 1.8 -2 2.4 -1.9 0.4 -4.2 1 -5 1.3 -0.8 0.3 -1.4 0.2 -1.4 -0.2z"/>
  <path d="M98 323.4 c0 -0.8 0.6 -1.4 1.4 -1.4 1.7 0 2.2 -1.4 3.1 -8.5 0.9 -7.3 1.6 -9.5 2.7 -9.5 1.1 0 0.7 7 -0.8 13.8 -0.6 3 -0.5 3.2 1.9 3.2 2.1 0 5.2 -0.9 8.4 -2.5 0.2 -0.1 1 -3.7 1.9 -8.1 0.9 -4.3 2.2 -8.6 3 -9.4 2.2 -2.3 2 1.2 -1.1 14.8 -0.5 1.9 -0.1 2.2 2.5 2.2 6.2 0 2.7 1.8 -6.7 3.5 -5.4 0.9 -11.3 2 -13 2.5 -2.6 0.7 -3.3 0.5 -3.3 -0.6z"/>
  <path d="M72.7 307.3 c-0.4 -0.3 -0.2 -1.3 0.5 -2 1.3 -1.6 -0.4 -3.3 -3.4 -3.3 -1 0 -1.8 -0.6 -1.8 -1.2 0 -1 2.1 -1.2 8 -1 l8 0.4 0 3.3 c0 2.5 -0.5 3.4 -2.2 3.9 -3.1 0.8 -8.3 0.8 -9.1 -0.1z"/>
  <path d="M101 302 c0 -0.5 1.7 -1 3.8 -0.9 3.3 0.1 3.4 0.2 1.2 0.9 -3.6 1.1 -5 1.1 -5 0z"/>
  <path d="M115.9 298.6 c0.8 -0.9 2.9 -1.6 4.9 -1.6 4.5 0 3.1 1.5 -2.2 2.5 -3.6 0.6 -3.8 0.5 -2.7 -0.9z"/>
  <path d="M130.2 295.7 c0.3 -0.6 2.4 -1.3 4.9 -1.5 4.9 -0.2 3.7 1.1 -1.9 2.2 -2.4 0.4 -3.2 0.2 -3 -0.7z"/>
  <path d="M27.3 293 c-5.1 -1.4 -5.3 -1.6 -5.3 -4.9 0 -3.3 0 -3.4 3.9 -2.8 4.5 0.6 9.3 2.7 9.8 4.3 0.3 0.7 -0.6 1 -2.4 0.6 -2.5 -0.5 -2.7 -0.3 -1.5 1.1 2.3 2.8 0.9 3.3 -4.5 1.7z"/>
  <path d="M157 256 c0 -1.9 8.6 -6 12.8 -6 3.5 0 4.2 0.3 4.2 1.9 0 3.3 -3.8 5.1 -10.7 5.1 -3.5 0 -6.3 -0.4 -6.3 -1z"/>
  <path d="M166.5 248 l-5 -0.7 6.3 -0.1 c3.6 -0.1 6.2 0.2 6.2 0.8 0 0.6 -0.6 0.9 -1.2 0.8 -0.7 0 -3.5 -0.4 -6.3 -0.8z"/>
  <path d="M69 187.3 c0 -5.3 1 -8.3 2.6 -8.3 1 0 1.4 1.6 1.4 6 0 5.3 -0.2 6 -2 6 -1.6 0 -2 -0.7 -2 -3.7z"/>
  <path d="M213 130 c0 -1.9 0.7 -2 10 -2 9.3 0 10 0.1 10 2 0 1.9 -0.7 2 -10 2 -9.3 0 -10 -0.1 -10 -2z"/>
  <path d="M130 125 c0 -1.9 0.7 -2 10 -2 9.3 0 10 0.1 10 2 0 1.9 -0.7 2 -10 2 -9.3 0 -10 -0.1 -10 -2z"/>
 </g>
 <g fill="#5437a8">
  <path d="M236 385.4 c0 -0.6 1.4 -1.4 3.1 -1.8 4.9 -0.9 6.9 -0.7 6.9 0.8 0 1 -1.5 1.5 -5 1.8 -3.2 0.2 -5 -0.1 -5 -0.8z"/>
  <path d="M238.8 380.1 c-2.7 -0.4 -5.3 -1.2 -5.9 -1.8 -0.7 -0.7 -2.1 -0.8 -4.2 -0.2 -3.7 1 -6 -0.5 -16.1 -10.7 -5.3 -5.4 -6.6 -7.4 -6.6 -9.9 0 -1.7 -0.7 -4.1 -1.6 -5.4 -0.9 -1.3 -2.3 -5.3 -3 -9 -0.7 -3.6 -1.6 -7.8 -1.9 -9.4 -1.2 -4.7 6.2 -12.6 7.8 -8.3 0.3 0.8 0.3 2.3 0 3.4 -0.2 1.1 0 2.3 0.6 2.6 0.7 0.5 0.9 2.7 0.5 6.2 -0.6 5 -0.5 5.6 1.3 6 1.3 0.4 2.3 1.7 2.7 3.6 1.6 7.8 8.9 18.3 15 21.5 4.6 2.4 12.4 1 15.6 -2.8 l2.5 -3 4.1 3.1 c4.5 3.3 6.3 7.3 4.3 9.7 -1.4 1.6 -8.4 5.4 -9.6 5.2 -0.4 -0.1 -2.9 -0.5 -5.5 -0.8z"/>
  <path d="M256.7 375.3 c-0.2 -0.5 -0.7 -2 -1.1 -3.5 -0.5 -2.1 -0.3 -2.8 0.9 -2.8 1.1 0 1.5 1 1.5 3.5 0 3.4 -0.4 4.3 -1.3 2.8z"/>
  <path d="M157.5 374 c-0.3 -0.5 -0.7 -4.1 -0.9 -8.1 -0.3 -5.8 0 -7.4 1.5 -8.8 1.7 -1.6 1.7 -1.7 -1.1 -3 -3.6 -1.5 -3.8 -2.7 -0.8 -3.4 3 -0.8 4.8 0.9 4.8 4.7 0 1.7 0.7 4 1.5 5 2.4 3.1 1.9 9.9 -0.8 12.4 -2.6 2.4 -3.3 2.7 -4.2 1.2z"/>
  <path d="M263 338.5 c-0.7 -0.8 -2.7 -1.5 -4.5 -1.5 -1.9 0 -3.9 -0.8 -4.9 -1.9 -1 -1.1 -2.8 -2.2 -4.2 -2.5 -1.6 -0.4 -2.4 -1.4 -2.4 -2.9 -0.1 -1.4 -1.5 -3.2 -4 -4.9 -3.1 -2.2 -4.2 -3.8 -5.5 -8.5 -1 -3.2 -2.1 -6.8 -2.6 -8.1 -0.5 -1.3 -0.9 -3.6 -0.9 -5.2 0 -1.6 -0.5 -3.2 -1 -3.5 -0.7 -0.4 -0.8 -3 -0.4 -6.9 0.4 -4.3 0.3 -6.6 -0.5 -7 -1.9 -1.2 -1.2 -2.4 1.9 -2.8 2.7 -0.4 3 -0.2 3.6 3.1 2.9 16.8 5.1 23.4 10.1 30.5 2.8 3.9 4.1 4.8 9.8 6.5 3.7 1.2 7.7 2.1 8.8 2.1 3.6 0 11.6 -6.1 12.3 -9.3 0.8 -3.8 -0.3 -10.5 -2.3 -14.2 -1.8 -3.4 -2 -4.6 -2.8 -21 -0.3 -6.6 -0.8 -12.6 -1 -13.2 -0.5 -1.5 2.9 -3.9 6.9 -4.9 2.9 -0.7 2.9 -0.7 2.4 3.3 -0.5 3.6 -0.3 4.2 1.8 5.4 2.8 1.5 2.9 2.4 0.9 7.2 -0.8 2 -1.5 5.1 -1.5 6.9 0 2.6 -0.3 2.9 -1.2 2 -0.7 -0.7 -1.8 -2.7 -2.5 -4.5 -0.9 -2.6 -1.2 -2.8 -1.2 -1 -0.1 3.1 1.9 7.2 3.8 7.8 0.9 0.3 4.1 3 7.1 6 l5.4 5.4 0.4 9 c0.4 8.5 0.3 8.9 -1.8 9.6 -2.4 0.8 -5.3 6.6 -4.4 8.9 0.4 1 -0.1 1.8 -1.2 2.2 -1.1 0.3 -2.6 0.9 -3.4 1.4 -13.9 8.2 -18.4 9.6 -21 6.5z m31 -28 c0 -0.5 -4.8 -7.6 -5.7 -8.5 -0.9 -0.9 0.9 6.4 1.9 7.8 1 1.1 3.8 1.7 3.8 0.7z"/>
  <path d="M290.6 329.2 c-1.1 -3.3 1.9 -9.1 4.7 -9.2 1.1 0 0.8 5.3 -0.6 7.9 -1.6 3.2 -3.4 3.7 -4.1 1.3z"/>
  <path d="M176 271.4 c0 -1.5 -0.9 -1.6 -7 -1 -6.9 0.6 -7 0.6 -7.6 -2 -0.5 -2.1 -0.2 -3.1 1.7 -4.6 l2.4 -2 -3.6 0.5 c-3.3 0.5 -3.6 0.3 -3.1 -1.8 1.1 -5.9 15.3 -4.1 18.6 2.4 2.1 4 2.1 10.1 0.1 10.1 -0.8 0 -1.5 -0.7 -1.5 -1.6z"/>
  <path d="M280.1 177.5 c0 -3.3 0.3 -6.7 0.9 -7.5 1.7 -2.8 2 -0.3 0.6 6.6 l-1.4 6.9 -0.1 -6z"/>
  <path d="M283.4 174.8 c0.9 -6.5 1.1 -6.8 4.4 -6.8 4.5 0.1 6.5 2.2 5.4 6.2 -0.4 1.8 -1.1 3.2 -1.5 3 -0.4 -0.1 -2 0.4 -3.7 1.3 -4.8 2.5 -5.3 2.1 -4.6 -3.7z"/>
  <path d="M281.6 135.9 c-0.3 -3.4 -0.6 -7.3 -0.6 -8.5 0 -3.5 2.7 -3 3.5 0.6 0.4 1.7 1.2 3.6 1.9 4.3 2.2 2.2 5.6 7.5 5.6 8.6 0 1.9 -4.8 1.3 -5.3 -0.6 -0.4 -1.7 -0.5 -1.7 -0.6 0 -0.1 0.9 -0.9 1.7 -2 1.7 -1.5 0 -1.9 -1.1 -2.5 -6.1z"/>
  <path d="M45.6 126.8 c2 -3.9 4.8 -5.2 6.8 -3.2 3.3 3.3 1.6 5.9 -4.1 5.9 l-4.1 0.1 1.4 -2.8z"/>
  <path d="M172.5 118.9 c-6.5 -1.5 -16.4 -4.9 -25.2 -8.6 -7.2 -3.1 -8.3 -3.9 -8.3 -6 0 -1.9 0.4 -2.3 1.8 -1.9 1.5 0.5 1.7 0.1 1.4 -2.9 -0.4 -2.9 -0.8 -3.5 -2.3 -3 -1 0.3 -3.4 0.3 -5.4 -0.1 -5.2 -0.9 -6.4 -4.4 -3.4 -10.3 l2.2 -4.4 -2.1 -1.8 c-1.2 -0.9 -2.2 -2.4 -2.2 -3.2 0 -0.8 -0.6 -2.6 -1.2 -3.9 -1.2 -2.2 -1.7 -2.3 -5.3 -1.5 -2.2 0.4 -5.2 0.6 -6.6 0.3 -1.9 -0.4 -3.3 0.2 -5 2 -1.2 1.3 -2.8 2.3 -3.3 2.1 -1.3 -0.4 -5.6 5 -5.6 7 0 0.7 -1 1.3 -2.2 1.3 -1.9 0 -2 0.2 -0.8 1 0.8 0.5 2.5 1 3.8 1 2.1 0 2.2 0.2 0.8 1.5 -0.8 0.8 -3 1.5 -4.9 1.5 -1.9 0 -5.4 0.7 -7.7 1.5 -2.3 0.8 -5.8 1.5 -7.6 1.5 -3.3 0 -3.4 -0.1 -3.4 -3.9 0 -3.4 0.8 -4.8 5.5 -10 12 -12.9 35.3 -26.3 54.1 -31.1 19.6 -5 49.3 -5.3 67.9 -0.7 20.8 5.3 33.2 12.3 48 27.1 10.8 10.9 19.2 24.5 17.2 27.8 -0.9 1.5 -2 1.8 -4.7 1.4 -8.9 -1.3 -10 -1.8 -11.4 -5 -0.8 -1.9 -2.8 -3.8 -5.2 -5 -2.2 -1 -4.7 -2.2 -5.6 -2.7 -1 -0.5 -2.7 -0.9 -3.8 -0.9 -1.5 0 -2.2 -0.8 -2.7 -3 -0.4 -2.1 -1.3 -3.2 -2.9 -3.6 -1.3 -0.3 -2.7 -1.8 -3.2 -3.3 -0.9 -2.6 -1.5 -2.8 -7.8 -3.4 -4.1 -0.4 -7.2 -0.3 -7.8 0.3 -0.6 0.6 -3.6 1 -6.8 1 -5.6 0 -5.9 -0.1 -6.4 -2.8 -0.5 -2.3 -1 -2.8 -2.7 -2.5 -1.2 0.2 -7.1 0 -13.2 -0.5 -12.4 -1.1 -12.5 -1 -12.5 5.6 0 2.5 -0.6 5 -1.5 5.8 -2.1 2.1 -1.9 3.4 0.5 3.4 1.8 0 2 0.7 2 7 0 4 -0.4 7 -1 7 -0.5 0 -1 0.5 -1 1 0 1.5 1.6 1.2 3.4 -0.6 1 -1 1.6 -3.3 1.6 -6.5 l0 -4.9 6.8 0 c7.8 0 9.2 0.9 9.2 6 0 2.9 -0.6 3.9 -3 5.3 -3.1 1.9 -3.7 3.1 -2 4.2 1.1 0.7 1.3 7.6 0.4 12.4 l-0.6 3.1 -7.2 -0.1 c-3.9 -0.1 -8.9 -0.5 -11.1 -1z"/>
  <path d="M200 114.1 c0 -6 0 -6.1 2.8 -6.1 2.4 0 5.4 0.6 14 2.5 1.7 0.4 2.2 1.2 2.2 3.9 0 4.1 -1 4.6 -11.2 5.3 l-7.8 0.6 0 -6.2z"/>
  <path d="M228.2 107 c0.7 -6.6 2 -8 7.7 -8 5.6 0 7.1 1.2 7.1 5.7 0 2.8 -0.6 3.5 -4 5.3 -2.1 1.1 -5.6 2 -7.6 2 l-3.7 0 0.5 -5z"/>
  <path d="M130.1 99.1 c-1.3 -0.3 -2.8 -1.6 -3.2 -2.9 -0.8 -2.1 -0.8 -2.1 3.4 0.4 2.3 1.5 4.4 2.8 4.6 3 0.6 0.6 -2.1 0.3 -4.8 -0.5z"/>
  <path d="M183 87.1 l-4.5 -0.6 -0.3 -7.2 -0.3 -7.3 3.6 0 c2.4 0 3.5 0.4 3.5 1.5 0 0.8 0.8 1.5 1.8 1.5 2.1 0 5.2 2.9 5.2 4.8 0 0.8 1.7 1.2 4.5 1.2 4.5 0 4.5 0 4.5 3.5 l0 3.5 -6.7 -0.2 c-3.8 0 -8.8 -0.4 -11.3 -0.7z"/>
 </g>
 <g fill="#90853e">
  <path d="M54.3 285.8 c-1.8 -0.6 -3.3 -1.5 -3.3 -1.9 0 -0.5 0.2 -0.9 0.5 -0.9 1.2 0 7.5 2.9 7.5 3.4 0 0.7 -0.7 0.6 -4.7 -0.6z"/>
  <path d="M58.5 283.6 c-3.9 -1.2 -4 -1.4 -4.5 -6.4 -0.6 -5.5 -0.1 -6.2 4.4 -6.2 3.9 0 5.4 2.1 5.8 8.3 0.5 6.2 0.6 6.2 -5.7 4.3z"/>
  <path d="M76.2 264.8 c0.9 -0.8 1.9 -3.7 2.3 -6.7 0.6 -4.7 0.5 -5.3 -0.9 -4.8 -1.9 0.8 -2.2 -1.6 -0.3 -3.1 1.8 -1.5 9.6 -3.6 10.4 -2.8 0.4 0.3 0.6 2.9 0.4 5.7 -0.2 4.7 -0.1 5 1.8 4.4 1.7 -0.5 2.1 -0.2 2.1 1.7 0 1.9 -1.1 2.7 -5.5 4.6 -6.2 2.5 -13.1 3.1 -10.3 1z"/>
 </g>
 <g fill="#656788">
  <path d="M58.5 378.4 c-15.1 -5.2 -17.1 -5.6 -16.9 -3.1 0.2 2.5 -2 2.1 -5.5 -1.2 -3.6 -3.4 -4.2 -7.6 -1.1 -8.4 1.1 -0.3 1.8 -0.2 1.5 0.3 -0.2 0.4 1.7 1.5 4.3 2.5 2.6 1 7.4 3.1 10.8 4.6 3.3 1.6 10.6 4.1 16.2 5.5 5.6 1.5 10.2 3.1 10.2 3.6 0 1.9 -7.3 0.5 -19.5 -3.8z"/>
  <path d="M95.7 382.3 c-0.4 -0.3 -0.1 -1.3 0.6 -2.1 1 -1.3 0.8 -1.4 -1.5 -0.8 -2.9 0.7 -3.7 -0.4 -1.5 -2.2 0.7 -0.6 5.5 -2.2 10.7 -3.6 5.2 -1.4 12.1 -3.2 15.3 -4 3.2 -0.9 6 -1.6 6.3 -1.6 1 0 4.4 -6.7 4.4 -8.7 0 -1.8 0.6 -2.3 2.5 -2.3 2.4 0 2.5 0.3 2.5 5.3 0 6.5 -1.1 8.5 -3.3 6.3 -1.6 -1.6 -2.9 -0.8 -3.3 1.9 0 0.6 -0.2 1.6 -0.2 2.3 -0.1 0.6 -0.8 1.2 -1.4 1.2 -0.7 0 -2.6 0.7 -4.1 1.5 -2.7 1.4 -3 1.3 -4.6 -0.6 -1.3 -1.6 -2.3 -1.9 -4.5 -1.3 -2.2 0.5 -2.7 1.1 -2.3 3 0.4 2.1 -0.3 2.5 -6.4 4.3 -7.3 2.3 -8.2 2.4 -9.2 1.4z"/>
  <path d="M77.8 356.3 c0.6 -0.2 1.2 -1.1 1.2 -1.8 0 -0.7 0.6 -1.6 1.3 -1.8 0.6 -0.3 0 -0.6 -1.5 -0.6 -5.1 -0.2 -2.5 -3.1 2.7 -3.1 1.2 0 4.2 -0.7 6.5 -1.5 2.4 -0.8 6.1 -1.7 8.4 -1.9 2.2 -0.2 5.4 -0.9 6.9 -1.5 1.5 -0.6 4.2 -1 6 -0.9 1.8 0.1 4 -0.2 5 -0.6 1.4 -0.7 1.7 -0.3 1.7 2.6 l0 3.4 -7.2 1.7 c-4 0.9 -12.1 2.8 -18 4.2 -9.6 2.2 -16.4 3.2 -13 1.8z"/>
  <path d="M63.5 349.1 c-15.2 -5.3 -19.5 -7.7 -11.2 -6.5 4.4 0.7 10.7 3.1 17 6.5 2.1 1.1 4.2 1.7 4.7 1.4 0.6 -0.3 1 -0.1 1 0.4 0 1.7 -2.8 1.2 -11.5 -1.8z"/>
  <path d="M29.9 338.8 c-3.1 -1.9 -3.5 -2.8 -1.9 -4.4 0.7 -0.7 0.4 -3.1 -0.9 -7.5 -1 -3.5 -2.2 -8.4 -2.5 -10.9 -0.4 -2.4 -1.1 -4.9 -1.6 -5.6 -0.6 -0.6 -1.3 -5.2 -1.6 -10.2 -0.6 -8.1 -1 -9.3 -3 -10.7 -2.6 -1.7 -3.2 -5.3 -1.2 -7.3 1.4 -1.4 4.2 -1.6 3.4 -0.3 -0.4 0.5 1.6 1.7 4.4 2.6 5.4 1.8 7 4.5 2.3 3.9 -1.6 -0.2 -2.2 -0.1 -1.5 0.2 1.9 0.9 1.4 3.4 -0.8 3.4 -1.7 0 -1.9 0.4 -1.2 3.3 0.4 1.7 0.7 5.8 0.7 8.9 0 5.5 0.1 5.8 2.8 6.4 1.5 0.3 2.7 1.2 2.7 1.9 0 0.8 -0.7 1.1 -1.9 0.8 -1.6 -0.4 -1.9 -0.1 -1.3 1.9 0.3 1.2 1.3 6.4 2.2 11.3 1.1 6.4 2 8.9 2.9 8.7 0.7 -0.1 2.5 0.5 4 1.5 1.4 1 3.7 2.3 5.1 2.9 2.2 0.9 1.8 1 -2.9 1 -3.2 -0.1 -6.5 -0.8 -8.2 -1.8z"/>
  <path d="M142.7 293.4 c-0.4 -0.4 -0.7 -1.9 -0.7 -3.4 0 -2.4 0.5 -2.8 3.8 -3.4 5.3 -0.8 7.1 -0.6 4.2 0.5 -1.9 0.8 -2.1 1.2 -1.1 1.9 1.7 1 0.7 4 -1.3 4 -0.8 0 -2.1 0.2 -2.8 0.5 -0.8 0.3 -1.7 0.2 -2.1 -0.1z"/>
  <path d="M152.3 266.3 c-3.4 -0.7 -2.8 -3.4 1.7 -8.1 3.6 -3.7 4.6 -4.2 8.4 -4.2 2.7 0 5.2 -0.7 6.7 -1.9 1.3 -1 3.1 -2 3.9 -2.3 0.9 -0.3 0.2 -0.8 -1.7 -1.2 -1.8 -0.4 -3.3 -1.4 -3.3 -2.2 0 -1.1 2.5 -1.4 14.3 -1.2 7.8 0.1 17.9 -0.2 22.5 -0.6 7.2 -0.7 8.2 -0.6 8.2 0.8 0 0.9 -0.7 1.6 -1.6 1.6 -1.3 0 -1.5 0.7 -1.1 3.4 0.5 3.4 0.5 3.5 -4.1 4.6 -2.6 0.6 -6.8 1.6 -9.4 2.1 -2.7 0.5 -7.2 1.4 -10 1.9 -10.6 2.1 -16.4 2.7 -18.6 1.8 -2.8 -1 -10.9 2.2 -11.8 4.6 -0.3 0.9 -0.9 1.5 -1.3 1.5 -0.3 -0.1 -1.6 -0.4 -2.8 -0.6z"/>
 </g>
 <g fill="#6042b4">
  <path d="M256.7 375.3 c-0.2 -0.5 -0.7 -2 -1.1 -3.5 -0.6 -2.6 -0.4 -2.8 2.4 -2.8 3.5 0 3.5 0.1 1.5 4 -1.6 3.1 -2.1 3.5 -2.8 2.3z"/>
  <path d="M246.6 371.8 c-1.9 -2.6 -0.5 -4.8 2.9 -4.8 2.9 0 4.8 2.4 4 5 -0.9 2.7 -4.9 2.6 -6.9 -0.2z"/>
  <path d="M265.7 333.9 c-0.9 -0.5 -2.5 -0.8 -3.5 -0.5 -2.4 0.8 -4.6 -0.9 -3.9 -2.8 0.8 -2 4.8 -3.6 8.7 -3.6 3 0 10 -3.6 10 -5.1 0 -1.2 4.1 -1.1 6 0.1 1.3 0.8 1.2 1.1 -0.5 2.4 -1.1 0.9 -2.3 1.6 -2.7 1.6 -0.4 0 -0.9 0.9 -1.3 2 -1.3 4.2 -9.4 7.9 -12.8 5.9z"/>
  <path d="M242.9 319.3 c-0.9 -1 -0.6 -1.3 1.4 -1.3 1.4 0 2.7 -0.5 2.9 -1 0.2 -0.6 0.8 -0.2 1.5 0.9 1.1 1.7 0.9 1.9 -1.8 2.3 -1.7 0.3 -3.4 -0.1 -4 -0.9z"/>
  <path d="M290.1 304.2 c-1.3 -2.4 -1.5 -7.2 -0.3 -7.2 1.2 0 4.2 3.4 4.2 4.6 0 0.6 -0.6 1.9 -1.4 2.9 -1.3 1.8 -1.4 1.8 -2.5 -0.3z"/>
  <path d="M281.3 286.9 c-1.3 -1.6 -3 -7.8 -1.8 -6.7 0.6 0.6 3.5 -3.3 3.5 -4.7 0 -0.1 -1.6 -1 -3.6 -2 -1.9 -0.9 -3.3 -2.2 -3 -2.8 0.2 -0.7 1 -2.9 1.7 -4.9 1.2 -3.7 1.3 -3.8 6.1 -3.8 8 0 13.8 4.3 13.8 10.2 l0 2.7 -4.1 -1.4 c-2.3 -0.8 -4.8 -1.5 -5.5 -1.5 -1.7 0 -4.4 6.1 -5.2 11.9 -0.6 3.5 -0.9 4.1 -1.9 3z"/>
  <path d="M281 171.9 c0 -1.9 0.7 -7 1.5 -11.4 0.8 -4.4 1.5 -11.8 1.5 -16.5 0.1 -5.7 0.4 -7.8 1 -6.5 1.5 3.4 1.1 13.8 -1 25.5 -2 11.7 -3 14.7 -3 8.9z"/>
  <path d="M290 173 c-1.4 -1.1 -3.3 -1.7 -4.2 -1.4 -1 0.3 -1.8 0.4 -1.8 0.2 0 -0.2 0.7 -3.9 1.5 -8.3 0.8 -4.4 1.4 -11.7 1.5 -16.1 0 -7.9 0.6 -9.4 3.6 -9.4 1.6 0 5.3 11.2 5.5 16.5 0.1 5.2 -2 18.8 -3.2 19.9 -0.2 0.3 -1.5 -0.4 -2.9 -1.4z"/>
  <path d="M279.1 124.9 c-1.9 -7.1 -6.7 -16.4 -10.2 -19.3 -2.8 -2.4 -4.1 -7.2 -1.7 -6.4 0.7 0.3 2 -0.4 2.9 -1.5 1.5 -1.9 1.7 -1.7 5.8 5.8 7.4 13.9 10.5 26.5 6.3 26.5 -1.3 0 -2.2 -1.3 -3.1 -5.1z"/>
  <path d="M48 125.1 c0 -2.7 3.1 -3.6 4.8 -1.4 1.1 1.5 1 1.9 -0.5 2.5 -3.1 1.2 -4.3 0.9 -4.3 -1.1z"/>
  <path d="M184 119 c0 -1.3 0.7 -2 1.8 -2 1 0 1.9 -0.6 2 -1.2 0.1 -0.7 0.4 -2.7 0.8 -4.3 0.4 -2.4 0 -3.5 -2 -5.4 -1.7 -1.6 -2.6 -3.5 -2.6 -5.5 0 -2.2 0.3 -2.7 1.1 -1.9 1.5 1.5 8.1 -2.6 7.4 -4.6 -0.4 -1 0.2 -1.2 2.4 -0.9 2.6 0.4 3 0.1 3.3 -2.4 0.5 -3.1 0.1 -3.2 -8.4 -2.8 -4.3 0.2 -4.8 0 -4.8 -1.9 0 -1.2 0.6 -2.1 1.4 -2.1 0.8 0 1.6 -0.6 1.9 -1.4 0.7 -1.7 -2.8 -5.1 -4.2 -4.1 -0.6 0.3 -1.5 -0.4 -2 -1.7 -0.9 -2 -1 -1.9 -1 1.5 -0.1 2.3 -0.5 3.6 -1.1 3.2 -0.5 -0.3 -1 -2.6 -1 -5.1 l0 -4.5 8.5 0.3 c7.6 0.3 8.5 0.1 8.5 -1.4 0 -1.1 0.8 -1.8 1.9 -1.8 1 0 2.4 -0.7 3.1 -1.5 2.4 -2.9 8.7 -0.8 7.1 2.3 -0.4 0.9 -0.6 2.3 -0.4 3 0.7 1.7 5.3 1.5 7.4 -0.4 1.5 -1.3 2.8 -1.5 6.6 -0.8 2.6 0.4 6.6 0.8 8.8 0.9 3.5 0 4.2 0.4 5.4 3.2 1 2.2 2.3 3.4 4.3 3.9 2 0.4 2.8 1.1 2.4 2 -0.8 2.2 0.4 4.4 2.5 4.4 1.9 0 2.6 0.3 8.9 3.5 3.7 2 8.6 6.5 6.9 6.5 -0.6 0 -0.7 0.5 -0.4 1 0.3 0.6 1.5 1 2.5 1 1.3 0 1.7 0.5 1.4 1.5 -0.4 0.9 -1.9 1.5 -3.8 1.5 -1.7 0 -6.4 1.6 -10.5 3.5 -4 1.9 -8.6 3.5 -10.2 3.5 -3.1 0 -3.9 -1.4 -1.3 -2.4 1.3 -0.5 1.4 -0.9 0.4 -2.1 -2.5 -3.1 -6 -1.5 -7.5 3.3 -0.6 2.1 -0.5 2.3 1.6 1.7 1.8 -0.6 2.1 -0.4 1.6 1 -0.4 0.9 -0.7 2 -0.7 2.5 0 1.2 -13.7 6 -17.3 6 -4.6 0 -6.6 -1.6 -3.2 -2.4 3.7 -0.9 2.7 -1.6 -4.4 -3.1 l-6.1 -1.3 0 2.9 c0 1.9 0.5 2.9 1.5 2.9 2 0 1.9 2.6 -0.1 3.4 -0.9 0.3 -5.8 0.6 -11 0.6 -8.7 0 -9.4 -0.1 -9.4 -2z m12.3 -34.7 c-1.3 -0.2 -3.3 -0.2 -4.5 0 -1.3 0.2 -0.3 0.4 2.2 0.4 2.5 0 3.5 -0.2 2.3 -0.4z m8 -1.6 c0.3 -0.8 0.1 -2 -0.4 -2.8 -0.6 -1 -0.9 -0.7 -0.9 1.4 0 2.9 0.5 3.5 1.3 1.4z"/>
  <path d="M173 105.5 c-0.7 -1.4 -1.9 -2.5 -2.7 -2.5 -1.9 0 -1.6 -1.2 1.2 -4.2 1.8 -2 2.5 -3.7 2.4 -6.5 -0.1 -3.7 -0.1 -3.7 -0.9 -0.8 -0.6 2.7 -0.8 2.8 -1.4 1 -3.1 -8.4 -3.2 -9.1 -2.2 -10.2 2.6 -2.8 3.6 -4.3 3.6 -5.3 0 -0.5 0.9 -1 2 -1 2 0 2.1 0.5 1.9 10.3 -0.2 9.9 0.8 14.7 3.1 14.7 0.6 0 1 -1.3 1 -3 0 -1.6 0.5 -3 1 -3 1.1 0 1.3 6 0.2 7.6 -0.4 0.5 -2.3 2 -4.3 3.2 l-3.6 2.2 -1.3 -2.5z"/>
  <path d="M66.1 102.3 c0.7 -1 2.9 -3.6 4.9 -5.9 1.9 -2.2 5.5 -6.9 7.9 -10.3 8 -11.2 22.5 -22.8 38.8 -31 7.3 -3.6 7.3 -3.6 7.3 -1.3 0 1.9 -4.5 4.7 -6 3.7 -0.4 -0.3 -1.3 0.2 -2 0.9 -0.6 0.8 -3 2.4 -5.3 3.6 -2.3 1.1 -5.3 3.4 -6.7 4.9 -3 3.4 -6.8 5.6 -9.5 5.6 -1.3 0 -2.6 1.3 -3.7 3.5 -1 1.9 -3.3 4.2 -5.3 5.2 -2.9 1.5 -3.5 2.4 -3.5 4.9 0 2.4 0.4 3 1.5 2.5 1.1 -0.4 1.5 0.1 1.5 1.7 0 1.5 -1.3 2.9 -4.1 4.5 -2.2 1.3 -5.8 3.9 -7.9 5.8 -2.3 2.1 -4.8 3.4 -6.5 3.4 -2.5 0 -2.6 -0.2 -1.4 -1.7z"/>
  <path d="M268 92.6 c0 -0.8 -0.3 -2.3 -0.6 -3.3 -0.6 -1.6 -0.5 -1.6 0.9 0.2 1.9 2.3 2.2 4.5 0.7 4.5 -0.5 0 -1 -0.6 -1 -1.4z"/>
  <path d="M253.2 83.8 c-1.6 -1.6 -1.5 -4.3 0.3 -5.8 0.8 -0.7 1.5 -2.1 1.5 -3.2 0 -1.7 0.3 -1.8 1.5 -0.8 1.1 0.9 1.2 1.6 0.3 3 -0.9 1.4 -0.9 2.2 0 3.3 1.7 2 -1.8 5.3 -3.6 3.5z"/>
  <path d="M241.2 64.5 c-1.8 -1.9 -3.2 -3.7 -3.2 -4 0 -1.4 2.9 -0.2 6.4 2.6 2.8 2.4 3.4 3.4 2.4 4 -2 1.3 -2.2 1.2 -5.6 -2.6z"/>
  <path d="M224.5 53.9 c-1 -1.4 -0.1 -2.1 1.9 -1.3 0.9 0.3 1.3 1 1 1.5 -0.7 1.2 -2.1 1.1 -2.9 -0.2z"/>
  <path d="M132 51 c-0.8 -0.5 -1.2 -1.1 -0.9 -1.4 0.9 -1 16 -4.6 21.7 -5.3 4.7 -0.5 5.2 -0.4 4.6 1.1 -0.5 1.4 -1.6 1.7 -4.8 1.5 -4.2 -0.3 -10.6 1.4 -14.1 3.7 -2.3 1.6 -4.4 1.8 -6.5 0.4z"/>
 </g>
 <g fill="#6b8c61">
  <path d="M78.3 276.7 c-7.3 -3.3 -13.3 -6.3 -13.3 -6.6 0 -0.3 2.1 -1.4 4.8 -2.5 2.6 -1 5.8 -2.6 7.2 -3.5 1.4 -0.9 4.7 -2.6 7.5 -3.7 l4.9 -2.2 5.6 2.5 c3 1.3 7.6 3.4 10.3 4.5 4.3 1.9 4.7 2.3 4.7 5.4 0 1.9 -0.5 3.4 -1.1 3.4 -0.7 0 -4.2 1.7 -7.8 3.8 -3.6 2.1 -7.3 4 -8.1 4.3 -0.8 0.3 -7.5 -2.1 -14.7 -5.4z m13.1 -5.7 c-0.5 -0.5 -2.5 -1.2 -4.4 -1.5 l-3.5 -0.5 3 1.4 c3.5 1.8 6.4 2.1 4.9 0.6z"/>
  <path d="M35.2 264.7 c-2.4 -1.3 -4 -2.6 -3.6 -3 1.5 -1.5 4.1 -0.6 6.9 2.3 3.4 3.5 2.5 3.7 -3.3 0.7z"/>
  <path d="M114 266.1 c0 -0.6 -2.1 -1.6 -4.7 -2.3 -4.5 -1.3 -4.8 -1.6 -5.1 -4.9 -0.3 -3.2 0 -3.8 2.8 -4.9 1.6 -0.7 4.4 -1 6 -0.6 3.3 0.6 4 -0.7 1.3 -2.3 -3.3 -1.9 0.7 -1.2 11.1 2.1 5.5 1.7 10.2 3.2 10.4 3.3 0.1 0.1 0 1 -0.4 1.9 -0.8 2.1 -5.6 4.6 -8.9 4.6 -1.5 0 -2.5 0.6 -2.5 1.4 0 0.8 -0.7 1.7 -1.6 2 -2.5 0.9 -8.4 0.7 -8.4 -0.3z"/>
  <path d="M59 255.5 c0 -0.8 0.8 -1.5 1.8 -1.6 0.9 -0.1 -0.2 -0.5 -2.5 -1.1 -4.2 -0.9 -4.3 -1 -4.3 -4.9 0 -3.7 0.1 -3.9 3.3 -3.9 1.7 0 5 -0.3 7.2 -0.7 3.9 -0.7 3.9 -0.7 1 -1.3 -5.3 -0.9 -4.1 -3.3 3.1 -6.3 3.7 -1.5 6.9 -2.5 7.1 -2.3 0.2 0.2 -1.1 0.9 -2.9 1.7 -3.8 1.5 -6 3.4 -5.1 4.3 1 0.9 3.5 0.7 2.9 -0.3 -0.3 -0.5 2.2 -1.8 5.5 -3 4.9 -1.9 6.6 -2.1 9.1 -1.2 3.9 1.4 5.7 1.4 3.8 0 -1.3 -0.9 -1.3 -1.1 -0.1 -1.6 1 -0.4 0.8 -0.9 -1 -1.9 -2.3 -1.3 -2.2 -1.3 1.7 -1.4 2.7 0 6.1 1 9.6 2.9 3 1.5 6.1 3.1 6.9 3.3 0.8 0.3 1.1 0.8 0.8 1.2 -0.3 0.3 -2.9 -0.1 -5.8 -1 -7 -2 -7.5 -1.2 -0.9 1.6 l5.3 2.2 -3 1.4 c-7.9 3.6 -12.5 5.4 -13.6 5.4 -0.6 0 -0.8 0.7 -0.5 1.6 0.5 1.4 0 1.6 -3.6 1.1 -2.4 -0.2 -5.1 -0.8 -6 -1.2 -1.4 -0.6 -1.8 -0.2 -1.8 1.8 0 2.2 -0.8 2.8 -6.2 4.6 -7.4 2.5 -11.8 2.7 -11.8 0.6z m37.9 -12.9 l6.4 -2.3 -5.1 -1.6 c-6.4 -2.1 -7.5 -2.1 -3.7 0.1 2.9 1.6 2.9 1.7 0.7 2 -1.3 0.2 -3.7 -0.1 -5.4 -0.7 -1.7 -0.6 -4.5 -1 -6.2 -1 -2.7 0.2 -2.8 0.2 -0.6 0.6 1.4 0.2 4 0.9 5.9 1.5 3.2 1 3.3 1.2 1.6 2.4 -2.7 2 -0.9 1.7 6.4 -1z"/>
 </g>
 <g fill="#747496">
  <path d="M94 377.6 c0 -0.8 2 -1.9 4.8 -2.6 2.6 -0.6 7.7 -2 11.4 -3.1 7.2 -2.1 9.8 -2.4 9.8 -1.1 0 0.7 -23.3 8.2 -25.4 8.2 -0.3 0 -0.6 -0.6 -0.6 -1.4z"/>
  <path d="M112.5 346.9 c0.3 -1.7 0 -2 -1.5 -1.6 -1.3 0.3 -2 0 -2 -1 0 -0.8 0.4 -1.1 1 -0.8 0.5 0.3 2.3 -0.1 3.9 -1 1.8 -0.9 5.3 -1.5 8.8 -1.4 l5.8 0.1 -4 1.1 -4 1 4 1.2 4 1.1 -7.2 1.7 c-9.1 2.1 -9.3 2.1 -8.8 -0.4z"/>
  <path d="M51.3 321.1 c-10.6 -3.6 -19.3 -7.1 -19.3 -7.7 0 -1.3 3 -0.4 20.5 5.7 6.1 2.1 12.1 4.1 13.5 4.4 3 0.7 8.2 4.5 6 4.4 -0.8 -0.1 -10.2 -3.1 -20.7 -6.8z"/>
  <path d="M174.5 315.3 c-1.1 -0.3 -3.5 -1.6 -5.4 -3 -3.7 -2.8 -2.9 -4.3 2.3 -4.3 3.7 0 10.6 2.1 10.6 3.2 0 0.4 1.1 0.8 2.5 0.8 3.1 0 3.3 2.5 0.3 3.4 -2.6 0.6 -7.3 0.6 -10.3 -0.1z"/>
  <path d="M77.7 305.6 c-0.3 -0.8 -0.1 -1.6 0.6 -1.9 0.7 -0.2 -1.1 -0.6 -4 -1 -5.5 -0.6 -23.1 -6.2 -24.7 -7.7 -2.5 -2.5 1.3 -1.9 12 2 8.7 3.1 12.7 4.1 15.8 3.8 2.2 -0.3 15.8 -3 30.1 -6.1 36.3 -7.8 40.5 -8.6 41.1 -7.6 0.3 0.5 -0.4 0.9 -1.6 0.9 -1.7 0 -1.9 0.4 -1.4 2.4 0.3 1.3 0.2 2.6 -0.3 2.9 -1.3 0.8 -62.5 13.7 -65 13.7 -1.1 0 -2.3 -0.6 -2.6 -1.4z"/>
  <path d="M155.7 279.9 c-1.8 -1.1 -1.5 -5 0.6 -7.7 2.3 -2.9 4.8 2.8 3.1 7.2 -0.7 1.8 -1.2 1.9 -3.7 0.5z"/>
  <path d="M173 263.5 c-0.8 -0.8 -3.3 -2.1 -5.5 -2.9 -2.6 -1 -3.3 -1.5 -2 -1.6 2.7 -0.2 11.8 -1.7 18.5 -3 3 -0.6 7.5 -1.5 10 -1.9 2.5 -0.5 7.1 -1.6 10.3 -2.4 l5.7 -1.4 0.8 3.1 c0.9 3.4 1.9 3 -11 5.4 -2.6 0.5 -5.3 1.3 -6 1.9 -0.7 0.6 -3.9 1.4 -7.1 1.8 -3.1 0.4 -6 1.1 -6.3 1.6 -0.8 1.4 -5.8 1 -7.4 -0.6z"/>
  <path d="M101.5 236.5 c-9.1 -2.5 -15.1 -5.3 -17.9 -8.4 l-1.9 -2.1 5.9 0 c3.4 0 7.2 0.7 8.9 1.6 1.6 0.8 5.1 2 7.8 2.6 5.1 1.1 6.1 2.1 5.5 6.1 l-0.3 2.4 -8 -2.2z"/>
  <path d="M173.4 69.4 c0.3 -0.9 0.6 -1.8 0.6 -2 0 -0.6 7.2 -0.5 9.8 0.2 1.2 0.4 2.2 1.3 2.2 2 0 1.1 -1.6 1.4 -6.6 1.4 -5.6 0 -6.5 -0.2 -6 -1.6z"/>
 </g>
 <g fill="#8281a6">
  <path d="M70 382 c-1.1 -0.7 0.5 -1 5.3 -1 3.7 0 6.7 -0.4 6.7 -0.8 0 -1 12.6 -4.1 16.3 -4 4.4 0.1 2 1.5 -7.7 4.2 -9 2.7 -17.9 3.3 -20.6 1.6z"/>
  <path d="M129.9 363.6 c-0.2 -0.3 -0.3 -2.5 -0.1 -5 0.4 -4.1 0.7 -4.6 2.8 -4.6 2.1 0 2.4 0.5 2.4 3.6 0 2.8 -0.3 3.5 -1.5 3 -1 -0.4 -1.5 0.1 -1.5 1.4 0 1.8 -1.1 2.6 -2.1 1.6z"/>
  <path d="M27.1 312.5 c-3 -1.4 -5.2 -2.8 -4.9 -3 0.7 -0.7 11.7 3 13.1 4.4 2 2 -2.5 1.2 -8.2 -1.4z"/>
  <path d="M179 314.2 c0 -1.2 -6.7 -3.1 -8.9 -2.5 -4 1 -9.1 -10.2 -9.1 -20.1 0 -6.5 0.9 -9.6 2.6 -9.6 1 0 1.4 1.6 1.4 6.1 0 5.5 0.3 6.3 3 8.6 1.8 1.5 3 3.4 3 4.9 0 2.6 2.6 4.4 6.3 4.4 1.3 0 3.4 1.1 4.7 2.5 1.3 1.4 2.9 2.5 3.7 2.5 0.7 0 1.3 0.9 1.3 2 0 1.7 -0.7 2 -4 2 -2.2 0 -4 -0.4 -4 -0.8z"/>
  <path d="M71.6 302.2 c-0.4 -0.6 1.6 -1.2 5.1 -1.4 6 -0.4 7.1 -0.3 6 0.8 -1.2 1.2 -10.4 1.7 -11.1 0.6z"/>
  <path d="M40.5 292.5 c-23 -7.9 -24.8 -8.7 -23.3 -10.2 0.8 -0.7 3 -1.5 4.9 -1.7 1.9 -0.2 2.5 -0.1 1.4 0.1 -4.9 1.1 -2.7 2.4 12.4 7.4 8.8 2.9 16.3 5.9 16.5 6.6 0.7 1.9 -0.7 1.6 -11.9 -2.2z"/>
  <path d="M174.5 266 c-0.8 -1.6 -2.5 -3.4 -3.6 -4.1 -3.1 -1.6 -1.4 -2.4 2.1 -0.9 2.3 1 3.3 1 4.5 0 0.8 -0.6 3.8 -1.4 6.7 -1.7 2.9 -0.3 5.9 -1 6.6 -1.6 1.4 -1.1 7.9 -2.6 15.4 -3.4 4.4 -0.5 4.8 -0.3 5.3 2 1.2 4.5 0.3 6.1 -4 7 -5.7 1.2 -14.7 3.8 -16.7 4.8 -1 0.5 -4.7 0.9 -8.3 0.9 -6.1 0 -6.5 -0.1 -8 -3z"/>
  <path d="M169 248 c-13.1 -0.8 -37.2 -4.1 -47.5 -6.5 -14.3 -3.3 -15.3 -3.6 -15.1 -5.3 0.1 -1.2 -1.3 -2 -4.8 -2.9 -2.7 -0.7 -6.4 -1.9 -8.2 -2.8 -1.7 -0.8 -4.5 -1.5 -6.1 -1.5 -1.6 0 -4.1 -1.2 -5.7 -2.7 -2.9 -2.4 -2.9 -2.6 -1.1 -3.9 2.7 -2 5.9 -1.7 15 1.2 4.4 1.3 11.3 2.9 15.3 3.3 5.5 0.7 7.6 1.4 9 3 1.3 1.7 3.5 2.5 9.2 3.2 4.1 0.6 8.9 1.4 10.5 1.9 1.7 0.5 8.4 1.4 15 2 6.6 0.6 15.2 1.5 19 2.1 7.5 1 34.1 1.2 41.5 0.3 2.5 -0.3 6.1 -1.5 8 -2.6 2.3 -1.4 6.1 -2.2 11.3 -2.6 7.9 -0.5 7.9 -0.5 7.5 1.9 -0.3 2.1 -1.7 2.9 -11.3 6 -17.1 5.7 -36.2 7.5 -61.5 5.9z"/>
  <path d="M282 146.5 c0 -8.3 0.3 -10.5 1.4 -10.5 1.8 0 2.6 3.1 2.6 10.5 0 7.4 -0.8 10.5 -2.6 10.5 -1.1 0 -1.4 -2.2 -1.4 -10.5z"/>
  <path d="M179 84.5 c0 -3.6 1.3 -4.7 2.4 -2 0.3 0.8 1.6 1.5 2.8 1.5 3.9 0 6.8 1.2 6.8 2.6 0 1 -1.6 1.4 -6 1.4 l-6 0 0 -3.5z"/>
 </g>
 <g fill="#8eb480">
  <path d="M76.5 275.9 c-6 -2.7 -11.3 -4.9 -11.7 -4.9 -0.4 0 -0.8 0.7 -0.8 1.5 0 0.8 -0.4 1.5 -1 1.5 -0.5 0 -1 -0.9 -1 -2 0 -3.9 4.1 -3.4 16.4 1.9 l11.8 5 8.5 -4.2 8.5 -4.3 -7.6 -3.4 c-9.2 -4 -9.5 -5.2 -0.4 -1.6 9.7 3.9 10.1 3.1 0.7 -1.6 -4.6 -2.4 -8.5 -4.8 -8.6 -5.4 -0.4 -1.2 12.6 -7.9 13.5 -7 0.2 0.3 -1.3 1.5 -3.4 2.8 -5.1 3 -2.1 3.7 3.5 0.9 2.2 -1.2 5.1 -2.1 6.3 -2.1 3.4 0.1 13.3 4.5 13 5.9 -0.3 1.4 0.7 1.4 3.5 -0.2 2 -1.1 1.4 -1.5 -7.8 -5.1 -5.5 -2.1 -9.8 -4.1 -9.5 -4.3 0.9 -0.9 15.8 4 16.3 5.4 0.3 0.7 1.8 1.3 3.4 1.3 3.3 0 3.6 0.7 1.2 2.6 -1.1 0.8 -1.3 1.3 -0.5 1.4 2.9 0 0.8 1.9 -5.8 5.1 -3.8 1.9 -6.9 4 -7 4.7 0 1.4 -2.6 1.6 -3.5 0.2 -1.3 -2.2 -2.5 -0.8 -2.5 2.9 0 2.5 -0.5 4.1 -1.5 4.5 -1 0.4 -1.5 -0.1 -1.5 -1.5 0 -1.3 -0.5 -1.9 -1.2 -1.6 -4.8 1.9 -5.1 2 -4.4 0.9 1.2 -1.9 -0.5 -1.4 -7.4 2.3 -3.5 1.9 -6.9 3.5 -7.5 3.4 -0.5 0 -5.9 -2.3 -12 -5z m43 -12.5 c1.1 -0.5 0.1 -1.4 -3.7 -3.1 -4.6 -2.2 -5 -2.6 -3.3 -3.4 1.6 -0.7 1.2 -0.8 -1.5 -0.6 -5.2 0.3 -4.5 2.8 1.3 4.5 2.6 0.7 4.7 1.7 4.7 2.3 0 1.1 0.3 1.1 2.5 0.3z"/>
  <path d="M124.1 280.6 c1.3 -1.2 8.2 -4.6 9.4 -4.6 3.1 0 1.3 1.9 -3.2 3.4 -4.5 1.5 -7.1 2 -6.2 1.2z"/>
  <path d="M81.5 273.1 c-14.2 -5 -13.7 -4.6 -8.5 -7 2.5 -1.2 6.5 -3.3 9 -4.6 5.3 -2.8 7 -3.1 7 -0.9 0 1.1 -0.6 1.4 -2 0.9 -1.1 -0.4 -2 -0.2 -2 0.4 0 0.6 -0.4 1.1 -0.9 1.1 -1.3 0 -8.3 4.2 -7.8 4.6 0.2 0.2 2.3 -0.2 4.5 -1 3.7 -1.3 4.9 -1.3 9.8 0 3 0.8 6.7 2 8.1 2.8 l2.6 1.3 -4.5 2.7 c-2.5 1.4 -5.1 2.6 -5.9 2.5 -0.8 0 -5 -1.3 -9.4 -2.8z"/>
  <path d="M56.8 258.2 c-0.1 -0.5 -3.2 -2.4 -6.7 -4.2 -7.3 -3.7 -14.3 -8.1 -13.7 -8.7 0.7 -0.7 16.9 -4.4 17.9 -4 0.5 0.1 -2.3 1.1 -6.3 2.1 -8.3 2.2 -8.2 2.4 2.3 8.1 l6.8 3.7 8.7 -2.7 8.7 -2.7 -3.5 -1.9 c-4.3 -2.2 -5.1 -2.3 -4.4 -0.5 0.9 2.3 -1.3 2.8 -4.5 1.1 -3.3 -1.7 -5.1 -1.9 -5.1 -0.7 0 0.4 1.4 1.3 3.1 1.9 3.7 1.4 3 3.3 -1.2 3.3 -5.4 0 -12.8 -5.2 -10.8 -7.6 1.2 -1.5 7.2 -2.9 10.4 -2.6 1.7 0.2 1.6 0 -0.5 -1.2 -2.3 -1.4 -2.3 -1.5 -0.5 -1.7 1.1 -0.1 2.8 0 3.9 0.1 1 0.1 2.2 -0.4 2.6 -1 0.6 -0.9 1.3 -0.9 2.6 -0.1 1.8 1 1.8 1 -0.1 1.1 -1.9 0.1 -1.8 0.2 0.3 1.2 1.2 0.6 2.5 2.1 2.8 3.3 0.4 1.7 1.1 2 3.7 1.7 4.4 -0.5 8.7 1.3 8.7 3.7 0 1.9 -2.3 4.5 -3.2 3.6 -0.4 -0.4 -8.6 1.7 -20 5.1 -0.9 0.3 -1.8 0.1 -2 -0.4z"/>
  <path d="M84 247.9 c0 -1.1 0.4 -1.8 0.8 -1.5 0.5 0.3 4.4 -0.8 8.6 -2.5 4.3 -1.7 8.3 -2.8 8.9 -2.6 0.6 0.2 -2.4 1.6 -6.6 3.3 -4.9 1.8 -7.5 3.4 -7.2 4.2 0.3 0.7 -0.5 1.2 -2 1.2 -1.9 0 -2.5 -0.5 -2.5 -2.1z"/>
  <path d="M70.9 234.9 c2.4 -1.1 4.6 -1.8 4.8 -1.5 0.4 0.4 -7.3 3.6 -8.5 3.5 -0.4 0 1.3 -0.9 3.7 -2z"/>
 </g>
 <g fill="#8f8fb1">
  <path d="M114.5 372.1 c0.3 -0.5 2.9 -1.7 5.8 -2.7 2.8 -0.9 5.8 -2.2 6.6 -2.8 1 -0.8 1.3 -0.6 1 0.9 -0.3 1.3 -2.1 2.4 -6.4 3.7 -6.9 2 -7.8 2.2 -7 0.9z"/>
  <path d="M82 350.2 c0 -1.1 9.7 -4.1 14.7 -4.6 2.1 -0.3 5.1 -0.9 6.6 -1.5 3 -1.2 9.7 -1.1 9.7 0.2 0 0.4 -0.2 0.7 -0.3 0.7 -0.2 0 -7.1 1.4 -15.2 3 -17 3.4 -15.5 3.2 -15.5 2.2z"/>
  <path d="M123 342.1 c0 -1.5 6.2 -3.3 8.8 -2.5 2.3 0.6 2.4 0.8 0.7 1.1 -1.1 0.3 -3.7 0.8 -5.7 1.3 -2.1 0.4 -3.8 0.5 -3.8 0.1z"/>
  <path d="M76 328.1 c0 -0.5 1.4 -1.2 3 -1.5 1.7 -0.3 4.4 -0.9 6 -1.2 4.7 -0.9 3.5 1.2 -1.4 2.5 -5.4 1.3 -7.6 1.4 -7.6 0.2z"/>
  <path d="M182.5 314.1 c-1.1 -0.5 -2.9 -1.8 -3.9 -3 -1.1 -1.1 -3 -2.1 -4.3 -2.1 -3.7 0 -6.3 -1.8 -6.3 -4.4 0 -2.8 -4.5 -7.4 -5.3 -5.4 -0.3 0.7 -0.6 -1.3 -0.6 -4.4 -0.1 -5.2 0.1 -5.8 2 -5.8 3.2 0 8.9 4.9 8.9 7.7 0 1.5 1.2 3.5 3.1 5.1 5 4.3 6 4.7 12.9 5.2 5.2 0.4 6.5 0.9 6.8 2.3 0.3 1.2 -0.9 2.3 -4 3.7 -4.7 2.1 -6.2 2.3 -9.3 1.1z"/>
  <path d="M178.7 243.9 c-2 -1.2 -21 -3.8 -27.2 -3.8 -2.2 0.1 -6.5 -0.4 -9.5 -1.1 -3 -0.6 -7.3 -1.3 -9.5 -1.5 -8.1 -0.7 -14 -2.5 -15.9 -4.7 -1.4 -1.8 -2.9 -2.3 -7 -2.4 -2.8 0 -5.8 -0.4 -6.6 -0.7 -6.8 -2.7 -18 -5.3 -19.4 -4.5 -2.2 1.2 -4.7 -0.3 -9.3 -5.9 -5.5 -6.6 -9.5 -13.7 -8.4 -14.9 1.3 -1.2 4.1 -17.7 4.1 -23.6 0 -4.6 0.1 -4.8 3 -4.8 2 0 3.3 0.7 4.1 2.2 0.6 1.2 2.2 3.2 3.5 4.5 1.3 1.3 2.4 3.1 2.4 3.9 0 0.8 1.8 3.4 4 5.6 2.2 2.3 4 4.6 4 5.2 0 2.4 3.7 8.6 5.1 8.6 2.1 0 7.2 6.6 7.9 10 0.3 1.6 1.3 2.6 2.7 2.8 1.3 0.2 4.9 1.9 8 3.8 10.9 6.5 30.3 10.9 60 13.4 22 1.9 45.5 -0.7 59.4 -6.6 5.5 -2.3 7 -2.5 13.1 -1.9 3.7 0.4 6.8 1.1 6.8 1.6 0 0.9 -4.6 4.5 -10.4 7.9 -2.9 1.8 -4 2 -4.6 1 -1.1 -1.8 -9.1 -0.4 -13.8 2.3 -4 2.4 -4.6 2.5 -25.2 3.1 -8 0.2 -15.6 0.7 -17 1 -1.4 0.4 -3.3 0.1 -4.3 -0.5z"/>
  <path d="M246.4 136.5 c-9 -4.8 -17.9 -6.1 -32.9 -4.6 -19.5 1.8 -28.5 1.5 -46.2 -2 -10.7 -2.1 -19.1 -3.2 -26 -3.3 l-10.3 -0.1 0 -3 c0 -5.6 0.6 -5.8 14.1 -5.2 6.8 0.3 19.4 1.7 27.9 3.2 11.8 2 18 2.6 26 2.3 5.8 -0.2 17.7 -0.3 26.5 -0.3 14.1 0.1 16.8 0.3 22.8 2.4 3.8 1.3 7.1 2.9 7.4 3.7 0.9 2.3 -0.7 10.4 -2 10.3 -0.7 0 -4 -1.6 -7.3 -3.4z"/>
 </g>
 <g fill="#c0b262">
  <path d="M107 290.1 c0 -0.5 1 -1.6 2.3 -2.4 1.5 -1.1 1.7 -1.6 0.7 -1.6 -1.2 -0.1 -1.4 -1.4 -1.2 -7.2 0.3 -5.9 0.1 -7.3 -1.4 -8.4 -1.6 -1.1 -1.5 -1.4 1.7 -3.1 1.9 -1 4.6 -1.8 6 -1.9 2.5 0 2.6 0.2 2.8 6 0.1 3.3 0.4 6.8 0.7 7.7 0.3 1.2 -0.5 2.2 -2.5 3.3 -3.7 1.9 -4 2.8 -0.6 1.9 1.9 -0.5 2.5 -0.2 2.5 1 0 1 0.9 1.6 2.3 1.7 1.4 0 0.4 0.7 -2.8 1.9 -5.4 2 -10.5 2.5 -10.5 1.1z"/>
  <path d="M54.3 285.7 c-3.5 -1.3 -5.3 -2.7 -3.4 -2.7 1.6 0 8.1 2.8 8.1 3.4 0 0.8 -1 0.6 -4.7 -0.7z"/>
  <path d="M57.3 274.6 c-4.5 -1.7 -5 -2.4 -1.7 -3.1 1.6 -0.3 4.4 -1 6.2 -1.5 2.8 -0.7 3.3 -0.6 2.8 0.7 -0.3 0.8 -0.6 2.3 -0.6 3.4 0 2.1 -1.8 2.3 -6.7 0.5z"/>
  <path d="M79 252.6 c0 -0.9 -0.7 -1.9 -1.5 -2.2 -2.2 -0.9 -1.8 -2.2 1.2 -3.7 2 -1.1 3.4 -1.2 5.9 -0.4 4.8 1.5 5 3.4 0.6 4.8 -2 0.6 -4.3 1.6 -4.9 2.2 -0.9 0.7 -1.3 0.5 -1.3 -0.7z"/>
 </g>
 <g fill="#a39ebd">
  <path d="M123 370.1 c0 -0.5 0.7 -1.1 1.5 -1.5 2.6 -1 5.5 -6.9 5.5 -11.2 0 -4.1 1.8 -6.2 4.1 -4.8 1.4 0.9 1 4.1 -0.6 4.8 -0.8 0.3 -1.5 1.7 -1.5 3.1 0 4 -2.6 8.2 -6 9.3 -1.6 0.6 -3 0.7 -3 0.3z"/>
  <path d="M73.3 351 c1.1 -0.7 4.7 -1.4 8 -1.7 4.7 -0.3 5.8 -0.2 4.5 0.6 -0.9 0.6 -4.5 1.4 -8 1.7 -5 0.4 -5.9 0.3 -4.5 -0.6z"/>
  <path d="M113 343 c2.1 -1.1 5.5 -1.9 8.4 -2 6.3 0 5.4 0.9 -2.6 2.6 -8.5 1.8 -9.9 1.7 -5.8 -0.6z"/>
  <path d="M83.2 326.4 c0.8 -0.7 15.3 -3.9 24.8 -5.4 4.1 -0.7 9.8 -1.8 12.5 -2.5 2.8 -0.7 7.5 -1.6 10.5 -1.9 3 -0.3 6.5 -0.9 7.8 -1.2 1.2 -0.4 2.2 -0.2 2.2 0.4 0 0.6 -1.9 1.3 -4.2 1.7 -6.9 1.1 -34.7 6.3 -42.6 7.9 -7.5 1.6 -12 2 -11 1z"/>
  <path d="M192.5 311 c-0.3 -0.5 -3.2 -1 -6.3 -1 -3.1 -0.1 -6.6 -0.6 -7.8 -1.3 -4.8 -2.7 -8.4 -6.6 -8.4 -9 0 -2.9 -6.5 -8.6 -7.3 -6.4 -0.3 0.6 -0.6 -1.6 -0.6 -5 -0.1 -5.9 0 -6.3 2.2 -6.3 1.2 0 3.2 -0.3 4.5 -0.6 1.6 -0.5 2.2 -0.2 2.2 1 0 1.9 5.8 7.6 7.7 7.6 0.7 0 1.6 1.2 1.9 2.6 0.8 3.1 7.3 7.4 11.2 7.4 7 0 12.2 1.3 12.2 2.9 0 1.9 -4.2 6.2 -7.7 8 -2.7 1.4 -3 1.4 -3.8 0.1z"/>
  <path d="M176 271.3 c0 -1 -0.3 -2.7 -0.6 -3.8 -0.5 -1.8 -0.1 -2 4.7 -1.6 2.8 0.1 6.1 -0.1 7.3 -0.7 4.3 -1.9 23.4 -6.8 24.1 -6.1 0.2 0.2 0.6 2 1 4 0.6 3.5 0.5 3.6 -2.5 4.3 -1.8 0.3 -5 0.6 -7.1 0.6 -2.1 0 -7.3 1.1 -11.5 2.5 -9.3 3 -15.4 3.3 -15.4 0.8z"/>
  <path d="M197 236.6 c0 -1.8 3.1 -2.6 10.3 -2.6 5 0 5.7 0.2 5.7 2 0 1.8 -0.7 2 -8 2 -6.1 0 -8 -0.3 -8 -1.4z"/>
  <path d="M247 230.9 c-2.5 -0.3 -4.8 -0.5 -5.2 -0.2 -0.5 0.2 -0.8 -0.7 -0.8 -2 0 -1.7 1.1 -3.2 3.9 -5 2.1 -1.4 5.8 -4.9 8.1 -7.6 3.5 -4.1 4.9 -5.1 7.4 -5.1 3.4 0.1 6.6 2 6.6 4 0 1.7 -7.4 10.4 -11.8 13.8 -3.3 2.5 -4.2 2.7 -8.2 2.1z"/>
  <path d="M107.7 223.2 c-0.5 -0.7 -1.6 -1.1 -2.5 -0.8 -2.5 0.8 -6.7 -3 -5.3 -4.7 0.8 -1 0.7 -1.7 -0.1 -2.5 -0.9 -0.9 -0.5 -1.2 1.8 -1.2 4.1 0 7.7 3.8 7.2 7.6 -0.2 2 -0.6 2.5 -1.1 1.6z"/>
  <path d="M96.2 210.8 c-0.7 -0.9 -2.1 -1.4 -3.2 -1.1 -1.5 0.4 -2 0 -2 -1.4 0 -1.1 -0.7 -2.8 -1.5 -3.9 -0.8 -1 -1.5 -2.6 -1.5 -3.4 0 -0.9 -1.9 -3.6 -4.2 -6 -2.3 -2.4 -4.3 -5.2 -4.3 -6.2 -0.1 -1 -1.1 -2.6 -2.2 -3.5 -1.1 -1 -2.5 -2.8 -3.2 -4 -0.6 -1.3 -1.6 -2.3 -2.1 -2.3 -0.6 0 -1.1 1 -1.2 2.3 -0.1 1.2 -0.4 -5.2 -0.8 -14.3 -0.4 -9.1 -1.1 -17.7 -1.5 -19.2 -0.7 -2.6 -0.5 -2.8 2.3 -2.8 2.5 0 3.2 0.6 4.1 3.1 0.6 1.8 1.1 4.6 1.1 6.3 0.1 1.7 1.1 4.2 2.3 5.6 3.1 3.6 9.3 8 11.1 8 1.3 0 1.6 1.3 1.6 7.3 0 9.3 1.5 17.5 4.7 25.4 2.6 6.7 3 13 0.5 10.1z"/>
  <path d="M263.9 163.7 c-2 -10 -5 -16.7 -10.1 -22.1 -2.2 -2.2 -3.5 -4.2 -3 -4.4 0.6 -0.2 0.8 -1.2 0.5 -2.2 -0.3 -1.3 0 -2 0.8 -2 0.9 -0.1 0.7 -0.6 -0.5 -1.5 -1.8 -1.4 -1.7 -1.5 2.2 -1.5 3.7 0 4.8 0.6 8.6 4.4 4.2 4.2 4.4 4.7 4.9 11.2 0.2 3.8 1.2 8.9 2.1 11.4 1.3 3.3 1.6 5.9 1.1 9.8 -0.6 4.5 -0.9 5.2 -2.8 5.2 -2 0 -2.4 -0.9 -3.8 -8.3z"/>
  <path d="M112.6 134.2 c-0.3 -0.3 -0.6 -2.5 -0.6 -4.9 0 -3.9 0.2 -4.3 2.4 -4.3 1.8 0 2.5 -0.6 2.8 -2.2 0.4 -2.8 6.2 -4.6 15.1 -4.7 4.4 -0.1 5.7 0.2 5.7 1.4 0 0.8 -0.6 1.5 -1.4 1.5 -1.2 0 -2.6 2 -2.6 3.6 0 0.2 3 0.5 6.8 0.5 l6.7 0.2 -8.5 0.8 c-9.9 0.8 -17.3 2.9 -22.3 6.3 -1.9 1.3 -3.8 2.2 -4.1 1.8z"/>
  <path d="M175 102.1 c-0.5 -1.1 -1 -4.7 -1 -8 0 -5.4 0.2 -6.1 2 -6.1 1.8 0 2 0.7 2 8 0 7.9 -0.9 9.8 -3 6.1z"/>
  <path d="M179 96.5 l0 -7.5 3.5 0 c2.4 0 3.5 0.5 3.5 1.5 0 0.8 -0.7 1.5 -1.5 1.5 -1.1 0 -1.5 1.2 -1.5 4.4 0 5.4 -0.8 7.6 -2.6 7.6 -1.1 0 -1.4 -1.8 -1.4 -7.5z"/>
  <path d="M185 70 c0 -1.7 0.7 -2 4.8 -2 6.1 0 9.2 0.9 9.2 2.6 0 1.1 -1.7 1.4 -7 1.4 -6.3 0 -7 -0.2 -7 -2z"/>
 </g>
 <g fill="#68d5e2">
  <path d="M172.4 214.1 c-1.7 -1 -3.6 -3.3 -4.2 -5 -0.6 -1.7 -0.9 -3.1 -0.7 -3.1 0.2 0 2.5 1.1 5.1 2.5 3.8 2 6.1 2.5 11.8 2.5 4.3 -0.1 8.1 -0.6 9.6 -1.5 3.3 -1.9 4 -1.8 4 0.3 0 4.1 -3.6 5.7 -13.4 6 -7.6 0.2 -9.6 0 -12.2 -1.7z"/>
  <path d="M215.9 204.7 c-7.7 -5.2 -11.2 -19.4 -7.4 -30.7 2.3 -7 9.4 -14.4 15.3 -15.9 8 -2.2 16 2.3 19.6 11.1 2.3 5.3 2.1 18.1 -0.3 23.4 -2.3 5 -7.5 11 -11.2 13 -4.4 2.2 -12 1.8 -16 -0.9z m14 -3.2 c10 -5.1 14.2 -22.7 7.7 -32.5 -9.3 -14 -28.5 0.1 -26.3 19.2 1.4 11.2 10.3 17.6 18.6 13.3z"/>
  <path d="M230.2 180.8 c-2.5 -2.5 -0.8 -7.8 2.5 -7.8 0.7 0 1.9 1.1 2.5 2.5 0.9 2.1 0.8 2.8 -0.7 4.5 -2.1 2.3 -2.7 2.4 -4.3 0.8z"/>
  <path d="M131.4 202.1 c-9.2 -5.6 -13 -21 -8.3 -33.6 7.3 -19.6 27.9 -22.3 36.5 -4.8 2.5 4.9 2.9 7 2.9 13.9 0 7 -0.4 8.8 -3 14 -4.3 8.4 -10.4 12.4 -18.9 12.4 -4.2 0 -7.1 -0.6 -9.2 -1.9z m15.9 -5.5 c13 -5.5 14.8 -28.4 2.8 -36.3 -12.9 -8.6 -27.7 8.7 -22.6 26.3 2.3 7.9 5.9 11.4 12 11.4 2.5 0 6 -0.6 7.8 -1.4z"/>
  <path d="M146.2 176.8 c-1.7 -1.7 -1.5 -4.2 0.7 -6.2 2.3 -2.1 4.9 -1.2 5.7 2 1.1 4.2 -3.4 7.2 -6.4 4.2z"/>
 </g>
 <g fill="#b7b0c8">
  <path d="M201 305.8 c0 -1.7 -7.6 -3.2 -11.4 -2.2 -3.1 0.7 -11.2 -4.7 -12 -8.1 -0.4 -1.4 -1.2 -2.5 -1.9 -2.5 -2 -0.1 -6.5 -4.3 -7.6 -7.2 -1.3 -3.5 -4.8 -3.8 -5.4 -0.5 -0.4 1.9 -0.4 1.8 -0.6 -0.5 -0.1 -2.4 0.3 -2.8 2.4 -2.8 5.7 0 11.5 -5.5 11.5 -10.9 0 -1.4 0.5 -1.8 2 -1.4 1 0.3 5.6 -0.6 10.2 -2.1 4.6 -1.4 10.9 -2.7 14.1 -3 l5.7 -0.5 0 3.5 c0 2.9 -0.3 3.4 -2.4 3.4 -1.3 0 -2.9 0.7 -3.6 1.5 -0.7 0.9 -2.9 1.5 -5.1 1.5 -2.1 0 -4.1 0.5 -4.4 1 -0.3 0.6 -2.2 1 -4.1 1 -3.2 0 -3.4 0.2 -3.4 3.5 0 2.7 0.4 3.5 1.8 3.5 1 0 2.5 0.9 3.5 2 0.9 1.1 2.5 2 3.5 2 0.9 0 2.9 1.1 4.4 2.4 1.9 1.8 3.9 2.6 7.7 2.8 l5.2 0.3 -2.6 5.1 c-2.8 5.7 -7.5 10.8 -7.5 8.2z"/>
  <path d="M175.3 238.8 c-2.2 -0.7 -3.3 -1.7 -3.3 -3 0 -1.8 0.5 -1.9 6.8 -1.4 3.7 0.3 10.6 0.9 15.5 1.2 6.1 0.4 8.7 1 8.7 1.9 0 0.7 -1 1.5 -2.2 1.9 -3.7 0.9 -22 0.5 -25.5 -0.6z"/>
  <path d="M263.5 218 c-0.3 -0.5 -0.3 -1 0.1 -1 0.4 0 -0.1 -0.6 -1.2 -1.4 -1.3 -1 -2.3 -1.1 -3.1 -0.4 -2.3 1.8 -1.5 -5.3 1 -9.7 2.5 -4.4 6.2 -5.7 10.4 -3.4 3.2 1.7 2.9 3.6 -1.7 10.7 -4.1 6.5 -4.5 6.8 -5.5 5.2z"/>
  <path d="M261.5 195.1 c1.8 -5.7 3.5 -16.6 3.6 -23.1 0.1 -5.3 0.3 -6.8 0.9 -5 0.8 2.5 0.8 2.5 1 -0.5 0.3 -4.4 0 -6.7 -1.5 -9.6 -0.8 -1.4 -1.6 -5.6 -1.8 -9.3 l-0.4 -6.7 2.6 0.3 c2.1 0.2 3 1.3 5.1 6.3 2.2 5.4 2.5 7.7 2.8 22.5 l0.4 16.5 -2.7 2.9 c-1.5 1.6 -3.1 3.9 -3.6 5.2 -0.6 1.8 -1.6 2.4 -3.9 2.4 -2.6 0 -3 -0.3 -2.5 -1.9z"/>
  <path d="M88 172.9 c0 -1.1 -0.4 -1.8 -0.8 -1.5 -1.2 0.7 -9.4 -5.3 -12.7 -9.3 -2.1 -2.4 -3 -2.9 -3.6 -1.9 -0.6 0.9 -0.9 0.6 -0.9 -0.9 0 -1.3 0.4 -2.3 0.9 -2.3 1.6 0 2 -2.9 1 -6 -0.6 -1.6 -1.6 -3 -2.3 -3 -0.9 0 -3.4 -9.2 -4 -15 -0.2 -2.5 7.6 -2.6 9.9 0 1 1.1 2.6 2 3.6 2 2.2 0 3.9 2.9 3.9 6.7 0 1.7 0.8 3.3 2 4.1 1.1 0.7 2 2.3 2 3.6 0 1.8 0.9 2.8 3.1 3.8 l3.1 1.3 -0.5 7.6 c-0.6 8 -2 12.9 -3.7 12.9 -0.5 0 -1 -0.9 -1 -2.1z"/>
  <path d="M281 159 c0 -4.3 0.3 -5 2 -5 1.5 0 2 0.7 2 2.8 0 4.2 -1.1 7.2 -2.6 7.2 -1 0 -1.4 -1.4 -1.4 -5z"/>
  <path d="M106.3 139.3 c-1.8 -0.6 -1.6 -6.3 0.2 -10.7 1.8 -4.2 7.5 -7.6 12.9 -7.6 4 0 5.6 1.5 2.5 2.3 -1.2 0.3 -1.8 1 -1.4 1.7 1.1 1.7 -1.3 3.9 -3.7 3.2 -1.8 -0.4 -2 -0.2 -1.5 2 0.5 2 -0.1 3 -3.6 5.9 -2.3 2 -4.8 3.4 -5.4 3.2z"/>
  <path d="M59.9 111.3 c1.1 -2.2 2.7 -4.5 3.6 -5.3 1.5 -1.2 1.6 -0.9 1.3 3.6 -0.3 4.7 -0.4 4.9 -3.6 5.2 l-3.3 0.3 2 -3.8z"/>
 </g>
 <g fill="#b6d7a5">
  <path d="M86.5 280 c-0.3 -0.5 0.3 -1 1.5 -1 1.1 0 4.8 -1.4 8.1 -3.1 8.3 -4.1 8.6 -3 0.4 1.5 -6.8 3.7 -9 4.3 -10 2.6z"/>
  <path d="M114 267.4 c0 -0.8 0.7 -1.4 1.5 -1.4 0.8 0 1.5 -0.4 1.5 -0.9 0 -0.5 0.9 -1.3 2.1 -1.6 1.8 -0.6 1.3 -1.1 -3.3 -3.2 -3.2 -1.5 -4.7 -2.7 -3.8 -3 0.8 -0.2 2.4 -0.9 3.6 -1.5 2.4 -1.1 10 1.5 8.9 3.2 -0.9 1.4 0.5 1.2 3.5 -0.5 1.7 -1 2 -1.4 0.9 -1.5 -1.7 0 -7.1 -3.9 -5.6 -4 0.5 0 3.4 0.7 6.4 1.6 l5.4 1.6 -7.5 4.3 c-4.1 2.3 -8.2 4.5 -9.1 4.9 -0.9 0.3 -1.4 1 -1.1 1.5 0.3 0.5 -0.3 1.1 -1.4 1.4 -1.3 0.3 -2 0 -2 -0.9z"/>
 </g>
 <g fill="#c5bfd4">
  <path d="M82 381 c4.7 -1 10.6 -2.6 13.3 -3.4 2.6 -0.8 4.7 -1.1 4.7 -0.7 0 1.3 -15 5.4 -21 5.7 -5.2 0.3 -5.1 0.3 3 -1.6z"/>
  <path d="M208 296.1 c0 -0.9 -1.2 -1 -4.3 -0.6 -3.8 0.6 -4.6 0.3 -7.7 -2.4 -1.9 -1.7 -4.3 -3.1 -5.2 -3.1 -1 0 -2.6 -1 -3.7 -2.1 -1.1 -1.2 -2.7 -1.9 -3.5 -1.6 -2.1 0.8 -4.3 -2 -2.8 -3.5 1.9 -1.9 1.4 -3.7 -1.1 -4.3 -3.1 -0.8 -4.4 -3.4 -3.6 -7 l0.7 -3 0.1 2.9 c0.1 2.3 0.4 2.6 1.5 1.7 0.8 -0.7 2.9 -0.9 5.4 -0.5 2.9 0.4 4.7 0.2 6.3 -0.9 1.3 -1 3.3 -1.4 4.9 -1.1 1.7 0.4 3.1 0 3.9 -1 0.8 -0.9 2.4 -1.6 3.6 -1.6 1.4 0 2.5 -0.7 2.8 -2 0.3 -1.4 1.4 -2 3.1 -2 2 0 2.6 -0.5 2.7 -2.2 0 -2.2 0.1 -2.2 0.9 -0.3 1.5 3.4 1.1 21.6 -0.6 28 -1.4 5.7 -3.4 9.5 -3.4 6.6z"/>
  <path d="M205 237 c0 -1.8 0.7 -2 6 -2 4.4 0 6 0.4 6 1.4 0 1.6 -3 2.6 -8.2 2.6 -3.1 0 -3.8 -0.4 -3.8 -2z"/>
  <path d="M248 219.6 c0 -0.3 2.4 -4 5.3 -8.4 2.9 -4.3 5.9 -9.8 6.7 -12.1 0.7 -2.3 2.2 -4.7 3.2 -5.2 1 -0.5 1.8 -1.5 1.8 -2.3 0 -1.4 6.1 -8.6 7.3 -8.6 0.4 0 0.7 2 0.7 4.4 0 3.7 0.4 4.6 2.1 5.1 2.5 0.8 2.2 3.3 -1.1 10.8 l-2.1 4.8 -2.8 -2.1 c-3.2 -2.2 -3.6 -2 -6.6 4 -3.7 7.2 -6.7 10 -10.7 10 -2.1 0 -3.8 -0.2 -3.8 -0.4z"/>
  <path d="M93.3 164.3 c-0.7 -0.2 -1.3 -1.3 -1.3 -2.4 0 -1 -0.4 -1.9 -1 -1.9 -0.5 0 -1 -0.6 -1 -1.3 0 -0.6 -1.3 -1.8 -2.9 -2.5 -2.1 -0.9 -3.1 -2.1 -3.3 -4 -0.2 -1.6 -1.2 -3.1 -2.5 -3.7 -2.2 -0.9 -3.7 -5.1 -2.2 -6.1 1.4 -0.8 -1 -4.4 -2.8 -4.4 -0.9 0 -2.7 -1 -4.1 -2.2 -2.3 -2.3 -2.4 -2.3 -3.8 -0.4 -1.7 2.4 -1.5 2.6 -4.3 -5.3 -2.9 -7.9 -2.3 -13.1 1.4 -13.1 1.3 0 3.8 -1.2 5.5 -2.7 2.3 -1.9 4.6 -2.8 8.4 -3.1 l5.1 -0.4 1.3 4.1 c0.6 2.2 1.2 5.5 1.2 7.3 0 2.5 0.6 3.6 2.3 4.3 1.6 0.7 2.3 2.1 2.8 5.3 1 7.4 2.3 7.4 8.5 0.4 4.9 -5.4 6 -6.2 9.1 -6.2 3.3 0 3.5 0.1 2.1 1.8 -2.6 3.2 -4 7.4 -2.7 8.3 0.9 0.5 0.3 1.9 -2 4.7 -3.7 4.7 -7.5 12.8 -9.2 19.5 -1.1 4.5 -1.9 5.2 -4.6 4z"/>
  <path d="M61.9 112.5 c-1.9 -1.8 4.5 -12.5 7.4 -12.5 1.8 0 3.9 5.5 3.5 9.2 -0.3 3.2 -0.4 3.3 -5.3 3.6 -2.8 0.2 -5.3 0 -5.6 -0.3z"/>
 </g>
 <g fill="#eae095">
  <path d="M98 266.4 c-6.3 -2.8 -11.6 -5.6 -11.7 -6.1 -0.2 -0.4 1.4 -1.6 3.6 -2.5 l3.9 -1.7 6.3 3.4 c3.5 1.9 8.7 4.2 11.4 5.1 2.8 0.9 5.3 1.9 5.7 2.3 0.3 0.3 -1.2 1.5 -3.5 2.7 l-4.2 2.1 -11.5 -5.3z"/>
  <path d="M73 248.7 c-3 -1.3 -8.1 -3.7 -11.4 -5.4 l-5.9 -3 4.5 -1.2 c4.3 -1.2 4.8 -1.1 13.4 2.7 4.9 2.2 10 4.3 11.3 4.7 2.2 0.7 2.1 0.8 -1.9 2.6 -2.3 1 -4.3 1.9 -4.4 1.9 0 0 -2.6 -1.1 -5.6 -2.3z"/>
 </g>
 <g fill="#cdcbde">
  <path d="M96.1 377.6 c0.2 -0.3 7.4 -2.6 15.9 -5.1 8.5 -2.6 16.1 -5.2 16.8 -5.7 0.8 -0.7 1.2 -0.7 1.2 0.1 0 1.6 -2.3 2.5 -17.9 7.1 -12.2 3.6 -17.2 4.7 -16 3.6z"/>
  <path d="M79.8 300.9 c3.9 -1.5 67.5 -14.9 71.1 -14.9 3.9 0 -1.3 1.4 -18.5 5 -25.9 5.3 -31.6 6.6 -41.4 8.9 -4.7 1.2 -9.6 2.1 -11 2 l-2.5 0 2.3 -1z"/>
  <path d="M232 231.1 c0 -1.3 1.8 -3 5.5 -5 3.1 -1.7 7.2 -4.6 9.3 -6.5 2 -1.8 4.2 -3.1 4.9 -2.9 2.2 0.8 10.1 -8.4 13.3 -15.4 4.4 -9.6 6 -17.2 6 -29 0 -9.6 0.1 -10.3 2 -10.3 1.9 0 2 0.7 2 9.4 l0 9.4 2.9 0.5 3 0.6 -2 7.2 c-2.5 9.1 -2.6 9.2 -5.2 7.4 -1.9 -1.3 -2.3 -1.3 -3.9 0.2 -1 0.9 -1.8 2.3 -1.8 3.1 0 0.7 -0.8 2.6 -1.9 4 -1 1.5 -2.8 4.6 -4 7 -3.2 6.4 -13.7 16.4 -20.3 19.5 -6.8 3.2 -9.8 3.5 -9.8 0.8z"/>
  <path d="M88.6 172.2 c-0.8 -2.5 2 -17.2 4.5 -23.4 l1.9 -4.9 -3 -2.9 c-2.2 -2.1 -3 -3.9 -3 -6.3 0 -1.9 -0.7 -4 -1.5 -4.7 -0.8 -0.7 -1.5 -0.9 -1.5 -0.5 0 0.4 -0.7 0.2 -1.6 -0.6 -1 -0.8 -1.3 -2.1 -0.9 -3.7 0.3 -1.4 0 -4.5 -0.7 -6.9 -1.1 -4 -1.5 -4.3 -3.7 -3.8 -1.4 0.4 -3.8 1.7 -5.4 3.1 -1.6 1.3 -3.9 2.4 -5.3 2.4 -1.3 0 -2.4 0.6 -2.5 1.3 -0.1 3 -0.8 7 -1.3 7.4 -0.2 0.3 -1.4 -1.3 -2.5 -3.5 -1.2 -2.3 -2.8 -4.5 -3.7 -5 -1.4 -0.8 -1.5 -1.4 -0.5 -4.5 0.7 -1.9 1.8 -3.8 2.6 -4.1 0.8 -0.3 1.5 -1.2 1.5 -2 0 -1.2 0.5 -1.2 3 -0.3 4 1.5 5.6 0 3.7 -3.6 -0.8 -1.5 -1.7 -2.4 -2 -2 -0.4 0.3 -0.7 0.2 -0.7 -0.4 0 -2.1 10.2 -10.3 16.8 -13.5 5.2 -2.6 8.2 -3.4 14.1 -3.7 l7.4 -0.3 -0.6 3.8 c-0.4 2.2 -1.3 4.4 -2.2 5 -1.6 1.2 -2.1 5.4 -0.6 5.4 1.9 0 3.3 7.2 2.6 13.4 -0.5 5.4 -0.4 6.4 1.3 8 1.1 0.9 2.3 3.3 2.7 5.2 0.5 3.1 0.1 4 -3.9 8.7 -2.6 2.8 -4.6 6 -4.6 7 0 1.1 -0.6 4.2 -1.4 7 -2.1 7.8 -2.7 11.9 -1.6 11.2 1.2 -0.7 1.3 2.3 0.4 8.9 -0.6 4.4 -0.8 4.6 -4 4.6 -2.3 0 -3.4 -0.5 -3.8 -1.8z"/>
 </g>
 <g fill="#e4dee5">
  <path d="M159.8 238 c-4.7 -0.4 -13.6 -1.8 -19.6 -2.9 -19.9 -3.8 -28.9 -8 -38.2 -17.7 -9.7 -10.1 -13.9 -22.2 -14 -39.6 0 -8.1 0.2 -8.8 2 -8.8 1.1 0 2 0.5 2 1 0 1.7 2.8 1.1 3.3 -0.7 0.3 -1 0.5 2.3 0.6 7.2 0.3 22.7 8.2 38.8 23 46.8 10.2 5.6 41.8 10.7 70.6 11.4 15.6 0.4 19.4 0.2 28.4 -1.7 5.7 -1.1 11.8 -2.8 13.4 -3.7 2.2 -1.1 3.2 -1.2 3.5 -0.4 0.2 0.6 1 1.1 1.8 1.1 2.6 0 1.4 2.1 -2.1 3.6 -8.5 3.5 -16.9 4.5 -41.5 4.9 -13.5 0.2 -28.4 0 -33.2 -0.5z"/>
  <path d="M271.4 174.5 c0.1 -5.5 -0.3 -13.4 -0.8 -17.5 -0.7 -6.5 -0.6 -7.7 0.8 -8.9 0.9 -0.7 1.6 -2.8 1.6 -4.6 0 -1.8 0.7 -3.8 1.6 -4.5 0.8 -0.8 2.1 -2.8 2.9 -4.7 0.8 -1.8 1.9 -3.3 2.4 -3.3 0.6 0 1.1 -0.7 1.1 -1.5 0 -3.2 2.9 -1.4 3.6 2.2 1 5.4 -0.3 30.5 -2.1 40.8 -2.3 13.1 -2 12.4 -6.9 12.2 l-4.2 -0.2 0 -10z"/>
  <path d="M104.4 129.7 c-0.3 -1.8 -1.7 -4.4 -3 -5.9 -1.7 -2.2 -2.2 -3.8 -2 -7.2 0.2 -2.4 0.6 -4.9 1 -5.5 0.4 -0.6 0.2 -2.7 -0.4 -4.7 -0.9 -2.7 -1.6 -3.3 -3 -2.9 -1.3 0.4 -2.1 -0.3 -3.1 -2.7 -0.7 -1.8 -1.5 -3.7 -1.7 -4.3 -0.3 -0.5 0.2 -0.4 1.1 0.3 2.1 1.8 3.7 0.7 3.7 -2.4 0 -1.3 0.5 -2.4 1.1 -2.4 0.5 0 1.5 -1.4 2.1 -3.1 1.1 -3.1 1.2 -3.1 5.9 -2.6 6.2 0.8 10.9 2.8 28.1 12.5 l13.8 7.7 -0.2 4 c-0.3 3.9 -0.4 4 -4.5 4.3 -4 0.3 -4.3 0.5 -4.3 3.1 0 2.7 -0.2 2.8 -6.8 3.4 -8.3 0.7 -16.9 3.8 -22.7 8.2 l-4.4 3.4 -0.7 -3.2z"/>
  <path d="M198.6 124.8 c-1.4 -5.2 -0.8 -6.7 2.9 -7.3 1.9 -0.3 5.1 -0.7 7 -1 3.4 -0.6 3.5 -0.5 3.5 2.9 0 2.8 -0.6 3.8 -3.4 5.5 -4.6 2.9 -9.2 2.8 -10 -0.1z"/>
  <path d="M175.8 123.9 c-1.2 -0.7 -1.8 -2.2 -1.8 -4.6 0 -3.6 0 -3.6 3.8 -3 2 0.4 7 0.9 11 1.3 6.3 0.6 7.2 0.9 7.2 2.7 0 3.4 -3 4.6 -11 4.6 -4.1 0 -8.3 -0.4 -9.2 -1z"/>
  <path d="M216.2 118.8 c-0.7 -0.7 -1.2 -1.7 -1.2 -2.2 0 -0.9 14.1 -6.6 16.3 -6.6 1.2 0 0.8 7.5 -0.5 8.8 -0.7 0.7 -3.9 1.2 -7.3 1.2 -3.4 0 -6.6 -0.5 -7.3 -1.2z"/>
  <path d="M198.9 103.3 c-1.4 -1.6 -3.7 -4.7 -5.2 -7 -2.5 -4 -3 -4.3 -7.2 -4.3 -3.3 0 -4.5 0.4 -4.5 1.5 0 0.8 -0.7 1.5 -1.5 1.5 -1.1 0 -1.5 -1.2 -1.5 -4.5 0 -4.1 -0.2 -4.5 -2.4 -4.5 -2.3 0 -2.5 -0.4 -3.1 -7.5 -0.4 -4.1 -0.5 -8.1 -0.1 -9 0.8 -2.2 10.2 -2.1 11 0.1 1.2 3.1 0.6 5.4 -1.3 5.4 -1.3 0 -2 1 -2.4 3.6 -0.9 5.6 0.7 6.5 10.5 6.2 8.3 -0.3 8.3 -0.3 8.6 -3.1 0.5 -4.1 -1.2 -5.4 -7.8 -6.2 -5.4 -0.6 -6 -0.9 -6 -3 0 -3.4 5.8 -4.5 13.3 -2.4 3 0.8 3.7 1.5 3.7 3.4 0 1.7 0.4 2.3 1.4 1.9 1.8 -0.7 3.6 2.5 3.6 6.5 0 2.1 -1.1 4.3 -3.4 6.8 l-3.3 3.6 3 4.9 c2.9 4.7 2.9 4.9 1.2 6.8 -2.4 2.7 -3.7 2.5 -6.6 -0.7z"/>
 </g>
 <g fill="#f2edf1">
  <path d="M269.4 154.9 c-3.6 -12.7 -11.9 -21.7 -24.2 -26.1 -6.1 -2.2 -17.9 -2.7 -46.2 -1.9 -11.3 0.3 -16 0 -29 -2.3 -8.5 -1.5 -19.6 -3 -24.7 -3.3 -8.7 -0.6 -9.2 -0.7 -9.8 -3.1 -0.3 -1.3 -0.4 -2.7 -0.1 -2.9 0.3 -0.3 -0.4 -1.4 -1.5 -2.6 -2 -2.2 -2.5 -6.2 -0.9 -7.2 0.6 -0.4 0.8 -1.1 0.5 -1.6 -0.4 -0.5 0.1 -1.6 0.9 -2.5 2.5 -2.4 5.2 -0.2 5.9 4.7 0.6 4.6 1.9 6.5 3.7 5.4 0.7 -0.4 0.9 -1.8 0.4 -3.7 -0.5 -2.4 -0.3 -3 0.7 -2.5 13.4 5.4 17.6 6.9 24.2 8.8 5.8 1.8 7.7 2.7 7.7 4.1 0 2.4 3 3.8 8.2 3.8 4.2 -0.1 8.4 -2 7.1 -3.3 -0.3 -0.4 1.4 -0.7 4 -0.7 4.3 0 4.6 0.2 5.2 3 l0.7 3.1 3.1 -2 c1.8 -1.1 3.2 -2.8 3.2 -3.8 0 -2.2 7.7 -4 10.9 -2.5 4.9 2.3 10.2 0.6 9.1 -2.9 -0.5 -1.6 1.5 -2.9 12.6 -8.4 11.5 -5.7 13.9 -6.5 18.9 -6.5 10.1 0 16.6 6.8 21.6 22.6 2.5 7.8 3.2 15 1.4 13.9 -0.6 -0.4 -1.7 0.9 -2.5 2.8 -0.7 1.8 -2.1 4 -3 4.7 -1.1 0.9 -1.4 2.2 -0.9 4.2 0.5 2.4 0.1 3.3 -1.5 4.5 -1.6 1.1 -1.9 1.8 -1.1 2.7 0.7 0.9 0.5 2.2 -0.6 4.5 -0.8 1.7 -1.7 3.1 -1.9 3.1 -0.2 0 -1.2 -2.7 -2.1 -6.1z"/>
  <path d="M283.7 151.2 c-0.4 -3.2 -0.2 -7.1 0.2 -8.8 0.7 -2.2 0.9 -0.8 1 5.9 0.1 4.8 -0.1 8.7 -0.3 8.7 -0.2 0 -0.6 -2.6 -0.9 -5.8z"/>
  <path d="M175.7 103.3 c-0.3 -0.5 -0.8 -5.4 -1.2 -11 -0.6 -9.4 -0.5 -10.2 1 -9.7 1.4 0.6 1.6 0.2 1.3 -2.2 -0.2 -2.4 0.1 -3 2 -3.2 1.8 -0.3 2.2 0.1 2.2 2.1 0 5 0.8 5.7 7.1 5.7 6.1 0 7.9 1.5 3.3 2.6 -1.4 0.4 -3 0.2 -3.7 -0.5 -1.2 -1.2 -5.8 -1.5 -5.6 -0.3 0.1 0.4 0.1 4.4 0 9 l-0.1 8.2 -2.9 0 c-1.7 0 -3.2 -0.3 -3.4 -0.7z"/>
  <path d="M197 97.4 c0 -0.8 0.4 -2.4 1 -3.4 0.7 -1.3 0.6 -2.1 -0.5 -3 -2.3 -1.9 -1.9 -5.7 0.7 -6.4 1.6 -0.4 2.9 0.2 4.5 1.8 2.1 2.4 2.2 2.4 0.3 4.1 -1.7 1.6 -1.8 2 -0.5 3.8 1.3 1.8 1.2 2.2 -0.3 3.3 -2.4 1.8 -5.2 1.7 -5.2 -0.2z"/>
  <path d="M199.7 78.8 c-1.4 -2.4 -1.5 -3.3 -0.6 -3.9 1.7 -1 -5.5 -2.9 -8.3 -2.1 -1.9 0.6 -1.6 0.8 1.7 1.3 3.3 0.5 2.7 0.6 -3.2 0.8 -7 0.1 -7.1 0.1 -8.2 -2.9 -1.3 -3.8 -5.6 -4.3 -7.1 -0.7 -1 2.2 -1 2.2 -0.7 -0.3 l0.2 -2.5 12.3 0.3 c13.1 0.3 16.7 1.3 19.6 5.4 2.2 3.1 2 4.1 -1.2 6 -2.7 1.6 -2.8 1.6 -4.5 -1.4z"/>
 </g>
</svg>